<?xml version="1.0" encoding="utf-8" standalone="no"?>
<!DOCTYPE svg PUBLIC "-//W3C//DTD SVG 1.1//EN"
  "http://www.w3.org/Graphics/SVG/1.1/DTD/svg11.dtd">
<svg xmlns:xlink="http://www.w3.org/1999/xlink" width="432pt" height="288pt" viewBox="0 0 432 288" xmlns="http://www.w3.org/2000/svg" version="1.1">
 <metadata>
  <rdf:RDF xmlns:dc="http://purl.org/dc/elements/1.1/" xmlns:cc="http://creativecommons.org/ns#" xmlns:rdf="http://www.w3.org/1999/02/22-rdf-syntax-ns#">
   <cc:Work>
    <dc:type rdf:resource="http://purl.org/dc/dcmitype/StillImage"/>
    <dc:date>2023-09-17T18:57:44.059611</dc:date>
    <dc:format>image/svg+xml</dc:format>
    <dc:creator>
     <cc:Agent>
      <dc:title>Matplotlib v3.5.1, https://matplotlib.org/</dc:title>
     </cc:Agent>
    </dc:creator>
   </cc:Work>
  </rdf:RDF>
 </metadata>
 <defs>
  <style type="text/css">*{stroke-linejoin: round; stroke-linecap: butt}</style>
 </defs>
 <g id="figure_1">
  <g id="patch_1">
   <path d="M 0 288 
L 432 288 
L 432 0 
L 0 0 
L 0 288 
z
" style="fill: none"/>
  </g>
  <g id="axes_1">
   <g id="patch_2">
    <path d="M 54 252 
L 388.8 252 
L 388.8 34.56 
L 54 34.56 
z
" style="fill: #ffffff"/>
   </g>
   <g id="matplotlib.axis_1">
    <g id="xtick_1">
     <g id="line2d_1">
      <path d="M 77.074922 252 
L 77.074922 34.56 
" clip-path="url(#p3931f3e5af)" style="fill: none; stroke: #b0b0b0; stroke-width: 0.8; stroke-linecap: square"/>
     </g>
     <g id="line2d_2">
      <defs>
       <path id="m980ab2c78c" d="M 0 0 
L 0 3.5 
" style="stroke: #000000; stroke-width: 0.8"/>
      </defs>
      <g>
       <use xlink:href="#m980ab2c78c" x="77.074922" y="252" style="stroke: #000000; stroke-width: 0.8"/>
      </g>
     </g>
     <g id="text_1">
      <!-- −1.0 -->
      <g transform="translate(64.933516 266.598437)scale(0.1 -0.1)">
       <defs>
        <path id="DejaVuSans-2212" d="M 678 2272 
L 4684 2272 
L 4684 1741 
L 678 1741 
L 678 2272 
z
" transform="scale(0.015625)"/>
        <path id="DejaVuSans-31" d="M 794 531 
L 1825 531 
L 1825 4091 
L 703 3866 
L 703 4441 
L 1819 4666 
L 2450 4666 
L 2450 531 
L 3481 531 
L 3481 0 
L 794 0 
L 794 531 
z
" transform="scale(0.015625)"/>
        <path id="DejaVuSans-2e" d="M 684 794 
L 1344 794 
L 1344 0 
L 684 0 
L 684 794 
z
" transform="scale(0.015625)"/>
        <path id="DejaVuSans-30" d="M 2034 4250 
Q 1547 4250 1301 3770 
Q 1056 3291 1056 2328 
Q 1056 1369 1301 889 
Q 1547 409 2034 409 
Q 2525 409 2770 889 
Q 3016 1369 3016 2328 
Q 3016 3291 2770 3770 
Q 2525 4250 2034 4250 
z
M 2034 4750 
Q 2819 4750 3233 4129 
Q 3647 3509 3647 2328 
Q 3647 1150 3233 529 
Q 2819 -91 2034 -91 
Q 1250 -91 836 529 
Q 422 1150 422 2328 
Q 422 3509 836 4129 
Q 1250 4750 2034 4750 
z
" transform="scale(0.015625)"/>
       </defs>
       <use xlink:href="#DejaVuSans-2212"/>
       <use xlink:href="#DejaVuSans-31" x="83.789062"/>
       <use xlink:href="#DejaVuSans-2e" x="147.412109"/>
       <use xlink:href="#DejaVuSans-30" x="179.199219"/>
      </g>
     </g>
    </g>
    <g id="xtick_2">
     <g id="line2d_3">
      <path d="M 138.378915 252 
L 138.378915 34.56 
" clip-path="url(#p3931f3e5af)" style="fill: none; stroke: #b0b0b0; stroke-width: 0.8; stroke-linecap: square"/>
     </g>
     <g id="line2d_4">
      <g>
       <use xlink:href="#m980ab2c78c" x="138.378915" y="252" style="stroke: #000000; stroke-width: 0.8"/>
      </g>
     </g>
     <g id="text_2">
      <!-- −0.5 -->
      <g transform="translate(126.237509 266.598437)scale(0.1 -0.1)">
       <defs>
        <path id="DejaVuSans-35" d="M 691 4666 
L 3169 4666 
L 3169 4134 
L 1269 4134 
L 1269 2991 
Q 1406 3038 1543 3061 
Q 1681 3084 1819 3084 
Q 2600 3084 3056 2656 
Q 3513 2228 3513 1497 
Q 3513 744 3044 326 
Q 2575 -91 1722 -91 
Q 1428 -91 1123 -41 
Q 819 9 494 109 
L 494 744 
Q 775 591 1075 516 
Q 1375 441 1709 441 
Q 2250 441 2565 725 
Q 2881 1009 2881 1497 
Q 2881 1984 2565 2268 
Q 2250 2553 1709 2553 
Q 1456 2553 1204 2497 
Q 953 2441 691 2322 
L 691 4666 
z
" transform="scale(0.015625)"/>
       </defs>
       <use xlink:href="#DejaVuSans-2212"/>
       <use xlink:href="#DejaVuSans-30" x="83.789062"/>
       <use xlink:href="#DejaVuSans-2e" x="147.412109"/>
       <use xlink:href="#DejaVuSans-35" x="179.199219"/>
      </g>
     </g>
    </g>
    <g id="xtick_3">
     <g id="line2d_5">
      <path d="M 199.682908 252 
L 199.682908 34.56 
" clip-path="url(#p3931f3e5af)" style="fill: none; stroke: #b0b0b0; stroke-width: 0.8; stroke-linecap: square"/>
     </g>
     <g id="line2d_6">
      <g>
       <use xlink:href="#m980ab2c78c" x="199.682908" y="252" style="stroke: #000000; stroke-width: 0.8"/>
      </g>
     </g>
     <g id="text_3">
      <!-- 0.0 -->
      <g transform="translate(191.731346 266.598437)scale(0.1 -0.1)">
       <use xlink:href="#DejaVuSans-30"/>
       <use xlink:href="#DejaVuSans-2e" x="63.623047"/>
       <use xlink:href="#DejaVuSans-30" x="95.410156"/>
      </g>
     </g>
    </g>
    <g id="xtick_4">
     <g id="line2d_7">
      <path d="M 260.986901 252 
L 260.986901 34.56 
" clip-path="url(#p3931f3e5af)" style="fill: none; stroke: #b0b0b0; stroke-width: 0.8; stroke-linecap: square"/>
     </g>
     <g id="line2d_8">
      <g>
       <use xlink:href="#m980ab2c78c" x="260.986901" y="252" style="stroke: #000000; stroke-width: 0.8"/>
      </g>
     </g>
     <g id="text_4">
      <!-- 0.5 -->
      <g transform="translate(253.035338 266.598437)scale(0.1 -0.1)">
       <use xlink:href="#DejaVuSans-30"/>
       <use xlink:href="#DejaVuSans-2e" x="63.623047"/>
       <use xlink:href="#DejaVuSans-35" x="95.410156"/>
      </g>
     </g>
    </g>
    <g id="xtick_5">
     <g id="line2d_9">
      <path d="M 322.290894 252 
L 322.290894 34.56 
" clip-path="url(#p3931f3e5af)" style="fill: none; stroke: #b0b0b0; stroke-width: 0.8; stroke-linecap: square"/>
     </g>
     <g id="line2d_10">
      <g>
       <use xlink:href="#m980ab2c78c" x="322.290894" y="252" style="stroke: #000000; stroke-width: 0.8"/>
      </g>
     </g>
     <g id="text_5">
      <!-- 1.0 -->
      <g transform="translate(314.339331 266.598437)scale(0.1 -0.1)">
       <use xlink:href="#DejaVuSans-31"/>
       <use xlink:href="#DejaVuSans-2e" x="63.623047"/>
       <use xlink:href="#DejaVuSans-30" x="95.410156"/>
      </g>
     </g>
    </g>
    <g id="xtick_6">
     <g id="line2d_11">
      <path d="M 383.594887 252 
L 383.594887 34.56 
" clip-path="url(#p3931f3e5af)" style="fill: none; stroke: #b0b0b0; stroke-width: 0.8; stroke-linecap: square"/>
     </g>
     <g id="line2d_12">
      <g>
       <use xlink:href="#m980ab2c78c" x="383.594887" y="252" style="stroke: #000000; stroke-width: 0.8"/>
      </g>
     </g>
     <g id="text_6">
      <!-- 1.5 -->
      <g transform="translate(375.643324 266.598437)scale(0.1 -0.1)">
       <use xlink:href="#DejaVuSans-31"/>
       <use xlink:href="#DejaVuSans-2e" x="63.623047"/>
       <use xlink:href="#DejaVuSans-35" x="95.410156"/>
      </g>
     </g>
    </g>
    <g id="text_7">
     <!-- X Coordinate -->
     <g transform="translate(188.975 280.276563)scale(0.1 -0.1)">
      <defs>
       <path id="DejaVuSans-58" d="M 403 4666 
L 1081 4666 
L 2241 2931 
L 3406 4666 
L 4084 4666 
L 2584 2425 
L 4184 0 
L 3506 0 
L 2194 1984 
L 872 0 
L 191 0 
L 1856 2491 
L 403 4666 
z
" transform="scale(0.015625)"/>
       <path id="DejaVuSans-20" transform="scale(0.015625)"/>
       <path id="DejaVuSans-43" d="M 4122 4306 
L 4122 3641 
Q 3803 3938 3442 4084 
Q 3081 4231 2675 4231 
Q 1875 4231 1450 3742 
Q 1025 3253 1025 2328 
Q 1025 1406 1450 917 
Q 1875 428 2675 428 
Q 3081 428 3442 575 
Q 3803 722 4122 1019 
L 4122 359 
Q 3791 134 3420 21 
Q 3050 -91 2638 -91 
Q 1578 -91 968 557 
Q 359 1206 359 2328 
Q 359 3453 968 4101 
Q 1578 4750 2638 4750 
Q 3056 4750 3426 4639 
Q 3797 4528 4122 4306 
z
" transform="scale(0.015625)"/>
       <path id="DejaVuSans-6f" d="M 1959 3097 
Q 1497 3097 1228 2736 
Q 959 2375 959 1747 
Q 959 1119 1226 758 
Q 1494 397 1959 397 
Q 2419 397 2687 759 
Q 2956 1122 2956 1747 
Q 2956 2369 2687 2733 
Q 2419 3097 1959 3097 
z
M 1959 3584 
Q 2709 3584 3137 3096 
Q 3566 2609 3566 1747 
Q 3566 888 3137 398 
Q 2709 -91 1959 -91 
Q 1206 -91 779 398 
Q 353 888 353 1747 
Q 353 2609 779 3096 
Q 1206 3584 1959 3584 
z
" transform="scale(0.015625)"/>
       <path id="DejaVuSans-72" d="M 2631 2963 
Q 2534 3019 2420 3045 
Q 2306 3072 2169 3072 
Q 1681 3072 1420 2755 
Q 1159 2438 1159 1844 
L 1159 0 
L 581 0 
L 581 3500 
L 1159 3500 
L 1159 2956 
Q 1341 3275 1631 3429 
Q 1922 3584 2338 3584 
Q 2397 3584 2469 3576 
Q 2541 3569 2628 3553 
L 2631 2963 
z
" transform="scale(0.015625)"/>
       <path id="DejaVuSans-64" d="M 2906 2969 
L 2906 4863 
L 3481 4863 
L 3481 0 
L 2906 0 
L 2906 525 
Q 2725 213 2448 61 
Q 2172 -91 1784 -91 
Q 1150 -91 751 415 
Q 353 922 353 1747 
Q 353 2572 751 3078 
Q 1150 3584 1784 3584 
Q 2172 3584 2448 3432 
Q 2725 3281 2906 2969 
z
M 947 1747 
Q 947 1113 1208 752 
Q 1469 391 1925 391 
Q 2381 391 2643 752 
Q 2906 1113 2906 1747 
Q 2906 2381 2643 2742 
Q 2381 3103 1925 3103 
Q 1469 3103 1208 2742 
Q 947 2381 947 1747 
z
" transform="scale(0.015625)"/>
       <path id="DejaVuSans-69" d="M 603 3500 
L 1178 3500 
L 1178 0 
L 603 0 
L 603 3500 
z
M 603 4863 
L 1178 4863 
L 1178 4134 
L 603 4134 
L 603 4863 
z
" transform="scale(0.015625)"/>
       <path id="DejaVuSans-6e" d="M 3513 2113 
L 3513 0 
L 2938 0 
L 2938 2094 
Q 2938 2591 2744 2837 
Q 2550 3084 2163 3084 
Q 1697 3084 1428 2787 
Q 1159 2491 1159 1978 
L 1159 0 
L 581 0 
L 581 3500 
L 1159 3500 
L 1159 2956 
Q 1366 3272 1645 3428 
Q 1925 3584 2291 3584 
Q 2894 3584 3203 3211 
Q 3513 2838 3513 2113 
z
" transform="scale(0.015625)"/>
       <path id="DejaVuSans-61" d="M 2194 1759 
Q 1497 1759 1228 1600 
Q 959 1441 959 1056 
Q 959 750 1161 570 
Q 1363 391 1709 391 
Q 2188 391 2477 730 
Q 2766 1069 2766 1631 
L 2766 1759 
L 2194 1759 
z
M 3341 1997 
L 3341 0 
L 2766 0 
L 2766 531 
Q 2569 213 2275 61 
Q 1981 -91 1556 -91 
Q 1019 -91 701 211 
Q 384 513 384 1019 
Q 384 1609 779 1909 
Q 1175 2209 1959 2209 
L 2766 2209 
L 2766 2266 
Q 2766 2663 2505 2880 
Q 2244 3097 1772 3097 
Q 1472 3097 1187 3025 
Q 903 2953 641 2809 
L 641 3341 
Q 956 3463 1253 3523 
Q 1550 3584 1831 3584 
Q 2591 3584 2966 3190 
Q 3341 2797 3341 1997 
z
" transform="scale(0.015625)"/>
       <path id="DejaVuSans-74" d="M 1172 4494 
L 1172 3500 
L 2356 3500 
L 2356 3053 
L 1172 3053 
L 1172 1153 
Q 1172 725 1289 603 
Q 1406 481 1766 481 
L 2356 481 
L 2356 0 
L 1766 0 
Q 1100 0 847 248 
Q 594 497 594 1153 
L 594 3053 
L 172 3053 
L 172 3500 
L 594 3500 
L 594 4494 
L 1172 4494 
z
" transform="scale(0.015625)"/>
       <path id="DejaVuSans-65" d="M 3597 1894 
L 3597 1613 
L 953 1613 
Q 991 1019 1311 708 
Q 1631 397 2203 397 
Q 2534 397 2845 478 
Q 3156 559 3463 722 
L 3463 178 
Q 3153 47 2828 -22 
Q 2503 -91 2169 -91 
Q 1331 -91 842 396 
Q 353 884 353 1716 
Q 353 2575 817 3079 
Q 1281 3584 2069 3584 
Q 2775 3584 3186 3129 
Q 3597 2675 3597 1894 
z
M 3022 2063 
Q 3016 2534 2758 2815 
Q 2500 3097 2075 3097 
Q 1594 3097 1305 2825 
Q 1016 2553 972 2059 
L 3022 2063 
z
" transform="scale(0.015625)"/>
      </defs>
      <use xlink:href="#DejaVuSans-58"/>
      <use xlink:href="#DejaVuSans-20" x="68.505859"/>
      <use xlink:href="#DejaVuSans-43" x="100.292969"/>
      <use xlink:href="#DejaVuSans-6f" x="170.117188"/>
      <use xlink:href="#DejaVuSans-6f" x="231.298828"/>
      <use xlink:href="#DejaVuSans-72" x="292.480469"/>
      <use xlink:href="#DejaVuSans-64" x="331.84375"/>
      <use xlink:href="#DejaVuSans-69" x="395.320312"/>
      <use xlink:href="#DejaVuSans-6e" x="423.103516"/>
      <use xlink:href="#DejaVuSans-61" x="486.482422"/>
      <use xlink:href="#DejaVuSans-74" x="547.761719"/>
      <use xlink:href="#DejaVuSans-65" x="586.970703"/>
     </g>
    </g>
    <g id="text_8">
     <!-- 1e10 -->
     <g transform="translate(363.559375 279.276563)scale(0.1 -0.1)">
      <use xlink:href="#DejaVuSans-31"/>
      <use xlink:href="#DejaVuSans-65" x="63.623047"/>
      <use xlink:href="#DejaVuSans-31" x="125.146484"/>
      <use xlink:href="#DejaVuSans-30" x="188.769531"/>
     </g>
    </g>
   </g>
   <g id="matplotlib.axis_2">
    <g id="ytick_1">
     <g id="line2d_13">
      <path d="M 54 250.129983 
L 388.8 250.129983 
" clip-path="url(#p3931f3e5af)" style="fill: none; stroke: #b0b0b0; stroke-width: 0.8; stroke-linecap: square"/>
     </g>
     <g id="line2d_14">
      <defs>
       <path id="m67eaa1f088" d="M 0 0 
L -3.5 0 
" style="stroke: #000000; stroke-width: 0.8"/>
      </defs>
      <g>
       <use xlink:href="#m67eaa1f088" x="54" y="250.129983" style="stroke: #000000; stroke-width: 0.8"/>
      </g>
     </g>
     <g id="text_9">
      <!-- −2 -->
      <g transform="translate(32.257812 253.929202)scale(0.1 -0.1)">
       <defs>
        <path id="DejaVuSans-32" d="M 1228 531 
L 3431 531 
L 3431 0 
L 469 0 
L 469 531 
Q 828 903 1448 1529 
Q 2069 2156 2228 2338 
Q 2531 2678 2651 2914 
Q 2772 3150 2772 3378 
Q 2772 3750 2511 3984 
Q 2250 4219 1831 4219 
Q 1534 4219 1204 4116 
Q 875 4013 500 3803 
L 500 4441 
Q 881 4594 1212 4672 
Q 1544 4750 1819 4750 
Q 2544 4750 2975 4387 
Q 3406 4025 3406 3419 
Q 3406 3131 3298 2873 
Q 3191 2616 2906 2266 
Q 2828 2175 2409 1742 
Q 1991 1309 1228 531 
z
" transform="scale(0.015625)"/>
       </defs>
       <use xlink:href="#DejaVuSans-2212"/>
       <use xlink:href="#DejaVuSans-32" x="83.789062"/>
      </g>
     </g>
    </g>
    <g id="ytick_2">
     <g id="line2d_15">
      <path d="M 54 217.672087 
L 388.8 217.672087 
" clip-path="url(#p3931f3e5af)" style="fill: none; stroke: #b0b0b0; stroke-width: 0.8; stroke-linecap: square"/>
     </g>
     <g id="line2d_16">
      <g>
       <use xlink:href="#m67eaa1f088" x="54" y="217.672087" style="stroke: #000000; stroke-width: 0.8"/>
      </g>
     </g>
     <g id="text_10">
      <!-- −1 -->
      <g transform="translate(32.257812 221.471306)scale(0.1 -0.1)">
       <use xlink:href="#DejaVuSans-2212"/>
       <use xlink:href="#DejaVuSans-31" x="83.789062"/>
      </g>
     </g>
    </g>
    <g id="ytick_3">
     <g id="line2d_17">
      <path d="M 54 185.21419 
L 388.8 185.21419 
" clip-path="url(#p3931f3e5af)" style="fill: none; stroke: #b0b0b0; stroke-width: 0.8; stroke-linecap: square"/>
     </g>
     <g id="line2d_18">
      <g>
       <use xlink:href="#m67eaa1f088" x="54" y="185.21419" style="stroke: #000000; stroke-width: 0.8"/>
      </g>
     </g>
     <g id="text_11">
      <!-- 0 -->
      <g transform="translate(40.6375 189.013409)scale(0.1 -0.1)">
       <use xlink:href="#DejaVuSans-30"/>
      </g>
     </g>
    </g>
    <g id="ytick_4">
     <g id="line2d_19">
      <path d="M 54 152.756294 
L 388.8 152.756294 
" clip-path="url(#p3931f3e5af)" style="fill: none; stroke: #b0b0b0; stroke-width: 0.8; stroke-linecap: square"/>
     </g>
     <g id="line2d_20">
      <g>
       <use xlink:href="#m67eaa1f088" x="54" y="152.756294" style="stroke: #000000; stroke-width: 0.8"/>
      </g>
     </g>
     <g id="text_12">
      <!-- 1 -->
      <g transform="translate(40.6375 156.555513)scale(0.1 -0.1)">
       <use xlink:href="#DejaVuSans-31"/>
      </g>
     </g>
    </g>
    <g id="ytick_5">
     <g id="line2d_21">
      <path d="M 54 120.298397 
L 388.8 120.298397 
" clip-path="url(#p3931f3e5af)" style="fill: none; stroke: #b0b0b0; stroke-width: 0.8; stroke-linecap: square"/>
     </g>
     <g id="line2d_22">
      <g>
       <use xlink:href="#m67eaa1f088" x="54" y="120.298397" style="stroke: #000000; stroke-width: 0.8"/>
      </g>
     </g>
     <g id="text_13">
      <!-- 2 -->
      <g transform="translate(40.6375 124.097616)scale(0.1 -0.1)">
       <use xlink:href="#DejaVuSans-32"/>
      </g>
     </g>
    </g>
    <g id="ytick_6">
     <g id="line2d_23">
      <path d="M 54 87.840501 
L 388.8 87.840501 
" clip-path="url(#p3931f3e5af)" style="fill: none; stroke: #b0b0b0; stroke-width: 0.8; stroke-linecap: square"/>
     </g>
     <g id="line2d_24">
      <g>
       <use xlink:href="#m67eaa1f088" x="54" y="87.840501" style="stroke: #000000; stroke-width: 0.8"/>
      </g>
     </g>
     <g id="text_14">
      <!-- 3 -->
      <g transform="translate(40.6375 91.63972)scale(0.1 -0.1)">
       <defs>
        <path id="DejaVuSans-33" d="M 2597 2516 
Q 3050 2419 3304 2112 
Q 3559 1806 3559 1356 
Q 3559 666 3084 287 
Q 2609 -91 1734 -91 
Q 1441 -91 1130 -33 
Q 819 25 488 141 
L 488 750 
Q 750 597 1062 519 
Q 1375 441 1716 441 
Q 2309 441 2620 675 
Q 2931 909 2931 1356 
Q 2931 1769 2642 2001 
Q 2353 2234 1838 2234 
L 1294 2234 
L 1294 2753 
L 1863 2753 
Q 2328 2753 2575 2939 
Q 2822 3125 2822 3475 
Q 2822 3834 2567 4026 
Q 2313 4219 1838 4219 
Q 1578 4219 1281 4162 
Q 984 4106 628 3988 
L 628 4550 
Q 988 4650 1302 4700 
Q 1616 4750 1894 4750 
Q 2613 4750 3031 4423 
Q 3450 4097 3450 3541 
Q 3450 3153 3228 2886 
Q 3006 2619 2597 2516 
z
" transform="scale(0.015625)"/>
       </defs>
       <use xlink:href="#DejaVuSans-33"/>
      </g>
     </g>
    </g>
    <g id="ytick_7">
     <g id="line2d_25">
      <path d="M 54 55.382604 
L 388.8 55.382604 
" clip-path="url(#p3931f3e5af)" style="fill: none; stroke: #b0b0b0; stroke-width: 0.8; stroke-linecap: square"/>
     </g>
     <g id="line2d_26">
      <g>
       <use xlink:href="#m67eaa1f088" x="54" y="55.382604" style="stroke: #000000; stroke-width: 0.8"/>
      </g>
     </g>
     <g id="text_15">
      <!-- 4 -->
      <g transform="translate(40.6375 59.181823)scale(0.1 -0.1)">
       <defs>
        <path id="DejaVuSans-34" d="M 2419 4116 
L 825 1625 
L 2419 1625 
L 2419 4116 
z
M 2253 4666 
L 3047 4666 
L 3047 1625 
L 3713 1625 
L 3713 1100 
L 3047 1100 
L 3047 0 
L 2419 0 
L 2419 1100 
L 313 1100 
L 313 1709 
L 2253 4666 
z
" transform="scale(0.015625)"/>
       </defs>
       <use xlink:href="#DejaVuSans-34"/>
      </g>
     </g>
    </g>
    <g id="text_16">
     <!-- Y Coordinate -->
     <g transform="translate(26.178125 175.333906)rotate(-90)scale(0.1 -0.1)">
      <defs>
       <path id="DejaVuSans-59" d="M -13 4666 
L 666 4666 
L 1959 2747 
L 3244 4666 
L 3922 4666 
L 2272 2222 
L 2272 0 
L 1638 0 
L 1638 2222 
L -13 4666 
z
" transform="scale(0.015625)"/>
      </defs>
      <use xlink:href="#DejaVuSans-59"/>
      <use xlink:href="#DejaVuSans-20" x="61.083984"/>
      <use xlink:href="#DejaVuSans-43" x="92.871094"/>
      <use xlink:href="#DejaVuSans-6f" x="162.695312"/>
      <use xlink:href="#DejaVuSans-6f" x="223.876953"/>
      <use xlink:href="#DejaVuSans-72" x="285.058594"/>
      <use xlink:href="#DejaVuSans-64" x="324.421875"/>
      <use xlink:href="#DejaVuSans-69" x="387.898438"/>
      <use xlink:href="#DejaVuSans-6e" x="415.681641"/>
      <use xlink:href="#DejaVuSans-61" x="479.060547"/>
      <use xlink:href="#DejaVuSans-74" x="540.339844"/>
      <use xlink:href="#DejaVuSans-65" x="579.548828"/>
     </g>
    </g>
    <g id="text_17">
     <!-- 1e10 -->
     <g transform="translate(54 31.56)scale(0.1 -0.1)">
      <use xlink:href="#DejaVuSans-31"/>
      <use xlink:href="#DejaVuSans-65" x="63.623047"/>
      <use xlink:href="#DejaVuSans-31" x="125.146484"/>
      <use xlink:href="#DejaVuSans-30" x="188.769531"/>
     </g>
    </g>
   </g>
   <g id="line2d_27">
    <path d="M 198.027874 185.061478 
L 198.393208 185.071016 
L 198.840481 185.089813 
L 199.385374 185.123869 
L 199.976879 185.196087 
L 199.022008 185.240197 
L 198.24387 185.212642 
L 197.736992 185.184108 
L 197.380102 185.157701 
L 197.126921 185.133779 
L 196.954051 185.112358 
L 196.847879 185.093412 
L 196.799868 185.076936 
L 196.804496 185.062962 
L 196.858238 185.051566 
L 196.959037 185.042879 
L 197.106047 185.0371 
L 197.299547 185.034519 
L 197.541014 185.035562 
L 197.833366 185.040863 
L 198.181474 185.05142 
L 198.59311 185.068944 
L 199.080365 185.096832 
L 199.655538 185.144127 
L 199.786866 185.240183 
L 198.666383 185.233059 
L 197.987187 185.205975 
L 197.503293 185.179338 
L 197.138117 185.154493 
L 196.857994 185.131605 
L 196.644571 185.110649 
L 196.486577 185.091572 
L 196.376576 185.07433 
L 196.309436 185.058898 
L 196.281538 185.045269 
L 196.290326 185.033462 
L 196.33404 185.023513 
L 196.411557 185.01549 
L 196.522307 185.009485 
L 196.666235 185.005629 
L 196.843804 185.004102 
L 197.056053 185.005143 
L 197.304706 185.009087 
L 197.59237 185.016404 
L 197.922878 185.027792 
L 198.30187 185.044351 
L 198.737772 185.068011 
L 199.242823 185.10279 
L 199.818794 185.160647 
L 199.474207 185.247234 
L 198.476911 185.230168 
L 197.823387 185.204512 
L 197.331062 185.179387 
L 196.940348 185.155689 
L 196.623264 185.133533 
L 196.363962 185.112886 
L 196.152425 185.093689 
L 195.981853 185.075886 
L 195.847406 185.05943 
L 195.745521 185.044286 
L 195.673513 185.030429 
L 195.629339 185.017847 
L 195.611435 185.006537 
L 195.618618 184.996506 
L 195.650012 184.987771 
L 195.705006 184.980361 
L 195.783223 184.974316 
L 195.884507 184.96969 
L 196.008913 184.966552 
L 196.156721 184.964993 
L 196.328448 184.965125 
L 196.524886 184.967093 
L 196.747154 184.971084 
" clip-path="url(#p3931f3e5af)" style="fill: none; stroke: #1f77b4; stroke-width: 1.5; stroke-linecap: square"/>
   </g>
   <g id="line2d_28">
    <path d="M 197.523137 185.005435 
L 197.837299 185.013786 
L 198.188446 185.026174 
L 198.579011 185.043566 
L 199.011286 185.067522 
L 199.484365 185.100854 
L 199.974632 185.149513 
L 200.220728 185.224814 
L 199.34141 185.260258 
L 198.491547 185.243335 
L 197.869792 185.219023 
L 197.392533 185.194058 
L 197.016644 185.169904 
L 196.718191 185.147004 
L 196.48244 185.125509 
L 196.299616 185.10547 
L 196.162886 185.086907 
L 196.067296 185.069828 
L 196.009159 185.054242 
L 195.985694 185.040163 
L 195.994791 185.027615 
L 196.034863 185.016634 
L 196.104742 185.007267 
L 196.203618 184.999576 
L 196.330992 184.993643 
L 196.486658 184.989573 
L 196.670688 184.987497 
L 196.883447 184.987585 
L 197.125602 184.990055 
L 197.398166 184.995196 
L 197.702535 185.003393 
L 198.040533 185.015186 
L 198.414408 185.031355 
L 198.826576 185.053116 
L 199.278203 185.082528 
L 199.761413 185.123599 
L 200.196319 185.185429 
L 199.848184 185.256361 
L 198.869979 185.254538 
L 198.145828 185.232828 
L 197.596046 185.208416 
L 197.162229 185.184191 
L 196.813572 185.160933 
L 196.531929 185.138896 
L 196.305624 185.11817 
L 196.12666 185.098783 
L 195.989303 185.080742 
L 195.889309 185.064047 
L 195.823467 185.048702 
L 195.789309 185.034714 
L 195.78493 185.022098 
L 195.808864 185.010876 
L 195.859998 185.001081 
L 195.937517 184.992756 
L 196.040864 184.985959 
L 196.169722 184.980761 
L 196.323993 184.977251 
L 196.503804 184.975544 
L 196.709509 184.975783 
L 196.94171 184.978148 
L 197.201285 184.982874 
L 197.489423 184.990268 
L 197.807678 185.000745 
L 198.157993 185.01489 
L 198.542657 185.033562 
L 198.963872 185.058117 
L 199.421546 185.09093 
L 199.900616 185.1368 
L 200.252686 185.206279 
L 199.589919 185.261316 
L 198.671498 185.251036 
L 197.991935 185.228739 
L 197.464826 185.204753 
" clip-path="url(#p3931f3e5af)" style="fill: none; stroke: #ff7f0e; stroke-width: 1.5; stroke-linecap: square"/>
   </g>
   <g id="line2d_29">
    <path d="M 196.244286 184.870034 
L 196.486946 184.876408 
L 196.742196 184.884115 
L 197.010304 184.893266 
L 197.291549 184.903997 
L 197.586205 184.916471 
L 197.894513 184.930888 
L 198.216616 184.947499 
L 198.552456 184.966621 
L 198.901541 184.988669 
L 199.262486 185.014198 
L 199.631976 185.043972 
L 200.002243 185.079068 
L 200.35418 185.121008 
L 200.636093 185.171594 
L 200.699711 185.229855 
L 200.287329 185.278095 
L 199.537369 185.294189 
L 198.795567 185.289103 
L 198.145588 185.275234 
L 197.581924 185.257705 
L 197.089606 185.23862 
L 196.656032 185.218947 
L 196.271658 185.199179 
L 195.929294 185.179586 
L 195.623443 185.160323 
L 195.349819 185.141484 
L 195.105016 185.123127 
L 194.886282 185.105285 
L 194.691362 185.087983 
L 194.51838 185.071234 
L 194.365761 185.055049 
L 194.23217 185.039432 
L 194.116464 185.024388 
L 194.01766 185.009919 
L 193.934906 184.996029 
L 193.86746 184.98272 
L 193.814674 184.969994 
L 193.775981 184.957854 
L 193.750882 184.946304 
L 193.738939 184.935348 
L 193.739768 184.924991 
L 193.753032 184.915239 
L 193.778434 184.906099 
L 193.81572 184.897579 
L 193.864666 184.889688 
L 193.925083 184.882436 
L 193.996811 184.875837 
L 194.079719 184.869902 
L 194.173701 184.864648 
L 194.278677 184.860092 
L 194.394592 184.856252 
L 194.521414 184.853151 
L 194.659136 184.850812 
L 194.807772 184.849262 
L 194.967362 184.848533 
L 195.137968 184.848658 
L 195.319678 184.849677 
L 195.512603 184.851632 
L 195.716879 184.854575 
L 195.932671 184.858563 
L 196.160166 184.863661 
L 196.399579 184.869945 
L 196.65115 184.877505 
L 196.915138 184.886446 
L 197.19182 184.896892 
L 197.481473 184.908992 
L 197.784351 184.92293 
L 198.10064 184.938932 
L 198.430374 184.957283 
L 198.773264 184.978353 
L 199.128356 185.002626 
L 199.493299 185.030766 
" clip-path="url(#p3931f3e5af)" style="fill: none; stroke: #2ca02c; stroke-width: 1.5; stroke-linecap: square"/>
   </g>
   <g id="line2d_30">
    <path d="M 203.877888 185.664409 
L 203.657346 185.658016 
L 203.430433 185.650912 
L 203.197131 185.643062 
L 202.957427 185.634431 
L 202.71132 185.624977 
L 202.458823 185.614657 
L 202.19997 185.603418 
L 201.934823 185.591206 
L 201.663488 185.577955 
L 201.386124 185.563596 
L 201.102969 185.548046 
L 200.814374 185.531214 
L 200.520842 185.512992 
L 200.223103 185.493259 
L 199.922208 185.471876 
L 199.619688 185.44868 
L 199.317792 185.423487 
L 199.019873 185.39609 
L 198.731026 185.366264 
L 198.45913 185.333791 
L 198.216606 185.29852 
L 198.023199 185.260518 
L 197.909662 185.220415 
L 197.919455 185.180047 
L 198.098152 185.143126 
L 198.46003 185.114495 
L 198.961939 185.09712 
L 199.53209 185.090355 
L 200.114416 185.091616 
L 200.679119 185.098359 
L 201.213846 185.108722 
L 201.714945 185.121458 
L 202.18259 185.135749 
L 202.618476 185.151052 
L 203.024793 185.167001 
L 203.403782 185.183342 
L 203.757555 185.199897 
L 204.088033 185.216535 
L 204.396933 185.233165 
L 204.685783 185.249715 
L 204.955935 185.266134 
L 205.208589 185.282381 
L 205.44481 185.298427 
L 205.665547 185.314246 
L 205.87165 185.329821 
L 206.063877 185.345138 
L 206.242913 185.360184 
L 206.409375 185.37495 
L 206.56382 185.38943 
L 206.706754 185.403616 
L 206.83864 185.417505 
L 206.959895 185.431092 
L 207.070906 185.444374 
L 207.172023 185.457347 
L 207.26357 185.47001 
L 207.345844 185.482361 
L 207.419119 185.494396 
L 207.483647 185.506114 
L 207.539662 185.517515 
L 207.58738 185.528594 
L 207.627 185.539352 
L 207.658708 185.549786 
L 207.682674 185.559894 
L 207.699058 185.569675 
L 207.708007 185.579126 
L 207.709658 185.588245 
L 207.704139 185.59703 
L 207.691565 185.605478 
L 207.672047 185.613588 
L 207.645685 185.621354 
L 207.612572 185.628776 
L 207.572794 185.63585 
" clip-path="url(#p3931f3e5af)" style="fill: none; stroke: #d62728; stroke-width: 1.5; stroke-linecap: square"/>
   </g>
   <g id="line2d_31">
    <path d="M 198.124239 185.142566 
L 198.193087 185.113459 
L 198.491988 185.10019 
L 199.147655 185.123995 
L 198.527131 185.458524 
L 196.736141 185.780412 
L 194.98584 186.094351 
L 193.249944 186.405581 
L 191.521553 186.71542 
L 189.797791 187.024406 
L 188.077175 187.332817 
L 186.358838 187.640811 
L 184.642229 187.948491 
L 182.926976 188.255924 
L 181.212817 188.563158 
L 179.499556 188.870229 
L 177.78705 189.177164 
L 176.075183 189.483983 
L 174.363868 189.790703 
L 172.653032 190.097335 
L 170.942616 190.403892 
L 169.232573 190.710382 
L 167.52286 191.016811 
L 165.813445 191.323188 
L 164.104298 191.629515 
L 162.395394 191.935799 
L 160.686711 192.242043 
L 158.978231 192.548251 
L 157.269936 192.854425 
L 155.561812 193.160569 
L 153.853846 193.466684 
L 152.146026 193.772772 
L 150.438343 194.078836 
L 148.730787 194.384878 
L 147.023349 194.690897 
L 145.316022 194.996897 
L 143.6088 195.302878 
L 141.901675 195.608842 
L 140.194643 195.914789 
L 138.487697 196.22072 
L 136.780834 196.526637 
L 135.074048 196.832539 
L 133.367337 197.138429 
L 131.660695 197.444305 
L 129.95412 197.75017 
L 128.247608 198.056023 
L 126.541156 198.361866 
L 124.834763 198.667698 
L 123.128424 198.97352 
L 121.422137 199.279333 
L 119.715901 199.585137 
L 118.009713 199.890932 
L 116.303571 200.196719 
L 114.597474 200.502498 
L 112.891419 200.808269 
L 111.185405 201.114033 
L 109.47943 201.41979 
L 107.773493 201.72554 
L 106.067593 202.031284 
L 104.361727 202.337021 
L 102.655896 202.642752 
L 100.950097 202.948477 
L 99.24433 203.254197 
L 97.538593 203.559911 
L 95.832886 203.86562 
L 94.127208 204.171324 
L 92.421557 204.477022 
L 90.715932 204.782716 
L 89.010334 205.088406 
L 87.304761 205.39409 
L 85.599212 205.699771 
L 83.893687 206.005447 
L 82.188185 206.311119 
" clip-path="url(#p3931f3e5af)" style="fill: none; stroke: #9467bd; stroke-width: 1.5; stroke-linecap: square"/>
   </g>
   <g id="line2d_32">
    <path d="M 199.362856 185.17737 
L 199.371262 185.217995 
L 198.858816 185.17552 
L 199.148884 185.16686 
L 199.886288 185.22054 
L 198.869912 185.190348 
L 198.721066 185.161712 
L 199.050242 185.158792 
L 199.797048 185.199442 
L 198.982435 185.20267 
L 198.563332 185.166783 
L 198.58278 185.148427 
L 198.919128 185.149064 
L 199.574514 185.179194 
L 199.269894 185.218493 
L 198.559296 185.178159 
L 198.328453 185.150951 
L 198.370881 185.136262 
L 198.636048 185.134817 
L 199.125927 185.150826 
L 199.853737 185.202408 
L 198.957968 185.206945 
L 198.365354 185.170572 
L 198.108607 185.144462 
L 198.059552 185.127408 
L 198.175934 185.119165 
L 198.445419 185.120606 
L 198.87594 185.134402 
L 199.498849 185.168587 
L 199.544459 185.228308 
L 198.57879 185.190382 
L 198.097326 185.158637 
L 197.84011 185.134463 
L 197.735282 185.116809 
L 197.752867 185.105251 
L 197.879563 185.099846 
L 198.111808 185.101147 
L 198.454487 185.110443 
L 198.923504 185.130597 
L 199.550882 185.169673 
L 199.519848 185.228616 
L 198.540452 185.192199 
L 197.998263 185.160532 
L 197.655571 185.13497 
L 197.444022 185.114468 
L 197.333277 185.098432 
L 197.307414 185.086567 
L 197.357728 185.07879 
L 197.479981 185.075202 
L 197.673355 185.076105 
L 197.940362 185.082081 
L 198.287654 185.094176 
L 198.728329 185.1144 
L 199.286801 185.14744 
L 199.935125 185.211133 
L 198.893013 185.210683 
L 198.163295 185.176726 
L 197.677704 185.148207 
L 197.330702 185.12415 
L 197.08116 185.103793 
L 196.908004 185.086662 
L 196.798891 185.072467 
L 196.746086 185.061035 
L 196.744625 185.052278 
L 196.79142 185.046179 
L 196.88479 185.042786 
L 197.024256 185.042218 
L 197.210505 185.044678 
L 197.445515 185.050486 
L 197.732917 185.060136 
L 198.078717 185.074418 
L 198.492775 185.094697 
L 198.991859 185.123688 
" clip-path="url(#p3931f3e5af)" style="fill: none; stroke: #8c564b; stroke-width: 1.5; stroke-linecap: square"/>
   </g>
   <g id="line2d_33">
    <path d="M 200.189268 185.258232 
L 200.387766 185.202834 
L 201.690126 185.216188 
L 202.82289 185.229858 
L 203.895959 185.24326 
L 204.936894 185.256446 
L 205.95742 185.26947 
L 206.963726 185.28237 
L 207.95951 185.295171 
L 208.947169 185.307893 
L 209.928355 185.32055 
L 210.904253 185.333152 
L 211.875749 185.345707 
L 212.843517 185.358222 
L 213.808088 185.370702 
L 214.769884 185.383152 
L 215.72925 185.395574 
L 216.686467 185.407972 
L 217.641771 185.420348 
L 218.595361 185.432704 
L 219.547405 185.445043 
L 220.498049 185.457365 
L 221.447417 185.469672 
L 222.395619 185.481966 
L 223.342749 185.494247 
L 224.288893 185.506516 
L 225.234125 185.518775 
L 226.17851 185.531023 
L 227.122109 185.543262 
L 228.064974 185.555493 
L 229.007154 185.567715 
L 229.948691 185.579929 
L 230.889626 185.592136 
L 231.829994 185.604336 
L 232.769827 185.61653 
L 233.709157 185.628717 
L 234.648009 185.640899 
L 235.58641 185.653075 
L 236.524383 185.665246 
L 237.461949 185.677412 
L 238.399128 185.689573 
L 239.33594 185.70173 
L 240.2724 185.713882 
L 241.208525 185.72603 
L 242.14433 185.738174 
L 243.079829 185.750315 
L 244.015035 185.762452 
L 244.94996 185.774585 
L 245.884616 185.786715 
L 246.819013 185.798842 
L 247.753162 185.810966 
L 248.687072 185.823086 
L 249.620752 185.835204 
L 250.554211 185.847319 
L 251.487457 185.859432 
L 252.420497 185.871542 
L 253.353339 185.883649 
L 254.28599 185.895754 
L 255.218455 185.907857 
L 256.150741 185.919957 
L 257.082854 185.932056 
L 258.0148 185.944152 
L 258.946584 185.956246 
L 259.878211 185.968338 
L 260.809685 185.980429 
L 261.741012 185.992517 
L 262.672195 186.004604 
L 263.60324 186.016689 
L 264.534149 186.028772 
L 265.464928 186.040853 
L 266.395578 186.052933 
L 267.326105 186.065012 
L 268.256511 186.077089 
" clip-path="url(#p3931f3e5af)" style="fill: none; stroke: #e377c2; stroke-width: 1.5; stroke-linecap: square"/>
   </g>
   <g id="line2d_34">
    <path d="M 199.302604 185.21491 
L 198.870492 185.164611 
L 199.101652 185.15523 
L 199.908171 185.24479 
L 199.139433 185.203739 
L 198.786478 185.158523 
L 198.984428 185.147911 
L 199.945184 185.232131 
L 199.290626 185.218941 
L 198.79267 185.170247 
L 198.717074 185.141708 
L 199.188952 185.155947 
L 199.877872 185.248318 
L 199.132026 185.20924 
L 198.697135 185.164266 
L 198.616717 185.136874 
L 198.974452 185.142072 
L 199.958357 185.232373 
L 199.354951 185.227936 
L 198.792691 185.181816 
L 198.52671 185.145492 
L 198.570884 185.12762 
L 199.026101 185.142726 
L 199.985233 185.240246 
L 199.334885 185.228809 
L 198.773417 185.184607 
L 198.466228 185.147804 
L 198.412048 185.124731 
L 198.656993 185.122988 
L 199.363214 185.164681 
L 199.831207 185.252046 
L 199.126914 185.217287 
L 198.634472 185.175774 
L 198.35741 185.141727 
L 198.293458 185.119282 
L 198.473341 185.113631 
L 198.995513 185.13727 
L 199.986573 185.235449 
L 199.429421 185.238332 
L 198.833531 185.198107 
L 198.433787 185.160554 
L 198.214165 185.130569 
L 198.176088 185.110908 
L 198.345187 185.105542 
L 198.79387 185.123342 
L 199.72202 185.196487 
L 199.663439 185.250458 
L 199.012674 185.214886 
L 198.537745 185.176846 
L 198.223762 185.14378 
L 198.060821 185.11794 
L 198.053472 185.101335 
L 198.22413 185.097131 
L 198.629068 185.112009 
L 199.420673 185.166803 
L 199.871373 185.256211 
L 199.19865 185.229527 
L 198.666792 185.192459 
L 198.282876 185.158114 
L 198.031376 185.128973 
L 197.907398 185.106385 
L 197.916301 185.091873 
L 198.076248 185.087867 
L 198.428569 185.099147 
L 199.07461 185.138263 
L 200.023399 185.243514 
L 199.461023 185.245449 
L 198.869018 185.211094 
L 198.416475 185.176328 
L 198.085654 185.145035 
L 197.865674 185.118492 
L 197.753472 185.09761 
L 197.753056 185.083487 
" clip-path="url(#p3931f3e5af)" style="fill: none; stroke: #7f7f7f; stroke-width: 1.5; stroke-linecap: square"/>
   </g>
   <g id="line2d_35">
    <path d="M 200.419412 185.259304 
L 199.811997 185.083876 
L 202.266711 183.096945 
L 204.715726 181.114834 
L 207.164006 179.133322 
L 209.611977 177.152063 
L 212.059775 175.170943 
L 214.507464 173.189912 
L 216.955076 171.208943 
L 219.402632 169.22802 
L 221.850146 167.247131 
L 224.297626 165.26627 
L 226.745078 163.285431 
L 229.192508 161.30461 
L 231.639918 159.323805 
L 234.087313 157.343013 
L 236.534693 155.362232 
L 238.982061 153.381461 
L 241.429419 151.400699 
L 243.876767 149.419945 
L 246.324106 147.439197 
L 248.771438 145.458456 
L 251.218764 143.47772 
L 253.666083 141.496989 
L 256.113396 139.516263 
L 258.560704 137.535541 
L 261.008008 135.554823 
L 263.455307 133.574108 
L 265.902603 131.593397 
L 268.349894 129.612689 
L 270.797182 127.631984 
L 273.244467 125.651281 
L 275.691749 123.670581 
L 278.139029 121.689883 
L 280.586305 119.709187 
L 283.033579 117.728494 
L 285.480851 115.747802 
L 287.928121 113.767112 
L 290.375389 111.786424 
L 292.822655 109.805737 
L 295.269919 107.825052 
L 297.717182 105.844368 
L 300.164443 103.863686 
L 302.611702 101.883005 
L 305.05896 99.902325 
L 307.506216 97.921647 
L 309.953472 95.940969 
L 312.400726 93.960293 
L 314.847979 91.979618 
L 317.295231 89.998944 
L 319.742481 88.01827 
L 322.189731 86.037598 
L 324.63698 84.056926 
L 327.084228 82.076256 
L 329.531475 80.095586 
L 331.978722 78.114917 
L 334.425967 76.134248 
L 336.873212 74.153581 
L 339.320456 72.172914 
L 341.7677 70.192247 
L 344.214943 68.211582 
L 346.662185 66.230917 
L 349.109427 64.250252 
L 351.556668 62.269588 
L 354.003908 60.288925 
L 356.451149 58.308262 
L 358.898388 56.3276 
L 361.345628 54.346938 
L 363.792866 52.366277 
L 366.240105 50.385616 
L 368.687343 48.404956 
L 371.134581 46.424296 
L 373.581818 44.443636 
" clip-path="url(#p3931f3e5af)" style="fill: none; stroke: #bcbd22; stroke-width: 1.5; stroke-linecap: square"/>
   </g>
   <g id="line2d_36">
    <path d="M 200.312563 185.265324 
L 200.233358 185.182416 
L 202.166118 185.12237 
L 203.98504 185.066943 
L 205.774866 185.012523 
L 207.550784 184.958566 
L 209.318483 184.904876 
L 211.080736 184.851362 
L 212.839111 184.79797 
L 214.594579 184.744671 
L 216.347788 184.691443 
L 218.099188 184.638272 
L 219.849109 184.585146 
L 221.597796 184.53206 
L 223.345438 184.479006 
L 225.092184 184.425979 
L 226.838154 184.372977 
L 228.583443 184.319996 
L 230.328132 184.267034 
L 232.072286 184.214088 
L 233.815963 184.161156 
L 235.559209 184.108238 
L 237.302065 184.055333 
L 239.044567 184.002437 
L 240.786746 183.949552 
L 242.528627 183.896676 
L 244.270235 183.843809 
L 246.011591 183.790949 
L 247.752713 183.738096 
L 249.493617 183.68525 
L 251.23432 183.632411 
L 252.974834 183.579577 
L 254.715171 183.526748 
L 256.455343 183.473925 
L 258.195359 183.421106 
L 259.935228 183.368292 
L 261.674959 183.315482 
L 263.41456 183.262676 
L 265.154037 183.209873 
L 266.893397 183.157075 
L 268.632646 183.104279 
L 270.371789 183.051487 
L 272.110832 182.998698 
L 273.84978 182.945912 
L 275.588636 182.893129 
L 277.327405 182.840348 
L 279.066091 182.78757 
L 280.804697 182.734795 
L 282.543227 182.682021 
L 284.281683 182.62925 
L 286.02007 182.576481 
L 287.75839 182.523714 
L 289.496644 182.470949 
L 291.234837 182.418186 
L 292.972969 182.365425 
L 294.711044 182.312665 
L 296.449064 182.259908 
L 298.18703 182.207151 
L 299.924944 182.154397 
L 301.662808 182.101644 
L 303.400624 182.048892 
L 305.138393 181.996142 
L 306.876117 181.943393 
L 308.613798 181.890645 
L 310.351436 181.837899 
L 312.089033 181.785154 
L 313.826591 181.73241 
L 315.56411 181.679667 
L 317.301591 181.626926 
L 319.039037 181.574185 
L 320.776447 181.521446 
L 322.513823 181.468708 
L 324.251166 181.41597 
" clip-path="url(#p3931f3e5af)" style="fill: none; stroke: #17becf; stroke-width: 1.5; stroke-linecap: square"/>
   </g>
   <g id="line2d_37">
    <path d="M 199.034988 185.162187 
L 199.192057 185.244962 
L 197.223095 185.310643 
L 195.372541 185.371201 
L 193.550792 185.430698 
L 191.742657 185.489714 
L 189.942523 185.548451 
L 188.14767 185.607006 
L 186.35657 185.665434 
L 184.568278 185.723767 
L 182.782165 185.782026 
L 180.997795 185.840227 
L 179.214849 185.89838 
L 177.433089 185.956493 
L 175.652334 186.014573 
L 173.87244 186.072624 
L 172.093293 186.13065 
L 170.314798 186.188655 
L 168.536879 186.24664 
L 166.759473 186.304609 
L 164.982525 186.362562 
L 163.20599 186.420501 
L 161.429829 186.478429 
L 159.654007 186.536345 
L 157.878495 186.594251 
L 156.103268 186.652147 
L 154.328303 186.710035 
L 152.553579 186.767915 
L 150.77908 186.825787 
L 149.004788 186.883653 
L 147.230689 186.941512 
L 145.456772 186.999365 
L 143.683023 187.057213 
L 141.909433 187.115056 
L 140.135992 187.172893 
L 138.362691 187.230726 
L 136.589522 187.288555 
L 134.816478 187.34638 
L 133.043553 187.4042 
L 131.270739 187.462017 
L 129.498032 187.519831 
L 127.725425 187.577641 
L 125.952915 187.635448 
L 124.180496 187.693252 
L 122.408164 187.751054 
L 120.635916 187.808852 
L 118.863747 187.866648 
L 117.091654 187.924441 
L 115.319634 187.982232 
L 113.547684 188.040021 
L 111.775802 188.097808 
L 110.003983 188.155592 
L 108.232226 188.213375 
L 106.460529 188.271155 
L 104.688889 188.328934 
L 102.917304 188.386711 
L 101.145772 188.444486 
L 99.374291 188.502259 
L 97.60286 188.560031 
L 95.831476 188.617801 
L 94.060139 188.67557 
L 92.288846 188.733337 
L 90.517596 188.791103 
L 88.746388 188.848868 
L 86.97522 188.906631 
L 85.204092 188.964393 
L 83.433001 189.022154 
L 81.661948 189.079913 
L 79.890929 189.137672 
L 78.119946 189.195429 
L 76.348996 189.253185 
L 74.578079 189.31094 
L 72.807194 189.368695 
" clip-path="url(#p3931f3e5af)" style="fill: none; stroke: #1f77b4; stroke-width: 1.5; stroke-linecap: square"/>
   </g>
   <g id="line2d_38">
    <path d="M 200.106746 185.213694 
L 200.56196 185.262948 
L 200.518717 185.284878 
L 199.760161 185.240577 
L 199.754978 185.188557 
L 200.415421 185.239034 
L 200.681186 185.278618 
L 200.489506 185.288314 
L 199.609563 185.226237 
L 199.815853 185.190288 
L 200.452047 185.239079 
L 200.744888 185.278667 
L 200.660304 185.295262 
L 200.047805 185.265776 
L 199.484467 185.176969 
L 200.213789 185.215062 
L 200.681096 185.260117 
L 200.844475 185.291628 
L 200.662706 185.299881 
L 199.974929 185.261218 
L 199.50689 185.175944 
L 200.222496 185.213308 
L 200.702082 185.257243 
L 200.918833 185.290513 
L 200.853563 185.306308 
L 200.42046 185.29243 
L 199.44121 185.206851 
L 199.832321 185.186509 
L 200.458829 185.229598 
L 200.85273 185.269593 
L 201.017871 185.298942 
L 200.934955 185.312476 
L 200.531839 185.300359 
L 199.617523 185.22954 
L 199.678518 185.178168 
L 200.341023 185.217262 
L 200.7997 185.25794 
L 201.057734 185.29105 
L 201.113134 185.312861 
L 200.936786 185.318563 
L 200.445339 185.297393 
L 199.469856 185.212248 
L 199.747502 185.179571 
L 200.386526 185.218038 
L 200.840723 185.257325 
L 201.118244 185.290277 
L 201.221685 185.314045 
L 201.135296 185.325448 
L 200.813268 185.318581 
L 200.137003 185.277597 
L 199.338802 185.175837 
L 199.976034 185.189218 
L 200.553611 185.228024 
L 200.965204 185.26498 
L 201.222866 185.295987 
L 201.329113 185.318983 
L 201.27279 185.331604 
L 201.022454 185.329781 
L 200.503081 185.304228 
L 199.552085 185.223766 
L 199.636232 185.172811 
L 200.281657 185.205685 
L 200.780104 185.243203 
L 201.13516 185.27723 
L 201.357024 185.305552 
L 201.446644 185.326672 
L 201.394592 185.338739 
L 201.176572 185.338655 
L 200.738713 185.319982 
L 199.950643 185.264094 
L 199.385522 185.169441 
L 200.031494 185.188656 
L 200.590407 185.224662 
" clip-path="url(#p3931f3e5af)" style="fill: none; stroke: #ff7f0e; stroke-width: 1.5; stroke-linecap: square"/>
   </g>
   <g id="line2d_39">
    <path d="M 199.302954 185.220571 
L 198.794327 185.170486 
L 198.721741 185.141299 
L 199.191644 185.154558 
L 200.075533 185.241284 
L 199.507992 185.235995 
L 198.891395 185.185309 
L 198.647832 185.146938 
L 198.848321 185.137721 
L 199.620309 185.184858 
L 199.956506 185.256161 
L 199.223226 185.217322 
L 198.733834 185.169581 
L 198.604669 185.138324 
L 198.903662 185.137688 
L 199.745979 185.195792 
L 199.902841 185.256176 
L 199.180788 185.2155 
L 198.70179 185.168908 
L 198.551994 185.137115 
L 198.785503 185.131756 
L 199.516217 185.174877 
L 200.05841 185.257363 
L 199.363894 185.230225 
L 198.798423 185.182884 
L 198.523649 185.145077 
L 198.574455 185.126709 
L 199.02649 185.140772 
L 199.937401 185.215377 
L 199.818844 185.25551 
L 199.123655 185.214078 
L 198.651664 185.16932 
L 198.455755 185.136237 
L 198.568812 185.122882 
L 199.068247 185.142031 
L 199.983295 185.220622 
L 199.807733 185.256037 
L 199.121427 185.215444 
L 198.642273 185.171296 
L 198.416261 185.137245 
L 198.467989 185.120102 
L 198.85617 185.129476 
L 199.678138 185.18714 
L 200.0394 185.261191 
L 199.358837 185.233599 
L 198.790821 185.189076 
L 198.449301 185.150255 
L 198.35029 185.123913 
L 198.52541 185.116277 
L 199.046671 185.138671 
L 199.952606 185.215549 
L 199.886846 185.260361 
L 199.205857 185.224559 
L 198.685916 185.181233 
L 198.379343 185.14454 
L 198.298455 185.11985 
L 198.472181 185.112629 
L 198.965283 185.132793 
L 199.845502 185.202755 
L 199.985543 185.263118 
L 199.311716 185.233018 
L 198.757676 185.190296 
L 198.399366 185.152082 
L 198.245844 185.123678 
L 198.315266 185.109359 
L 198.65047 185.115663 
L 199.334517 185.156678 
L 200.148008 185.246876 
L 199.703679 185.25558 
L 199.060393 185.216915 
L 198.580884 185.17576 
L 198.286832 185.14081 
L 198.18537 185.115936 
" clip-path="url(#p3931f3e5af)" style="fill: none; stroke: #2ca02c; stroke-width: 1.5; stroke-linecap: square"/>
   </g>
   <g id="line2d_40">
    <path d="M 199.030156 185.200435 
L 198.718178 185.157826 
L 198.829514 185.139986 
L 199.750576 185.209567 
L 199.131576 185.220789 
L 198.627813 185.180854 
L 198.347026 185.147275 
L 198.255395 185.123076 
L 198.364523 185.111762 
L 198.746943 185.12216 
L 199.794539 185.216345 
L 199.157152 185.232257 
L 198.59814 185.200403 
L 198.186195 185.169821 
L 197.879301 185.142239 
L 197.659108 185.118078 
L 197.517078 185.097615 
L 197.450288 185.081197 
L 197.460209 185.06935 
L 197.553036 185.062915 
L 197.741856 185.063322 
L 198.052949 185.073298 
L 198.547443 185.099386 
L 199.464595 185.172297 
L 199.345696 185.247118 
L 198.730207 185.22501 
L 198.235854 185.200596 
L 197.81789 185.17677 
L 197.455991 185.154031 
L 197.138846 185.132485 
L 196.859372 185.112141 
L 196.612795 185.092982 
L 196.395742 185.074985 
L 196.205756 185.058133 
L 196.04102 185.042413 
L 195.900186 185.02782 
L 195.78227 185.014355 
L 195.686576 185.002028 
L 195.612657 184.990856 
L 195.560287 184.980867 
L 195.529442 184.972096 
L 195.5203 184.964591 
L 195.533249 184.958409 
L 195.568903 184.953628 
L 195.628134 184.95034 
L 195.712125 184.948664 
L 195.822441 184.948748 
L 195.961147 184.950786 
L 196.130982 184.955029 
L 196.335641 184.961814 
L 196.580255 184.971616 
L 196.872242 184.985128 
L 197.223033 185.003445 
L 197.651999 185.02849 
L 198.19778 185.064318 
L 198.968884 185.123633 
L 199.697026 185.253799 
L 199.02069 185.247906 
L 198.467096 185.231565 
L 197.982904 185.213992 
L 197.544713 185.196373 
L 197.140405 185.179018 
L 196.762684 185.162023 
L 196.406721 185.145412 
L 196.069107 185.129184 
L 195.747314 185.113327 
L 195.439406 185.097825 
L 195.143851 185.082661 
L 194.859414 185.067819 
L 194.585078 185.053283 
L 194.319992 185.039038 
L 194.063436 185.025072 
L 193.814792 185.011372 
" clip-path="url(#p3931f3e5af)" style="fill: none; stroke: #d62728; stroke-width: 1.5; stroke-linecap: square"/>
   </g>
   <g id="line2d_41">
    <path d="M 198.75142 185.176168 
L 198.651869 185.144912 
L 198.980058 185.143197 
L 199.229323 185.318522 
L 198.069062 185.508514 
L 196.940409 185.692495 
L 195.821412 185.874782 
L 194.707212 186.056246 
L 193.595897 186.237222 
L 192.486512 186.417873 
L 191.37851 186.598292 
L 190.27155 186.778538 
L 189.165401 186.958649 
L 188.059904 187.138652 
L 186.95494 187.318566 
L 185.850422 187.498407 
L 184.746281 187.678186 
L 183.642465 187.857911 
L 182.53893 188.03759 
L 181.435642 188.217228 
L 180.332572 188.39683 
L 179.229695 188.5764 
L 178.126992 188.755942 
L 177.024445 188.935458 
L 175.92204 189.114951 
L 174.819763 189.294423 
L 173.717605 189.473875 
L 172.615554 189.65331 
L 171.513602 189.832728 
L 170.411742 190.012132 
L 169.309967 190.191521 
L 168.208271 190.370898 
L 167.106649 190.550262 
L 166.005095 190.729615 
L 164.903605 190.908958 
L 163.802176 191.088291 
L 162.700803 191.267614 
L 161.599484 191.446929 
L 160.498215 191.626236 
L 159.396993 191.805535 
L 158.295817 191.984826 
L 157.194683 192.164111 
L 156.093589 192.343389 
L 154.992534 192.522661 
L 153.891515 192.701926 
L 152.790531 192.881186 
L 151.68958 193.060441 
L 150.588661 193.23969 
L 149.487773 193.418935 
L 148.386913 193.598174 
L 147.286081 193.77741 
L 146.185276 193.95664 
L 145.084496 194.135867 
L 143.98374 194.31509 
L 142.883009 194.494309 
L 141.782299 194.673524 
L 140.681612 194.852735 
L 139.580946 195.031943 
L 138.480299 195.211148 
L 137.379673 195.39035 
L 136.279065 195.569549 
L 135.178475 195.748744 
L 134.077903 195.927937 
L 132.977347 196.107127 
L 131.876809 196.286314 
L 130.776286 196.465499 
L 129.675778 196.644681 
L 128.575285 196.823861 
L 127.474807 197.003039 
L 126.374343 197.182214 
L 125.273892 197.361387 
L 124.173455 197.540558 
L 123.07303 197.719726 
" clip-path="url(#p3931f3e5af)" style="fill: none; stroke: #9467bd; stroke-width: 1.5; stroke-linecap: square"/>
   </g>
   <g id="line2d_42">
    <path d="M 241.935911 201.463131 
L 241.864545 201.468905 
L 241.793146 201.474665 
L 241.721714 201.480413 
L 241.650249 201.486148 
L 241.578752 201.49187 
L 241.507221 201.49758 
L 241.435658 201.503277 
L 241.364062 201.508961 
L 241.292433 201.514632 
L 241.220771 201.520291 
L 241.149077 201.525937 
L 241.077351 201.53157 
L 241.005591 201.53719 
L 240.9338 201.542797 
L 240.861975 201.548391 
L 240.790119 201.553973 
L 240.718229 201.559541 
L 240.646308 201.565097 
L 240.574354 201.57064 
L 240.502368 201.57617 
L 240.430349 201.581687 
L 240.358298 201.587191 
L 240.286215 201.592682 
L 240.2141 201.59816 
L 240.141953 201.603625 
L 240.069774 201.609077 
L 239.997562 201.614516 
L 239.925319 201.619942 
L 239.853043 201.625355 
L 239.780736 201.630755 
L 239.708397 201.636142 
L 239.636026 201.641516 
L 239.563623 201.646876 
L 239.491188 201.652224 
L 239.418721 201.657558 
L 239.346223 201.66288 
L 239.273693 201.668188 
L 239.201131 201.673483 
L 239.128538 201.678765 
L 239.055913 201.684034 
L 238.983257 201.689289 
L 238.910569 201.694532 
L 238.83785 201.699761 
L 238.765099 201.704977 
L 238.692317 201.71018 
L 238.619503 201.715369 
L 238.546658 201.720545 
L 238.473782 201.725708 
L 238.400875 201.730858 
L 238.327936 201.735994 
L 238.254967 201.741117 
L 238.181966 201.746227 
L 238.108934 201.751323 
L 238.035871 201.756406 
L 237.962777 201.761475 
L 237.889652 201.766532 
L 237.816496 201.771574 
L 237.743309 201.776604 
L 237.670092 201.78162 
L 237.596843 201.786622 
L 237.523564 201.791611 
L 237.450254 201.796587 
L 237.376914 201.801549 
L 237.303542 201.806498 
L 237.23014 201.811433 
L 237.156708 201.816355 
L 237.083245 201.821263 
L 237.009751 201.826158 
L 236.936227 201.831039 
L 236.862673 201.835906 
L 236.789088 201.84076 
L 236.715473 201.8456 
" clip-path="url(#p3931f3e5af)" style="fill: none; stroke: #8c564b; stroke-width: 1.5; stroke-linecap: square"/>
   </g>
   <g id="line2d_43">
    <path d="M 294.742497 198.963556 
L 294.688341 198.975816 
L 294.634154 198.988071 
L 294.579935 199.000323 
L 294.525686 199.012569 
L 294.471406 199.024811 
L 294.417095 199.037049 
L 294.362753 199.049282 
L 294.30838 199.061511 
L 294.253977 199.073735 
L 294.199542 199.085954 
L 294.145076 199.098169 
L 294.09058 199.11038 
L 294.036053 199.122585 
L 293.981494 199.134787 
L 293.926905 199.146983 
L 293.872285 199.159176 
L 293.817634 199.171363 
L 293.762952 199.183546 
L 293.708239 199.195725 
L 293.653495 199.207898 
L 293.598721 199.220067 
L 293.543915 199.232232 
L 293.489079 199.244392 
L 293.434211 199.256547 
L 293.379313 199.268698 
L 293.324384 199.280844 
L 293.269424 199.292985 
L 293.214433 199.305122 
L 293.159411 199.317254 
L 293.104358 199.329381 
L 293.049274 199.341504 
L 292.994159 199.353622 
L 292.939014 199.365735 
L 292.883837 199.377844 
L 292.82863 199.389948 
L 292.773392 199.402047 
L 292.718123 199.414141 
L 292.662822 199.426231 
L 292.607491 199.438316 
L 292.55213 199.450396 
L 292.496737 199.462472 
L 292.441313 199.474543 
L 292.385858 199.486609 
L 292.330373 199.49867 
L 292.274856 199.510727 
L 292.219309 199.522778 
L 292.163731 199.534825 
L 292.108122 199.546867 
L 292.052481 199.558905 
L 291.996811 199.570937 
L 291.941109 199.582965 
L 291.885376 199.594988 
L 291.829612 199.607006 
L 291.773818 199.619019 
L 291.717992 199.631027 
L 291.662136 199.643031 
L 291.606249 199.65503 
L 291.550331 199.667023 
L 291.494381 199.679012 
L 291.438402 199.690996 
L 291.382391 199.702976 
L 291.326349 199.71495 
L 291.270276 199.726919 
L 291.214173 199.738884 
L 291.158038 199.750843 
L 291.101873 199.762798 
L 291.045677 199.774748 
L 290.98945 199.786693 
L 290.933192 199.798633 
L 290.876903 199.810567 
L 290.820583 199.822497 
L 290.764233 199.834422 
" clip-path="url(#p3931f3e5af)" style="fill: none; stroke: #e377c2; stroke-width: 1.5; stroke-linecap: square"/>
   </g>
   <g id="line2d_44">
    <path d="M 298.998624 242.116364 
L 298.961253 242.115753 
L 298.923879 242.11514 
L 298.886501 242.114525 
L 298.84912 242.113909 
L 298.811735 242.11329 
L 298.774347 242.112669 
L 298.736955 242.112046 
L 298.699559 242.111421 
L 298.66216 242.110795 
L 298.624757 242.110166 
L 298.587351 242.109535 
L 298.549941 242.108902 
L 298.512527 242.108267 
L 298.47511 242.10763 
L 298.437689 242.106991 
L 298.400265 242.10635 
L 298.362837 242.105707 
L 298.325406 242.105061 
L 298.287971 242.104414 
L 298.250532 242.103765 
L 298.21309 242.103114 
L 298.175645 242.102461 
L 298.138195 242.101806 
L 298.100742 242.101148 
L 298.063286 242.100489 
L 298.025826 242.099828 
L 297.988362 242.099164 
L 297.950895 242.098499 
L 297.913425 242.097831 
L 297.87595 242.097162 
L 297.838473 242.09649 
L 297.800991 242.095817 
L 297.763506 242.095141 
L 297.726018 242.094464 
L 297.688526 242.093784 
L 297.65103 242.093102 
L 297.613531 242.092419 
L 297.576028 242.091733 
L 297.538522 242.091045 
L 297.501012 242.090356 
L 297.463498 242.089664 
L 297.425981 242.08897 
L 297.388461 242.088274 
L 297.350937 242.087576 
L 297.313409 242.086876 
L 297.275878 242.086174 
L 297.238343 242.08547 
L 297.200804 242.084764 
L 297.163262 242.084056 
L 297.125717 242.083346 
L 297.088168 242.082633 
L 297.050615 242.081919 
L 297.013059 242.081203 
L 296.975499 242.080484 
L 296.937936 242.079764 
L 296.900369 242.079042 
L 296.862799 242.078317 
L 296.825225 242.077591 
L 296.787648 242.076862 
L 296.750067 242.076132 
L 296.712482 242.075399 
L 296.674894 242.074664 
L 296.637302 242.073928 
L 296.599707 242.073189 
L 296.562109 242.072448 
L 296.524506 242.071705 
L 296.4869 242.07096 
L 296.449291 242.070213 
L 296.411678 242.069464 
L 296.374062 242.068713 
L 296.336442 242.06796 
L 296.298818 242.067205 
" clip-path="url(#p3931f3e5af)" style="fill: none; stroke: #7f7f7f; stroke-width: 1.5; stroke-linecap: square"/>
   </g>
   <g id="line2d_45">
    <path d="M 74.988925 183.048498 
L 74.972031 183.031028 
L 74.95516 183.013559 
L 74.938312 182.99609 
L 74.921487 182.978621 
L 74.904684 182.961153 
L 74.887904 182.943685 
L 74.871146 182.926218 
L 74.854411 182.908751 
L 74.837699 182.891284 
L 74.821009 182.873818 
L 74.804342 182.856353 
L 74.787697 182.838887 
L 74.771075 182.821423 
L 74.754476 182.803958 
L 74.737899 182.786495 
L 74.721345 182.769031 
L 74.704814 182.751568 
L 74.688305 182.734106 
L 74.671818 182.716644 
L 74.655354 182.699182 
L 74.638913 182.681721 
L 74.622494 182.66426 
L 74.606098 182.6468 
L 74.589724 182.629341 
L 74.573373 182.611881 
L 74.557045 182.594423 
L 74.540738 182.576965 
L 74.524455 182.559507 
L 74.508194 182.54205 
L 74.491955 182.524593 
L 74.475739 182.507137 
L 74.459546 182.489681 
L 74.443374 182.472226 
L 74.427226 182.454771 
L 74.4111 182.437317 
L 74.394996 182.419863 
L 74.378915 182.40241 
L 74.362856 182.384957 
L 74.34682 182.367505 
L 74.330806 182.350053 
L 74.314815 182.332602 
L 74.298846 182.315151 
L 74.282899 182.297701 
L 74.266975 182.280252 
L 74.251073 182.262803 
L 74.235194 182.245354 
L 74.219337 182.227907 
L 74.203503 182.210459 
L 74.187691 182.193012 
L 74.171901 182.175566 
L 74.156134 182.15812 
L 74.140389 182.140675 
L 74.124666 182.123231 
L 74.108966 182.105787 
L 74.093288 182.088343 
L 74.077633 182.0709 
L 74.062 182.053458 
L 74.046389 182.036016 
L 74.030801 182.018575 
L 74.015235 182.001135 
L 73.999691 181.983695 
L 73.98417 181.966255 
L 73.968671 181.948816 
L 73.953194 181.931378 
L 73.937739 181.913941 
L 73.922307 181.896504 
L 73.906897 181.879067 
L 73.89151 181.861631 
L 73.876145 181.844196 
L 73.860802 181.826762 
L 73.845481 181.809328 
L 73.830182 181.791894 
" clip-path="url(#p3931f3e5af)" style="fill: none; stroke: #bcbd22; stroke-width: 1.5; stroke-linecap: square"/>
   </g>
   <g id="line2d_46">
    <path d="M 308.967142 182.173789 
L 308.975965 182.187369 
L 308.984744 182.20095 
L 308.993477 182.214532 
L 309.002164 182.228116 
L 309.010806 182.241701 
L 309.019403 182.255287 
L 309.027954 182.268874 
L 309.03646 182.282462 
L 309.044921 182.296052 
L 309.053336 182.309643 
L 309.061706 182.323235 
L 309.070031 182.336828 
L 309.07831 182.350423 
L 309.086544 182.364019 
L 309.094732 182.377615 
L 309.102875 182.391213 
L 309.110973 182.404813 
L 309.119025 182.418413 
L 309.127032 182.432014 
L 309.134993 182.445617 
L 309.14291 182.459221 
L 309.15078 182.472825 
L 309.158606 182.486431 
L 309.166386 182.500039 
L 309.174121 182.513647 
L 309.18181 182.527256 
L 309.189454 182.540866 
L 309.197053 182.554478 
L 309.204606 182.568091 
L 309.212114 182.581704 
L 309.219576 182.595319 
L 309.226993 182.608935 
L 309.234365 182.622552 
L 309.241692 182.63617 
L 309.248973 182.649789 
L 309.256208 182.663409 
L 309.263399 182.67703 
L 309.270544 182.690652 
L 309.277643 182.704275 
L 309.284698 182.7179 
L 309.291706 182.731525 
L 309.29867 182.745151 
L 309.305588 182.758778 
L 309.312461 182.772407 
L 309.319288 182.786036 
L 309.32607 182.799666 
L 309.332807 182.813298 
L 309.339499 182.82693 
L 309.346145 182.840563 
L 309.352745 182.854197 
L 309.3593 182.867832 
L 309.36581 182.881468 
L 309.372275 182.895105 
L 309.378694 182.908744 
L 309.385068 182.922382 
L 309.391396 182.936022 
L 309.39768 182.949663 
L 309.403917 182.963305 
L 309.41011 182.976948 
L 309.416257 182.990591 
L 309.422358 183.004236 
L 309.428415 183.017881 
L 309.434426 183.031527 
L 309.440391 183.045175 
L 309.446312 183.058823 
L 309.452187 183.072472 
L 309.458016 183.086121 
L 309.4638 183.099772 
L 309.469539 183.113424 
L 309.475233 183.127076 
L 309.480881 183.140729 
L 309.486483 183.154383 
" clip-path="url(#p3931f3e5af)" style="fill: none; stroke: #17becf; stroke-width: 1.5; stroke-linecap: square"/>
   </g>
   <g id="line2d_47">
    <path d="M 285.25436 187.585886 
L 285.253708 187.608212 
L 285.252983 187.630536 
L 285.252185 187.652857 
L 285.251314 187.675177 
L 285.25037 187.697494 
L 285.249353 187.719809 
L 285.248263 187.742122 
L 285.2471 187.764433 
L 285.245863 187.786742 
L 285.244554 187.809049 
L 285.243172 187.831353 
L 285.241717 187.853655 
L 285.240189 187.875955 
L 285.238589 187.898253 
L 285.236915 187.920548 
L 285.235169 187.942841 
L 285.233349 187.965131 
L 285.231458 187.98742 
L 285.229493 188.009706 
L 285.227455 188.031989 
L 285.225345 188.05427 
L 285.223162 188.076549 
L 285.220907 188.098825 
L 285.218579 188.121099 
L 285.216178 188.14337 
L 285.213704 188.165639 
L 285.211159 188.187905 
L 285.20854 188.210169 
L 285.205849 188.23243 
L 285.203085 188.254689 
L 285.200249 188.276945 
L 285.197341 188.299199 
L 285.19436 188.32145 
L 285.191307 188.343698 
L 285.188181 188.365943 
L 285.184983 188.388186 
L 285.181712 188.410426 
L 285.17837 188.432664 
L 285.174955 188.454899 
L 285.171467 188.477131 
L 285.167908 188.49936 
L 285.164276 188.521586 
L 285.160572 188.54381 
L 285.156796 188.566031 
L 285.152948 188.588249 
L 285.149027 188.610464 
L 285.145035 188.632676 
L 285.14097 188.654885 
L 285.136833 188.677092 
L 285.132625 188.699295 
L 285.128344 188.721496 
L 285.123991 188.743694 
L 285.119567 188.765888 
L 285.11507 188.78808 
L 285.110502 188.810268 
L 285.105861 188.832454 
L 285.101149 188.854636 
L 285.096365 188.876816 
L 285.091509 188.898992 
L 285.086582 188.921166 
L 285.081583 188.943336 
L 285.076511 188.965503 
L 285.071369 188.987667 
L 285.066154 189.009827 
L 285.060868 189.031985 
L 285.05551 189.054139 
L 285.050081 189.07629 
L 285.04458 189.098438 
L 285.039008 189.120582 
L 285.033364 189.142723 
L 285.027648 189.164861 
L 285.021861 189.186996 
" clip-path="url(#p3931f3e5af)" style="fill: none; stroke: #1f77b4; stroke-width: 1.5; stroke-linecap: square"/>
   </g>
   <g id="line2d_48">
    <path d="M 197.20366 170.986425 
L 197.288071 170.990647 
L 197.372491 170.994919 
L 197.456919 170.99924 
L 197.541354 171.00361 
L 197.625797 171.00803 
L 197.710248 171.0125 
L 197.794705 171.017019 
L 197.879169 171.021588 
L 197.963639 171.026207 
L 198.048115 171.030876 
L 198.132597 171.035594 
L 198.217084 171.040362 
L 198.301577 171.045181 
L 198.386074 171.050049 
L 198.470576 171.054967 
L 198.555083 171.059935 
L 198.639593 171.064953 
L 198.724107 171.070021 
L 198.808625 171.075139 
L 198.893145 171.080308 
L 198.977669 171.085527 
L 199.062195 171.090795 
L 199.146723 171.096115 
L 199.231253 171.101484 
L 199.315785 171.106904 
L 199.400318 171.112375 
L 199.484852 171.117895 
L 199.569387 171.123467 
L 199.653923 171.129088 
L 199.738458 171.134761 
L 199.822993 171.140484 
L 199.907528 171.146257 
L 199.992062 171.152082 
L 200.076595 171.157957 
L 200.161127 171.163883 
L 200.245656 171.169859 
L 200.330184 171.175887 
L 200.41471 171.181965 
L 200.499232 171.188094 
L 200.583752 171.194275 
L 200.668269 171.200506 
L 200.752782 171.206788 
L 200.837291 171.213122 
L 200.921796 171.219506 
L 201.006297 171.225942 
L 201.090792 171.232429 
L 201.175283 171.238967 
L 201.259768 171.245556 
L 201.344247 171.252197 
L 201.42872 171.258889 
L 201.513187 171.265633 
L 201.597647 171.272428 
L 201.6821 171.279274 
L 201.766546 171.286173 
L 201.850984 171.293122 
L 201.935414 171.300123 
L 202.019835 171.307176 
L 202.104248 171.314281 
L 202.188652 171.321437 
L 202.273047 171.328646 
L 202.357432 171.335905 
L 202.441807 171.343217 
L 202.526171 171.350581 
L 202.610525 171.357997 
L 202.694868 171.365464 
L 202.7792 171.372984 
L 202.86352 171.380556 
L 202.947829 171.38818 
L 203.032124 171.395856 
L 203.116408 171.403584 
L 203.200678 171.411364 
L 203.284935 171.419197 
" clip-path="url(#p3931f3e5af)" style="fill: none; stroke: #ff7f0e; stroke-width: 1.5; stroke-linecap: square"/>
   </g>
   <g id="line2d_49">
    <path d="M 242.602331 230.429645 
L 242.617044 230.424556 
L 242.631755 230.419465 
L 242.646465 230.414373 
L 242.661174 230.40928 
L 242.675881 230.404186 
L 242.690588 230.399091 
L 242.705293 230.393995 
L 242.719997 230.388897 
L 242.7347 230.383798 
L 242.749402 230.378698 
L 242.764103 230.373597 
L 242.778803 230.368495 
L 242.793501 230.363392 
L 242.808198 230.358287 
L 242.822895 230.353182 
L 242.83759 230.348075 
L 242.852283 230.342967 
L 242.866976 230.337858 
L 242.881667 230.332748 
L 242.896358 230.327636 
L 242.911047 230.322524 
L 242.925735 230.31741 
L 242.940422 230.312295 
L 242.955107 230.307179 
L 242.969792 230.302062 
L 242.984475 230.296944 
L 242.999157 230.291824 
L 243.013839 230.286704 
L 243.028518 230.281582 
L 243.043197 230.276459 
L 243.057875 230.271335 
L 243.072551 230.26621 
L 243.087226 230.261083 
L 243.1019 230.255956 
L 243.116573 230.250827 
L 243.131245 230.245697 
L 243.145915 230.240566 
L 243.160585 230.235434 
L 243.175253 230.230301 
L 243.18992 230.225167 
L 243.204586 230.220031 
L 243.21925 230.214894 
L 243.233914 230.209757 
L 243.248576 230.204618 
L 243.263237 230.199477 
L 243.277897 230.194336 
L 243.292556 230.189194 
L 243.307214 230.18405 
L 243.32187 230.178905 
L 243.336526 230.173759 
L 243.35118 230.168612 
L 243.365833 230.163464 
L 243.380484 230.158315 
L 243.395135 230.153164 
L 243.409784 230.148012 
L 243.424433 230.14286 
L 243.43908 230.137706 
L 243.453725 230.132551 
L 243.46837 230.127394 
L 243.483014 230.122237 
L 243.497656 230.117078 
L 243.512297 230.111919 
L 243.526937 230.106758 
L 243.541576 230.101596 
L 243.556214 230.096432 
L 243.57085 230.091268 
L 243.585485 230.086103 
L 243.600119 230.080936 
L 243.614752 230.075768 
L 243.629384 230.070599 
L 243.644014 230.065429 
L 243.658644 230.060258 
" clip-path="url(#p3931f3e5af)" style="fill: none; stroke: #2ca02c; stroke-width: 1.5; stroke-linecap: square"/>
   </g>
   <g id="line2d_50">
    <path d="M 69.218182 146.662009 
L 69.269667 146.655324 
L 69.321161 146.648642 
L 69.372664 146.641962 
L 69.424177 146.635286 
L 69.475698 146.628612 
L 69.527229 146.62194 
L 69.578769 146.615271 
L 69.630317 146.608605 
L 69.681875 146.601942 
L 69.733442 146.595282 
L 69.785018 146.588624 
L 69.836603 146.581969 
L 69.888198 146.575316 
L 69.939801 146.568666 
L 69.991413 146.562019 
L 70.043035 146.555375 
L 70.094665 146.548733 
L 70.146305 146.542094 
L 70.197953 146.535458 
L 70.249611 146.528824 
L 70.301278 146.522194 
L 70.352954 146.515565 
L 70.404639 146.50894 
L 70.456333 146.502317 
L 70.508036 146.495697 
L 70.559748 146.48908 
L 70.611469 146.482466 
L 70.663199 146.475854 
L 70.714939 146.469245 
L 70.766687 146.462638 
L 70.818445 146.456035 
L 70.870211 146.449434 
L 70.921987 146.442835 
L 70.973771 146.43624 
L 71.025565 146.429647 
L 71.077368 146.423057 
L 71.129179 146.41647 
L 71.181 146.409885 
L 71.23283 146.403303 
L 71.284669 146.396724 
L 71.336517 146.390148 
L 71.388374 146.383574 
L 71.44024 146.377003 
L 71.492115 146.370435 
L 71.543999 146.36387 
L 71.595892 146.357307 
L 71.647794 146.350747 
L 71.699705 146.34419 
L 71.751625 146.337635 
L 71.803554 146.331083 
L 71.855493 146.324534 
L 71.90744 146.317988 
L 71.959396 146.311445 
L 72.011361 146.304904 
L 72.063336 146.298366 
L 72.115319 146.29183 
L 72.167311 146.285298 
L 72.219313 146.278768 
L 72.271323 146.272241 
L 72.323342 146.265717 
L 72.375371 146.259195 
L 72.427408 146.252677 
L 72.479454 146.246161 
L 72.53151 146.239647 
L 72.583574 146.233137 
L 72.635648 146.226629 
L 72.68773 146.220124 
L 72.739821 146.213622 
L 72.791922 146.207122 
L 72.844031 146.200626 
L 72.89615 146.194132 
L 72.948277 146.187641 
" clip-path="url(#p3931f3e5af)" style="fill: none; stroke: #d62728; stroke-width: 1.5; stroke-linecap: square"/>
   </g>
   <g id="line2d_51">
    <path d="M 199.622745 185.245091 
L 198.969177 185.195805 
L 198.73651 185.157131 
L 199.050148 185.151368 
L 199.735702 185.182702 
L 200.383058 185.233529 
L 200.561652 185.271259 
L 200.146008 185.270484 
L 199.425691 185.233152 
L 198.853237 185.184039 
L 198.746461 185.151695 
L 199.158713 185.153997 
L 199.868714 185.190725 
L 200.460447 185.241496 
L 200.549251 185.274503 
L 200.075451 185.268457 
L 199.354011 185.228738 
L 198.814984 185.180308 
L 198.742733 185.14997 
L 199.171084 185.153841 
L 199.879127 185.190928 
L 200.467273 185.241416 
L 200.567092 185.274855 
L 200.113677 185.270437 
L 199.398611 185.232341 
L 198.835119 185.183839 
L 198.711036 185.150929 
L 199.083726 185.150355 
L 199.76993 185.183358 
L 200.40306 185.233388 
L 200.606401 185.271826 
L 200.251502 185.275484 
L 199.56191 185.243389 
L 198.932085 185.195146 
L 198.679909 185.156296 
L 198.920597 185.145864 
L 199.541336 185.169595 
L 200.233078 185.216705 
L 200.611919 185.262157 
L 200.449071 185.279638 
L 199.845803 185.259683 
L 199.149576 185.215028 
L 198.715755 185.169647 
L 198.741853 185.145369 
L 199.214522 185.153781 
L 199.916158 185.191969 
L 200.491032 185.241625 
L 200.615372 185.275896 
L 200.215941 185.275581 
L 199.525846 185.242123 
L 198.909297 185.194366 
L 198.653468 185.155688 
L 198.866355 185.143615 
L 199.45585 185.16417 
L 200.152692 185.208942 
L 200.602347 185.256209 
L 200.553656 185.28067 
L 200.035683 185.269424 
L 199.333542 185.229868 
L 198.792442 185.182591 
L 198.647928 185.149273 
L 198.957283 185.144415 
L 199.59145 185.170899 
L 200.265765 185.217808 
L 200.642226 185.262679 
L 200.515399 185.282103 
L 199.956905 185.266454 
L 199.260327 185.225129 
L 198.751466 185.178563 
L 198.641556 185.14716 
L 198.97203 185.144102 
L 199.609943 185.171465 
L 200.278192 185.21832 
" clip-path="url(#p3931f3e5af)" style="fill: none; stroke: #9467bd; stroke-width: 1.5; stroke-linecap: square"/>
   </g>
   <g id="line2d_52">
    <path d="M 199.721777 185.260412 
L 199.089775 185.218547 
L 198.664423 185.175413 
L 198.617144 185.146755 
L 198.972997 185.143566 
L 199.587994 185.165949 
L 200.238511 185.20444 
L 200.727133 185.246056 
L 200.931761 185.279104 
L 200.810293 185.295232 
L 200.393815 185.290131 
L 199.783296 185.264183 
L 199.145683 185.223417 
L 198.688573 185.17982 
L 198.588367 185.148653 
L 198.891333 185.141605 
L 199.477565 185.160366 
L 200.134704 185.196843 
L 200.662502 185.238642 
L 200.928593 185.27402 
L 200.877525 185.294206 
L 200.524508 185.294159 
L 199.951391 185.273116 
L 199.304601 185.235459 
L 198.779272 185.191351 
L 198.564388 185.155213 
L 198.749763 185.140193 
L 199.264748 185.151203 
L 199.92002 185.182945 
L 200.508876 185.224143 
L 200.87812 185.262847 
L 200.947999 185.289422 
L 200.708302 185.297598 
L 200.212945 185.284934 
L 199.578451 185.253517 
L 198.977361 185.210804 
L 198.605016 185.169374 
L 198.603481 185.143419 
L 198.978048 185.14208 
L 199.588868 185.164712 
L 200.231927 185.202511 
L 200.72775 185.243707 
L 200.962186 185.277612 
L 200.890419 185.296369 
L 200.530845 185.295529 
L 199.961884 185.274526 
L 199.320529 185.237465 
L 198.788922 185.193727 
L 198.547074 185.156743 
L 198.690094 185.139246 
L 199.167084 185.146875 
L 199.809061 185.175739 
L 200.418661 185.215746 
L 200.840693 185.255531 
L 200.986105 185.285506 
L 200.830232 185.299013 
L 200.407137 185.292742 
L 199.807769 185.267246 
L 199.177631 185.227739 
L 198.698425 185.184443 
L 198.534127 185.150756 
L 198.75025 185.138078 
L 199.269835 185.150059 
L 199.916896 185.181458 
L 200.5035 185.221969 
L 200.888843 185.260715 
L 200.996011 185.288787 
L 200.808609 185.300138 
L 200.365652 185.291951 
L 199.760282 185.265151 
L 199.137175 185.225174 
L 198.673427 185.182221 
L 198.525156 185.149345 
" clip-path="url(#p3931f3e5af)" style="fill: none; stroke: #8c564b; stroke-width: 1.5; stroke-linecap: square"/>
   </g>
   <g id="line2d_53">
    <path d="M 200.391015 185.274415 
L 199.620565 185.209962 
L 201.079976 185.211403 
L 202.051837 185.229566 
L 202.916129 185.247155 
L 203.725545 185.264205 
L 204.500527 185.280835 
L 205.251512 185.297136 
L 205.984652 185.313172 
L 206.703922 185.328991 
L 207.412057 185.344628 
L 208.111028 185.36011 
L 208.80231 185.37546 
L 209.487036 185.390694 
L 210.166098 185.405825 
L 210.840214 185.420867 
L 211.509967 185.435828 
L 212.175843 185.450716 
L 212.838245 185.465538 
L 213.497519 185.4803 
L 214.153958 185.495008 
L 214.807814 185.509666 
L 215.459307 185.524278 
L 216.108631 185.538847 
L 216.755954 185.553376 
L 217.401425 185.567869 
L 218.045179 185.582328 
L 218.687333 185.596754 
L 219.327996 185.61115 
L 219.967262 185.625518 
L 220.60522 185.63986 
L 221.241948 185.654176 
L 221.877517 185.668469 
L 222.511995 185.68274 
L 223.14544 185.696989 
L 223.777908 185.711219 
L 224.409451 185.725429 
L 225.040113 185.739621 
L 225.669941 185.753795 
L 226.298972 185.767954 
L 226.927245 185.782096 
L 227.554795 185.796223 
L 228.181653 185.810336 
L 228.80785 185.824435 
L 229.433414 185.838521 
L 230.058372 185.852594 
L 230.682748 185.866654 
L 231.306566 185.880703 
L 231.929847 185.894741 
L 232.552612 185.908768 
L 233.174881 185.922784 
L 233.796672 185.936791 
L 234.418002 185.950787 
L 235.038887 185.964774 
L 235.659344 185.978752 
L 236.279386 185.992721 
L 236.899028 186.006682 
L 237.518283 186.020634 
L 238.137164 186.034578 
L 238.755683 186.048515 
L 239.37385 186.062444 
L 239.991677 186.076366 
L 240.609175 186.090281 
L 241.226353 186.104189 
L 241.84322 186.11809 
L 242.459786 186.131985 
L 243.076059 186.145873 
L 243.692048 186.159756 
L 244.307761 186.173632 
L 244.923205 186.187503 
L 245.538387 186.201368 
L 246.153314 186.215227 
L 246.767993 186.229082 
" clip-path="url(#p3931f3e5af)" style="fill: none; stroke: #e377c2; stroke-width: 1.5; stroke-linecap: square"/>
   </g>
   <g id="line2d_54">
    <path d="M 199.682908 185.21419 
L 199.682908 185.21419 
L 199.682908 185.21419 
L 199.682908 185.21419 
L 199.682908 185.21419 
L 199.682908 185.21419 
L 199.682908 185.21419 
L 199.682908 185.21419 
L 199.682908 185.21419 
L 199.682908 185.21419 
L 199.682908 185.21419 
L 199.682908 185.21419 
L 199.682908 185.21419 
L 199.682908 185.21419 
L 199.682908 185.21419 
L 199.682908 185.21419 
L 199.682908 185.21419 
L 199.682908 185.21419 
L 199.682908 185.21419 
L 199.682908 185.21419 
L 199.682908 185.21419 
L 199.682908 185.21419 
L 199.682908 185.21419 
L 199.682908 185.21419 
L 199.682908 185.21419 
L 199.682908 185.21419 
L 199.682908 185.21419 
L 199.682908 185.21419 
L 199.682908 185.21419 
L 199.682908 185.21419 
L 199.682908 185.21419 
L 199.682908 185.21419 
L 199.682908 185.21419 
L 199.682908 185.21419 
L 199.682908 185.21419 
L 199.682908 185.21419 
L 199.682908 185.21419 
L 199.682908 185.21419 
L 199.682908 185.21419 
L 199.682908 185.21419 
L 199.682908 185.21419 
L 199.682908 185.21419 
L 199.682908 185.21419 
L 199.682908 185.21419 
L 199.682908 185.21419 
L 199.682908 185.21419 
L 199.682908 185.21419 
L 199.682908 185.21419 
L 199.682908 185.21419 
L 199.682908 185.21419 
L 199.682908 185.21419 
L 199.682908 185.21419 
L 199.682908 185.21419 
L 199.682908 185.21419 
L 199.682908 185.21419 
L 199.682908 185.21419 
L 199.682908 185.21419 
L 199.682908 185.21419 
L 199.682908 185.21419 
L 199.682908 185.21419 
L 199.682908 185.21419 
L 199.682908 185.21419 
L 199.682908 185.21419 
L 199.682908 185.21419 
L 199.682908 185.21419 
L 199.682908 185.21419 
L 199.682908 185.21419 
L 199.682908 185.21419 
L 199.682908 185.21419 
L 199.682908 185.21419 
L 199.682908 185.21419 
L 199.682908 185.21419 
L 199.682908 185.21419 
" clip-path="url(#p3931f3e5af)" style="fill: none; stroke: #7f7f7f; stroke-width: 1.5; stroke-linecap: square"/>
   </g>
   <g id="patch_3">
    <path d="M 54 252 
L 54 34.56 
" style="fill: none; stroke: #000000; stroke-width: 0.8; stroke-linejoin: miter; stroke-linecap: square"/>
   </g>
   <g id="patch_4">
    <path d="M 388.8 252 
L 388.8 34.56 
" style="fill: none; stroke: #000000; stroke-width: 0.8; stroke-linejoin: miter; stroke-linecap: square"/>
   </g>
   <g id="patch_5">
    <path d="M 54 252 
L 388.8 252 
" style="fill: none; stroke: #000000; stroke-width: 0.8; stroke-linejoin: miter; stroke-linecap: square"/>
   </g>
   <g id="patch_6">
    <path d="M 54 34.56 
L 388.8 34.56 
" style="fill: none; stroke: #000000; stroke-width: 0.8; stroke-linejoin: miter; stroke-linecap: square"/>
   </g>
   <g id="text_18">
    <!-- Planet Orbits -->
    <g transform="translate(182.541562 28.56)scale(0.12 -0.12)">
     <defs>
      <path id="DejaVuSans-50" d="M 1259 4147 
L 1259 2394 
L 2053 2394 
Q 2494 2394 2734 2622 
Q 2975 2850 2975 3272 
Q 2975 3691 2734 3919 
Q 2494 4147 2053 4147 
L 1259 4147 
z
M 628 4666 
L 2053 4666 
Q 2838 4666 3239 4311 
Q 3641 3956 3641 3272 
Q 3641 2581 3239 2228 
Q 2838 1875 2053 1875 
L 1259 1875 
L 1259 0 
L 628 0 
L 628 4666 
z
" transform="scale(0.015625)"/>
      <path id="DejaVuSans-6c" d="M 603 4863 
L 1178 4863 
L 1178 0 
L 603 0 
L 603 4863 
z
" transform="scale(0.015625)"/>
      <path id="DejaVuSans-4f" d="M 2522 4238 
Q 1834 4238 1429 3725 
Q 1025 3213 1025 2328 
Q 1025 1447 1429 934 
Q 1834 422 2522 422 
Q 3209 422 3611 934 
Q 4013 1447 4013 2328 
Q 4013 3213 3611 3725 
Q 3209 4238 2522 4238 
z
M 2522 4750 
Q 3503 4750 4090 4092 
Q 4678 3434 4678 2328 
Q 4678 1225 4090 567 
Q 3503 -91 2522 -91 
Q 1538 -91 948 565 
Q 359 1222 359 2328 
Q 359 3434 948 4092 
Q 1538 4750 2522 4750 
z
" transform="scale(0.015625)"/>
      <path id="DejaVuSans-62" d="M 3116 1747 
Q 3116 2381 2855 2742 
Q 2594 3103 2138 3103 
Q 1681 3103 1420 2742 
Q 1159 2381 1159 1747 
Q 1159 1113 1420 752 
Q 1681 391 2138 391 
Q 2594 391 2855 752 
Q 3116 1113 3116 1747 
z
M 1159 2969 
Q 1341 3281 1617 3432 
Q 1894 3584 2278 3584 
Q 2916 3584 3314 3078 
Q 3713 2572 3713 1747 
Q 3713 922 3314 415 
Q 2916 -91 2278 -91 
Q 1894 -91 1617 61 
Q 1341 213 1159 525 
L 1159 0 
L 581 0 
L 581 4863 
L 1159 4863 
L 1159 2969 
z
" transform="scale(0.015625)"/>
      <path id="DejaVuSans-73" d="M 2834 3397 
L 2834 2853 
Q 2591 2978 2328 3040 
Q 2066 3103 1784 3103 
Q 1356 3103 1142 2972 
Q 928 2841 928 2578 
Q 928 2378 1081 2264 
Q 1234 2150 1697 2047 
L 1894 2003 
Q 2506 1872 2764 1633 
Q 3022 1394 3022 966 
Q 3022 478 2636 193 
Q 2250 -91 1575 -91 
Q 1294 -91 989 -36 
Q 684 19 347 128 
L 347 722 
Q 666 556 975 473 
Q 1284 391 1588 391 
Q 1994 391 2212 530 
Q 2431 669 2431 922 
Q 2431 1156 2273 1281 
Q 2116 1406 1581 1522 
L 1381 1569 
Q 847 1681 609 1914 
Q 372 2147 372 2553 
Q 372 3047 722 3315 
Q 1072 3584 1716 3584 
Q 2034 3584 2315 3537 
Q 2597 3491 2834 3397 
z
" transform="scale(0.015625)"/>
     </defs>
     <use xlink:href="#DejaVuSans-50"/>
     <use xlink:href="#DejaVuSans-6c" x="60.302734"/>
     <use xlink:href="#DejaVuSans-61" x="88.085938"/>
     <use xlink:href="#DejaVuSans-6e" x="149.365234"/>
     <use xlink:href="#DejaVuSans-65" x="212.744141"/>
     <use xlink:href="#DejaVuSans-74" x="274.267578"/>
     <use xlink:href="#DejaVuSans-20" x="313.476562"/>
     <use xlink:href="#DejaVuSans-4f" x="345.263672"/>
     <use xlink:href="#DejaVuSans-72" x="423.974609"/>
     <use xlink:href="#DejaVuSans-62" x="465.087891"/>
     <use xlink:href="#DejaVuSans-69" x="528.564453"/>
     <use xlink:href="#DejaVuSans-74" x="556.347656"/>
     <use xlink:href="#DejaVuSans-73" x="595.556641"/>
    </g>
   </g>
  </g>
 </g>
 <defs>
  <clipPath id="p3931f3e5af">
   <rect x="54" y="34.56" width="334.8" height="217.44"/>
  </clipPath>
 </defs>
</svg>
