<?xml version="1.0" encoding="utf-8" standalone="no"?>
<!DOCTYPE svg PUBLIC "-//W3C//DTD SVG 1.1//EN"
  "http://www.w3.org/Graphics/SVG/1.1/DTD/svg11.dtd">
<svg xmlns:xlink="http://www.w3.org/1999/xlink" width="432pt" height="288pt" viewBox="0 0 432 288" xmlns="http://www.w3.org/2000/svg" version="1.1">
 <metadata>
  <rdf:RDF xmlns:dc="http://purl.org/dc/elements/1.1/" xmlns:cc="http://creativecommons.org/ns#" xmlns:rdf="http://www.w3.org/1999/02/22-rdf-syntax-ns#">
   <cc:Work>
    <dc:type rdf:resource="http://purl.org/dc/dcmitype/StillImage"/>
    <dc:date>2023-09-20T11:37:50.635560</dc:date>
    <dc:format>image/svg+xml</dc:format>
    <dc:creator>
     <cc:Agent>
      <dc:title>Matplotlib v3.5.2, https://matplotlib.org/</dc:title>
     </cc:Agent>
    </dc:creator>
   </cc:Work>
  </rdf:RDF>
 </metadata>
 <defs>
  <style type="text/css">*{stroke-linejoin: round; stroke-linecap: butt}</style>
 </defs>
 <g id="figure_1">
  <g id="patch_1">
   <path d="M 0 288 
L 432 288 
L 432 0 
L 0 0 
L 0 288 
z
" style="fill: none"/>
  </g>
  <g id="axes_1">
   <g id="patch_2">
    <path d="M 54 252 
L 388.8 252 
L 388.8 34.56 
L 54 34.56 
z
" style="fill: #ffffff"/>
   </g>
   <g id="matplotlib.axis_1">
    <g id="xtick_1">
     <g id="line2d_1">
      <path d="M 54 252 
L 54 34.56 
" clip-path="url(#p52a3b8cf41)" style="fill: none; stroke: #b0b0b0; stroke-width: 0.8; stroke-linecap: square"/>
     </g>
     <g id="line2d_2">
      <defs>
       <path id="mbecc92cb55" d="M 0 0 
L 0 3.5 
" style="stroke: #000000; stroke-width: 0.8"/>
      </defs>
      <g>
       <use xlink:href="#mbecc92cb55" x="54" y="252" style="stroke: #000000; stroke-width: 0.8"/>
      </g>
     </g>
     <g id="text_1">
      <!-- −1.00 -->
      <g transform="translate(38.677344 266.598437)scale(0.1 -0.1)">
       <defs>
        <path id="DejaVuSans-2212" d="M 678 2272 
L 4684 2272 
L 4684 1741 
L 678 1741 
L 678 2272 
z
" transform="scale(0.015625)"/>
        <path id="DejaVuSans-31" d="M 794 531 
L 1825 531 
L 1825 4091 
L 703 3866 
L 703 4441 
L 1819 4666 
L 2450 4666 
L 2450 531 
L 3481 531 
L 3481 0 
L 794 0 
L 794 531 
z
" transform="scale(0.015625)"/>
        <path id="DejaVuSans-2e" d="M 684 794 
L 1344 794 
L 1344 0 
L 684 0 
L 684 794 
z
" transform="scale(0.015625)"/>
        <path id="DejaVuSans-30" d="M 2034 4250 
Q 1547 4250 1301 3770 
Q 1056 3291 1056 2328 
Q 1056 1369 1301 889 
Q 1547 409 2034 409 
Q 2525 409 2770 889 
Q 3016 1369 3016 2328 
Q 3016 3291 2770 3770 
Q 2525 4250 2034 4250 
z
M 2034 4750 
Q 2819 4750 3233 4129 
Q 3647 3509 3647 2328 
Q 3647 1150 3233 529 
Q 2819 -91 2034 -91 
Q 1250 -91 836 529 
Q 422 1150 422 2328 
Q 422 3509 836 4129 
Q 1250 4750 2034 4750 
z
" transform="scale(0.015625)"/>
       </defs>
       <use xlink:href="#DejaVuSans-2212"/>
       <use xlink:href="#DejaVuSans-31" x="83.789062"/>
       <use xlink:href="#DejaVuSans-2e" x="147.412109"/>
       <use xlink:href="#DejaVuSans-30" x="179.199219"/>
       <use xlink:href="#DejaVuSans-30" x="242.822266"/>
      </g>
     </g>
    </g>
    <g id="xtick_2">
     <g id="line2d_3">
      <path d="M 95.85 252 
L 95.85 34.56 
" clip-path="url(#p52a3b8cf41)" style="fill: none; stroke: #b0b0b0; stroke-width: 0.8; stroke-linecap: square"/>
     </g>
     <g id="line2d_4">
      <g>
       <use xlink:href="#mbecc92cb55" x="95.85" y="252" style="stroke: #000000; stroke-width: 0.8"/>
      </g>
     </g>
     <g id="text_2">
      <!-- −0.75 -->
      <g transform="translate(80.527344 266.598437)scale(0.1 -0.1)">
       <defs>
        <path id="DejaVuSans-37" d="M 525 4666 
L 3525 4666 
L 3525 4397 
L 1831 0 
L 1172 0 
L 2766 4134 
L 525 4134 
L 525 4666 
z
" transform="scale(0.015625)"/>
        <path id="DejaVuSans-35" d="M 691 4666 
L 3169 4666 
L 3169 4134 
L 1269 4134 
L 1269 2991 
Q 1406 3038 1543 3061 
Q 1681 3084 1819 3084 
Q 2600 3084 3056 2656 
Q 3513 2228 3513 1497 
Q 3513 744 3044 326 
Q 2575 -91 1722 -91 
Q 1428 -91 1123 -41 
Q 819 9 494 109 
L 494 744 
Q 775 591 1075 516 
Q 1375 441 1709 441 
Q 2250 441 2565 725 
Q 2881 1009 2881 1497 
Q 2881 1984 2565 2268 
Q 2250 2553 1709 2553 
Q 1456 2553 1204 2497 
Q 953 2441 691 2322 
L 691 4666 
z
" transform="scale(0.015625)"/>
       </defs>
       <use xlink:href="#DejaVuSans-2212"/>
       <use xlink:href="#DejaVuSans-30" x="83.789062"/>
       <use xlink:href="#DejaVuSans-2e" x="147.412109"/>
       <use xlink:href="#DejaVuSans-37" x="179.199219"/>
       <use xlink:href="#DejaVuSans-35" x="242.822266"/>
      </g>
     </g>
    </g>
    <g id="xtick_3">
     <g id="line2d_5">
      <path d="M 137.7 252 
L 137.7 34.56 
" clip-path="url(#p52a3b8cf41)" style="fill: none; stroke: #b0b0b0; stroke-width: 0.8; stroke-linecap: square"/>
     </g>
     <g id="line2d_6">
      <g>
       <use xlink:href="#mbecc92cb55" x="137.7" y="252" style="stroke: #000000; stroke-width: 0.8"/>
      </g>
     </g>
     <g id="text_3">
      <!-- −0.50 -->
      <g transform="translate(122.377344 266.598437)scale(0.1 -0.1)">
       <use xlink:href="#DejaVuSans-2212"/>
       <use xlink:href="#DejaVuSans-30" x="83.789062"/>
       <use xlink:href="#DejaVuSans-2e" x="147.412109"/>
       <use xlink:href="#DejaVuSans-35" x="179.199219"/>
       <use xlink:href="#DejaVuSans-30" x="242.822266"/>
      </g>
     </g>
    </g>
    <g id="xtick_4">
     <g id="line2d_7">
      <path d="M 179.55 252 
L 179.55 34.56 
" clip-path="url(#p52a3b8cf41)" style="fill: none; stroke: #b0b0b0; stroke-width: 0.8; stroke-linecap: square"/>
     </g>
     <g id="line2d_8">
      <g>
       <use xlink:href="#mbecc92cb55" x="179.55" y="252" style="stroke: #000000; stroke-width: 0.8"/>
      </g>
     </g>
     <g id="text_4">
      <!-- −0.25 -->
      <g transform="translate(164.227344 266.598437)scale(0.1 -0.1)">
       <defs>
        <path id="DejaVuSans-32" d="M 1228 531 
L 3431 531 
L 3431 0 
L 469 0 
L 469 531 
Q 828 903 1448 1529 
Q 2069 2156 2228 2338 
Q 2531 2678 2651 2914 
Q 2772 3150 2772 3378 
Q 2772 3750 2511 3984 
Q 2250 4219 1831 4219 
Q 1534 4219 1204 4116 
Q 875 4013 500 3803 
L 500 4441 
Q 881 4594 1212 4672 
Q 1544 4750 1819 4750 
Q 2544 4750 2975 4387 
Q 3406 4025 3406 3419 
Q 3406 3131 3298 2873 
Q 3191 2616 2906 2266 
Q 2828 2175 2409 1742 
Q 1991 1309 1228 531 
z
" transform="scale(0.015625)"/>
       </defs>
       <use xlink:href="#DejaVuSans-2212"/>
       <use xlink:href="#DejaVuSans-30" x="83.789062"/>
       <use xlink:href="#DejaVuSans-2e" x="147.412109"/>
       <use xlink:href="#DejaVuSans-32" x="179.199219"/>
       <use xlink:href="#DejaVuSans-35" x="242.822266"/>
      </g>
     </g>
    </g>
    <g id="xtick_5">
     <g id="line2d_9">
      <path d="M 221.4 252 
L 221.4 34.56 
" clip-path="url(#p52a3b8cf41)" style="fill: none; stroke: #b0b0b0; stroke-width: 0.8; stroke-linecap: square"/>
     </g>
     <g id="line2d_10">
      <g>
       <use xlink:href="#mbecc92cb55" x="221.4" y="252" style="stroke: #000000; stroke-width: 0.8"/>
      </g>
     </g>
     <g id="text_5">
      <!-- 0.00 -->
      <g transform="translate(210.267188 266.598437)scale(0.1 -0.1)">
       <use xlink:href="#DejaVuSans-30"/>
       <use xlink:href="#DejaVuSans-2e" x="63.623047"/>
       <use xlink:href="#DejaVuSans-30" x="95.410156"/>
       <use xlink:href="#DejaVuSans-30" x="159.033203"/>
      </g>
     </g>
    </g>
    <g id="xtick_6">
     <g id="line2d_11">
      <path d="M 263.25 252 
L 263.25 34.56 
" clip-path="url(#p52a3b8cf41)" style="fill: none; stroke: #b0b0b0; stroke-width: 0.8; stroke-linecap: square"/>
     </g>
     <g id="line2d_12">
      <g>
       <use xlink:href="#mbecc92cb55" x="263.25" y="252" style="stroke: #000000; stroke-width: 0.8"/>
      </g>
     </g>
     <g id="text_6">
      <!-- 0.25 -->
      <g transform="translate(252.117188 266.598437)scale(0.1 -0.1)">
       <use xlink:href="#DejaVuSans-30"/>
       <use xlink:href="#DejaVuSans-2e" x="63.623047"/>
       <use xlink:href="#DejaVuSans-32" x="95.410156"/>
       <use xlink:href="#DejaVuSans-35" x="159.033203"/>
      </g>
     </g>
    </g>
    <g id="xtick_7">
     <g id="line2d_13">
      <path d="M 305.1 252 
L 305.1 34.56 
" clip-path="url(#p52a3b8cf41)" style="fill: none; stroke: #b0b0b0; stroke-width: 0.8; stroke-linecap: square"/>
     </g>
     <g id="line2d_14">
      <g>
       <use xlink:href="#mbecc92cb55" x="305.1" y="252" style="stroke: #000000; stroke-width: 0.8"/>
      </g>
     </g>
     <g id="text_7">
      <!-- 0.50 -->
      <g transform="translate(293.967188 266.598437)scale(0.1 -0.1)">
       <use xlink:href="#DejaVuSans-30"/>
       <use xlink:href="#DejaVuSans-2e" x="63.623047"/>
       <use xlink:href="#DejaVuSans-35" x="95.410156"/>
       <use xlink:href="#DejaVuSans-30" x="159.033203"/>
      </g>
     </g>
    </g>
    <g id="xtick_8">
     <g id="line2d_15">
      <path d="M 346.95 252 
L 346.95 34.56 
" clip-path="url(#p52a3b8cf41)" style="fill: none; stroke: #b0b0b0; stroke-width: 0.8; stroke-linecap: square"/>
     </g>
     <g id="line2d_16">
      <g>
       <use xlink:href="#mbecc92cb55" x="346.95" y="252" style="stroke: #000000; stroke-width: 0.8"/>
      </g>
     </g>
     <g id="text_8">
      <!-- 0.75 -->
      <g transform="translate(335.817188 266.598437)scale(0.1 -0.1)">
       <use xlink:href="#DejaVuSans-30"/>
       <use xlink:href="#DejaVuSans-2e" x="63.623047"/>
       <use xlink:href="#DejaVuSans-37" x="95.410156"/>
       <use xlink:href="#DejaVuSans-35" x="159.033203"/>
      </g>
     </g>
    </g>
    <g id="xtick_9">
     <g id="line2d_17">
      <path d="M 388.8 252 
L 388.8 34.56 
" clip-path="url(#p52a3b8cf41)" style="fill: none; stroke: #b0b0b0; stroke-width: 0.8; stroke-linecap: square"/>
     </g>
     <g id="line2d_18">
      <g>
       <use xlink:href="#mbecc92cb55" x="388.8" y="252" style="stroke: #000000; stroke-width: 0.8"/>
      </g>
     </g>
     <g id="text_9">
      <!-- 1.00 -->
      <g transform="translate(377.667188 266.598437)scale(0.1 -0.1)">
       <use xlink:href="#DejaVuSans-31"/>
       <use xlink:href="#DejaVuSans-2e" x="63.623047"/>
       <use xlink:href="#DejaVuSans-30" x="95.410156"/>
       <use xlink:href="#DejaVuSans-30" x="159.033203"/>
      </g>
     </g>
    </g>
    <g id="text_10">
     <!-- X Coordinate -->
     <g transform="translate(188.975 280.276563)scale(0.1 -0.1)">
      <defs>
       <path id="DejaVuSans-58" d="M 403 4666 
L 1081 4666 
L 2241 2931 
L 3406 4666 
L 4084 4666 
L 2584 2425 
L 4184 0 
L 3506 0 
L 2194 1984 
L 872 0 
L 191 0 
L 1856 2491 
L 403 4666 
z
" transform="scale(0.015625)"/>
       <path id="DejaVuSans-20" transform="scale(0.015625)"/>
       <path id="DejaVuSans-43" d="M 4122 4306 
L 4122 3641 
Q 3803 3938 3442 4084 
Q 3081 4231 2675 4231 
Q 1875 4231 1450 3742 
Q 1025 3253 1025 2328 
Q 1025 1406 1450 917 
Q 1875 428 2675 428 
Q 3081 428 3442 575 
Q 3803 722 4122 1019 
L 4122 359 
Q 3791 134 3420 21 
Q 3050 -91 2638 -91 
Q 1578 -91 968 557 
Q 359 1206 359 2328 
Q 359 3453 968 4101 
Q 1578 4750 2638 4750 
Q 3056 4750 3426 4639 
Q 3797 4528 4122 4306 
z
" transform="scale(0.015625)"/>
       <path id="DejaVuSans-6f" d="M 1959 3097 
Q 1497 3097 1228 2736 
Q 959 2375 959 1747 
Q 959 1119 1226 758 
Q 1494 397 1959 397 
Q 2419 397 2687 759 
Q 2956 1122 2956 1747 
Q 2956 2369 2687 2733 
Q 2419 3097 1959 3097 
z
M 1959 3584 
Q 2709 3584 3137 3096 
Q 3566 2609 3566 1747 
Q 3566 888 3137 398 
Q 2709 -91 1959 -91 
Q 1206 -91 779 398 
Q 353 888 353 1747 
Q 353 2609 779 3096 
Q 1206 3584 1959 3584 
z
" transform="scale(0.015625)"/>
       <path id="DejaVuSans-72" d="M 2631 2963 
Q 2534 3019 2420 3045 
Q 2306 3072 2169 3072 
Q 1681 3072 1420 2755 
Q 1159 2438 1159 1844 
L 1159 0 
L 581 0 
L 581 3500 
L 1159 3500 
L 1159 2956 
Q 1341 3275 1631 3429 
Q 1922 3584 2338 3584 
Q 2397 3584 2469 3576 
Q 2541 3569 2628 3553 
L 2631 2963 
z
" transform="scale(0.015625)"/>
       <path id="DejaVuSans-64" d="M 2906 2969 
L 2906 4863 
L 3481 4863 
L 3481 0 
L 2906 0 
L 2906 525 
Q 2725 213 2448 61 
Q 2172 -91 1784 -91 
Q 1150 -91 751 415 
Q 353 922 353 1747 
Q 353 2572 751 3078 
Q 1150 3584 1784 3584 
Q 2172 3584 2448 3432 
Q 2725 3281 2906 2969 
z
M 947 1747 
Q 947 1113 1208 752 
Q 1469 391 1925 391 
Q 2381 391 2643 752 
Q 2906 1113 2906 1747 
Q 2906 2381 2643 2742 
Q 2381 3103 1925 3103 
Q 1469 3103 1208 2742 
Q 947 2381 947 1747 
z
" transform="scale(0.015625)"/>
       <path id="DejaVuSans-69" d="M 603 3500 
L 1178 3500 
L 1178 0 
L 603 0 
L 603 3500 
z
M 603 4863 
L 1178 4863 
L 1178 4134 
L 603 4134 
L 603 4863 
z
" transform="scale(0.015625)"/>
       <path id="DejaVuSans-6e" d="M 3513 2113 
L 3513 0 
L 2938 0 
L 2938 2094 
Q 2938 2591 2744 2837 
Q 2550 3084 2163 3084 
Q 1697 3084 1428 2787 
Q 1159 2491 1159 1978 
L 1159 0 
L 581 0 
L 581 3500 
L 1159 3500 
L 1159 2956 
Q 1366 3272 1645 3428 
Q 1925 3584 2291 3584 
Q 2894 3584 3203 3211 
Q 3513 2838 3513 2113 
z
" transform="scale(0.015625)"/>
       <path id="DejaVuSans-61" d="M 2194 1759 
Q 1497 1759 1228 1600 
Q 959 1441 959 1056 
Q 959 750 1161 570 
Q 1363 391 1709 391 
Q 2188 391 2477 730 
Q 2766 1069 2766 1631 
L 2766 1759 
L 2194 1759 
z
M 3341 1997 
L 3341 0 
L 2766 0 
L 2766 531 
Q 2569 213 2275 61 
Q 1981 -91 1556 -91 
Q 1019 -91 701 211 
Q 384 513 384 1019 
Q 384 1609 779 1909 
Q 1175 2209 1959 2209 
L 2766 2209 
L 2766 2266 
Q 2766 2663 2505 2880 
Q 2244 3097 1772 3097 
Q 1472 3097 1187 3025 
Q 903 2953 641 2809 
L 641 3341 
Q 956 3463 1253 3523 
Q 1550 3584 1831 3584 
Q 2591 3584 2966 3190 
Q 3341 2797 3341 1997 
z
" transform="scale(0.015625)"/>
       <path id="DejaVuSans-74" d="M 1172 4494 
L 1172 3500 
L 2356 3500 
L 2356 3053 
L 1172 3053 
L 1172 1153 
Q 1172 725 1289 603 
Q 1406 481 1766 481 
L 2356 481 
L 2356 0 
L 1766 0 
Q 1100 0 847 248 
Q 594 497 594 1153 
L 594 3053 
L 172 3053 
L 172 3500 
L 594 3500 
L 594 4494 
L 1172 4494 
z
" transform="scale(0.015625)"/>
       <path id="DejaVuSans-65" d="M 3597 1894 
L 3597 1613 
L 953 1613 
Q 991 1019 1311 708 
Q 1631 397 2203 397 
Q 2534 397 2845 478 
Q 3156 559 3463 722 
L 3463 178 
Q 3153 47 2828 -22 
Q 2503 -91 2169 -91 
Q 1331 -91 842 396 
Q 353 884 353 1716 
Q 353 2575 817 3079 
Q 1281 3584 2069 3584 
Q 2775 3584 3186 3129 
Q 3597 2675 3597 1894 
z
M 3022 2063 
Q 3016 2534 2758 2815 
Q 2500 3097 2075 3097 
Q 1594 3097 1305 2825 
Q 1016 2553 972 2059 
L 3022 2063 
z
" transform="scale(0.015625)"/>
      </defs>
      <use xlink:href="#DejaVuSans-58"/>
      <use xlink:href="#DejaVuSans-20" x="68.505859"/>
      <use xlink:href="#DejaVuSans-43" x="100.292969"/>
      <use xlink:href="#DejaVuSans-6f" x="170.117188"/>
      <use xlink:href="#DejaVuSans-6f" x="231.298828"/>
      <use xlink:href="#DejaVuSans-72" x="292.480469"/>
      <use xlink:href="#DejaVuSans-64" x="331.84375"/>
      <use xlink:href="#DejaVuSans-69" x="395.320312"/>
      <use xlink:href="#DejaVuSans-6e" x="423.103516"/>
      <use xlink:href="#DejaVuSans-61" x="486.482422"/>
      <use xlink:href="#DejaVuSans-74" x="547.761719"/>
      <use xlink:href="#DejaVuSans-65" x="586.970703"/>
     </g>
    </g>
    <g id="text_11">
     <!-- 1e12 -->
     <g transform="translate(363.559375 279.276563)scale(0.1 -0.1)">
      <use xlink:href="#DejaVuSans-31"/>
      <use xlink:href="#DejaVuSans-65" x="63.623047"/>
      <use xlink:href="#DejaVuSans-31" x="125.146484"/>
      <use xlink:href="#DejaVuSans-32" x="188.769531"/>
     </g>
    </g>
   </g>
   <g id="matplotlib.axis_2">
    <g id="ytick_1">
     <g id="line2d_19">
      <path d="M 54 252 
L 388.8 252 
" clip-path="url(#p52a3b8cf41)" style="fill: none; stroke: #b0b0b0; stroke-width: 0.8; stroke-linecap: square"/>
     </g>
     <g id="line2d_20">
      <defs>
       <path id="m3836b07d49" d="M 0 0 
L -3.5 0 
" style="stroke: #000000; stroke-width: 0.8"/>
      </defs>
      <g>
       <use xlink:href="#m3836b07d49" x="54" y="252" style="stroke: #000000; stroke-width: 0.8"/>
      </g>
     </g>
     <g id="text_12">
      <!-- −1.00 -->
      <g transform="translate(16.354687 255.799219)scale(0.1 -0.1)">
       <use xlink:href="#DejaVuSans-2212"/>
       <use xlink:href="#DejaVuSans-31" x="83.789062"/>
       <use xlink:href="#DejaVuSans-2e" x="147.412109"/>
       <use xlink:href="#DejaVuSans-30" x="179.199219"/>
       <use xlink:href="#DejaVuSans-30" x="242.822266"/>
      </g>
     </g>
    </g>
    <g id="ytick_2">
     <g id="line2d_21">
      <path d="M 54 224.82 
L 388.8 224.82 
" clip-path="url(#p52a3b8cf41)" style="fill: none; stroke: #b0b0b0; stroke-width: 0.8; stroke-linecap: square"/>
     </g>
     <g id="line2d_22">
      <g>
       <use xlink:href="#m3836b07d49" x="54" y="224.82" style="stroke: #000000; stroke-width: 0.8"/>
      </g>
     </g>
     <g id="text_13">
      <!-- −0.75 -->
      <g transform="translate(16.354687 228.619219)scale(0.1 -0.1)">
       <use xlink:href="#DejaVuSans-2212"/>
       <use xlink:href="#DejaVuSans-30" x="83.789062"/>
       <use xlink:href="#DejaVuSans-2e" x="147.412109"/>
       <use xlink:href="#DejaVuSans-37" x="179.199219"/>
       <use xlink:href="#DejaVuSans-35" x="242.822266"/>
      </g>
     </g>
    </g>
    <g id="ytick_3">
     <g id="line2d_23">
      <path d="M 54 197.64 
L 388.8 197.64 
" clip-path="url(#p52a3b8cf41)" style="fill: none; stroke: #b0b0b0; stroke-width: 0.8; stroke-linecap: square"/>
     </g>
     <g id="line2d_24">
      <g>
       <use xlink:href="#m3836b07d49" x="54" y="197.64" style="stroke: #000000; stroke-width: 0.8"/>
      </g>
     </g>
     <g id="text_14">
      <!-- −0.50 -->
      <g transform="translate(16.354687 201.439219)scale(0.1 -0.1)">
       <use xlink:href="#DejaVuSans-2212"/>
       <use xlink:href="#DejaVuSans-30" x="83.789062"/>
       <use xlink:href="#DejaVuSans-2e" x="147.412109"/>
       <use xlink:href="#DejaVuSans-35" x="179.199219"/>
       <use xlink:href="#DejaVuSans-30" x="242.822266"/>
      </g>
     </g>
    </g>
    <g id="ytick_4">
     <g id="line2d_25">
      <path d="M 54 170.46 
L 388.8 170.46 
" clip-path="url(#p52a3b8cf41)" style="fill: none; stroke: #b0b0b0; stroke-width: 0.8; stroke-linecap: square"/>
     </g>
     <g id="line2d_26">
      <g>
       <use xlink:href="#m3836b07d49" x="54" y="170.46" style="stroke: #000000; stroke-width: 0.8"/>
      </g>
     </g>
     <g id="text_15">
      <!-- −0.25 -->
      <g transform="translate(16.354687 174.259219)scale(0.1 -0.1)">
       <use xlink:href="#DejaVuSans-2212"/>
       <use xlink:href="#DejaVuSans-30" x="83.789062"/>
       <use xlink:href="#DejaVuSans-2e" x="147.412109"/>
       <use xlink:href="#DejaVuSans-32" x="179.199219"/>
       <use xlink:href="#DejaVuSans-35" x="242.822266"/>
      </g>
     </g>
    </g>
    <g id="ytick_5">
     <g id="line2d_27">
      <path d="M 54 143.28 
L 388.8 143.28 
" clip-path="url(#p52a3b8cf41)" style="fill: none; stroke: #b0b0b0; stroke-width: 0.8; stroke-linecap: square"/>
     </g>
     <g id="line2d_28">
      <g>
       <use xlink:href="#m3836b07d49" x="54" y="143.28" style="stroke: #000000; stroke-width: 0.8"/>
      </g>
     </g>
     <g id="text_16">
      <!-- 0.00 -->
      <g transform="translate(24.734375 147.079219)scale(0.1 -0.1)">
       <use xlink:href="#DejaVuSans-30"/>
       <use xlink:href="#DejaVuSans-2e" x="63.623047"/>
       <use xlink:href="#DejaVuSans-30" x="95.410156"/>
       <use xlink:href="#DejaVuSans-30" x="159.033203"/>
      </g>
     </g>
    </g>
    <g id="ytick_6">
     <g id="line2d_29">
      <path d="M 54 116.1 
L 388.8 116.1 
" clip-path="url(#p52a3b8cf41)" style="fill: none; stroke: #b0b0b0; stroke-width: 0.8; stroke-linecap: square"/>
     </g>
     <g id="line2d_30">
      <g>
       <use xlink:href="#m3836b07d49" x="54" y="116.1" style="stroke: #000000; stroke-width: 0.8"/>
      </g>
     </g>
     <g id="text_17">
      <!-- 0.25 -->
      <g transform="translate(24.734375 119.899219)scale(0.1 -0.1)">
       <use xlink:href="#DejaVuSans-30"/>
       <use xlink:href="#DejaVuSans-2e" x="63.623047"/>
       <use xlink:href="#DejaVuSans-32" x="95.410156"/>
       <use xlink:href="#DejaVuSans-35" x="159.033203"/>
      </g>
     </g>
    </g>
    <g id="ytick_7">
     <g id="line2d_31">
      <path d="M 54 88.92 
L 388.8 88.92 
" clip-path="url(#p52a3b8cf41)" style="fill: none; stroke: #b0b0b0; stroke-width: 0.8; stroke-linecap: square"/>
     </g>
     <g id="line2d_32">
      <g>
       <use xlink:href="#m3836b07d49" x="54" y="88.92" style="stroke: #000000; stroke-width: 0.8"/>
      </g>
     </g>
     <g id="text_18">
      <!-- 0.50 -->
      <g transform="translate(24.734375 92.719219)scale(0.1 -0.1)">
       <use xlink:href="#DejaVuSans-30"/>
       <use xlink:href="#DejaVuSans-2e" x="63.623047"/>
       <use xlink:href="#DejaVuSans-35" x="95.410156"/>
       <use xlink:href="#DejaVuSans-30" x="159.033203"/>
      </g>
     </g>
    </g>
    <g id="ytick_8">
     <g id="line2d_33">
      <path d="M 54 61.74 
L 388.8 61.74 
" clip-path="url(#p52a3b8cf41)" style="fill: none; stroke: #b0b0b0; stroke-width: 0.8; stroke-linecap: square"/>
     </g>
     <g id="line2d_34">
      <g>
       <use xlink:href="#m3836b07d49" x="54" y="61.74" style="stroke: #000000; stroke-width: 0.8"/>
      </g>
     </g>
     <g id="text_19">
      <!-- 0.75 -->
      <g transform="translate(24.734375 65.539219)scale(0.1 -0.1)">
       <use xlink:href="#DejaVuSans-30"/>
       <use xlink:href="#DejaVuSans-2e" x="63.623047"/>
       <use xlink:href="#DejaVuSans-37" x="95.410156"/>
       <use xlink:href="#DejaVuSans-35" x="159.033203"/>
      </g>
     </g>
    </g>
    <g id="ytick_9">
     <g id="line2d_35">
      <path d="M 54 34.56 
L 388.8 34.56 
" clip-path="url(#p52a3b8cf41)" style="fill: none; stroke: #b0b0b0; stroke-width: 0.8; stroke-linecap: square"/>
     </g>
     <g id="line2d_36">
      <g>
       <use xlink:href="#m3836b07d49" x="54" y="34.56" style="stroke: #000000; stroke-width: 0.8"/>
      </g>
     </g>
     <g id="text_20">
      <!-- 1.00 -->
      <g transform="translate(24.734375 38.359219)scale(0.1 -0.1)">
       <use xlink:href="#DejaVuSans-31"/>
       <use xlink:href="#DejaVuSans-2e" x="63.623047"/>
       <use xlink:href="#DejaVuSans-30" x="95.410156"/>
       <use xlink:href="#DejaVuSans-30" x="159.033203"/>
      </g>
     </g>
    </g>
    <g id="text_21">
     <!-- Y Coordinate -->
     <g transform="translate(10.275 175.333906)rotate(-90)scale(0.1 -0.1)">
      <defs>
       <path id="DejaVuSans-59" d="M -13 4666 
L 666 4666 
L 1959 2747 
L 3244 4666 
L 3922 4666 
L 2272 2222 
L 2272 0 
L 1638 0 
L 1638 2222 
L -13 4666 
z
" transform="scale(0.015625)"/>
      </defs>
      <use xlink:href="#DejaVuSans-59"/>
      <use xlink:href="#DejaVuSans-20" x="61.083984"/>
      <use xlink:href="#DejaVuSans-43" x="92.871094"/>
      <use xlink:href="#DejaVuSans-6f" x="162.695312"/>
      <use xlink:href="#DejaVuSans-6f" x="223.876953"/>
      <use xlink:href="#DejaVuSans-72" x="285.058594"/>
      <use xlink:href="#DejaVuSans-64" x="324.421875"/>
      <use xlink:href="#DejaVuSans-69" x="387.898438"/>
      <use xlink:href="#DejaVuSans-6e" x="415.681641"/>
      <use xlink:href="#DejaVuSans-61" x="479.060547"/>
      <use xlink:href="#DejaVuSans-74" x="540.339844"/>
      <use xlink:href="#DejaVuSans-65" x="579.548828"/>
     </g>
    </g>
    <g id="text_22">
     <!-- 1e12 -->
     <g transform="translate(54 31.56)scale(0.1 -0.1)">
      <use xlink:href="#DejaVuSans-31"/>
      <use xlink:href="#DejaVuSans-65" x="63.623047"/>
      <use xlink:href="#DejaVuSans-31" x="125.146484"/>
      <use xlink:href="#DejaVuSans-32" x="188.769531"/>
     </g>
    </g>
   </g>
   <g id="line2d_37">
    <path d="M 325.529116 186.700631 
L 328.589444 181.925254 
L 331.606659 177.616171 
L 334.623609 173.695887 
L 337.72502 170.035284 
L 340.988457 166.526554 
L 341.383664 166.122374 
L 341.383664 166.122374 
" clip-path="url(#p52a3b8cf41)" style="fill: none; stroke: #1f77b4; stroke-width: 1.5; stroke-linecap: square"/>
   </g>
   <g id="line2d_38">
    <path d="M 329.732438 187.671581 
L 331.522218 185.202959 
L 333.582848 182.744965 
L 335.930138 180.291109 
L 338.590829 177.832248 
L 341.598041 175.360648 
L 344.987133 172.870304 
L 345.893017 172.247708 
L 345.893017 172.247708 
" clip-path="url(#p52a3b8cf41)" style="fill: none; stroke: #ff7f0e; stroke-width: 1.5; stroke-linecap: square"/>
   </g>
   <g id="line2d_39">
    <path d="M 326.761371 183.278899 
L 333.393483 176.543445 
L 338.685931 171.471173 
L 343.852472 166.831762 
L 349.267362 162.275409 
L 351.030851 160.850836 
L 351.030851 160.850836 
" clip-path="url(#p52a3b8cf41)" style="fill: none; stroke: #2ca02c; stroke-width: 1.5; stroke-linecap: square"/>
   </g>
   <g id="line2d_40">
    <path d="M 329.44546 183.346857 
L 335.16953 178.400293 
L 340.136628 174.406877 
L 345.49263 170.394149 
L 351.330415 166.300273 
L 357.919376 161.953405 
L 358.201505 161.772726 
L 358.201505 161.772726 
" clip-path="url(#p52a3b8cf41)" style="fill: none; stroke: #d62728; stroke-width: 1.5; stroke-linecap: square"/>
   </g>
   <g id="line2d_41">
    <path d="M 332.198225 182.696593 
L 335.815136 179.6078 
L 339.764256 176.528036 
L 344.149849 173.389096 
L 349.097652 170.122545 
L 354.757603 166.658868 
L 358.50714 164.490624 
L 358.50714 164.490624 
" clip-path="url(#p52a3b8cf41)" style="fill: none; stroke: #9467bd; stroke-width: 1.5; stroke-linecap: square"/>
   </g>
   <g id="line2d_42">
    <path d="M 330.590539 187.207468 
L 332.146839 184.947935 
L 333.979444 182.691504 
L 336.0897 180.451394 
L 338.55627 178.163596 
L 341.342223 175.884236 
L 344.557761 173.547991 
L 346.578879 172.205173 
L 346.578879 172.205173 
" clip-path="url(#p52a3b8cf41)" style="fill: none; stroke: #8c564b; stroke-width: 1.5; stroke-linecap: square"/>
   </g>
   <g id="line2d_43">
    <path d="M 326.401583 185.149587 
L 330.460923 178.645027 
L 334.278439 172.677078 
L 337.372551 168.259792 
L 340.576235 164.076353 
L 343.024557 161.106707 
L 343.024557 161.106707 
" clip-path="url(#p52a3b8cf41)" style="fill: none; stroke: #e377c2; stroke-width: 1.5; stroke-linecap: square"/>
   </g>
   <g id="line2d_44">
    <path d="M 333.07687 186.092802 
L 335.241265 184.07962 
L 337.791846 182.017041 
L 340.746872 179.919593 
L 344.216723 177.737233 
L 348.234274 175.479632 
L 352.833355 173.151855 
L 355.404354 171.942788 
L 355.404354 171.942788 
" clip-path="url(#p52a3b8cf41)" style="fill: none; stroke: #7f7f7f; stroke-width: 1.5; stroke-linecap: square"/>
   </g>
   <g id="line2d_45">
    <path d="M 326.841022 183.26303 
L 333.668726 176.666854 
L 339.428737 171.396058 
L 344.766158 166.810612 
L 350.356146 162.29867 
L 351.808734 161.169298 
L 351.808734 161.169298 
" clip-path="url(#p52a3b8cf41)" style="fill: none; stroke: #bcbd22; stroke-width: 1.5; stroke-linecap: square"/>
   </g>
   <g id="line2d_46">
    <path d="M 326.35717 187.512702 
L 329.016097 183.495655 
L 331.924556 179.505497 
L 334.981065 175.686142 
L 338.150216 172.076916 
L 341.530864 168.565446 
L 342.550596 167.566173 
L 342.550596 167.566173 
" clip-path="url(#p52a3b8cf41)" style="fill: none; stroke: #17becf; stroke-width: 1.5; stroke-linecap: square"/>
   </g>
   <g id="line2d_47">
    <path d="M 389.381766 264.059107 
L 395.104893 261.266586 
L 401.01332 258.631075 
L 407.416433 256.021559 
L 409.110479 255.368838 
L 409.110479 255.368838 
" clip-path="url(#p52a3b8cf41)" style="fill: none; stroke: #1f77b4; stroke-width: 1.5; stroke-linecap: square"/>
   </g>
   <g id="line2d_48">
    <path d="M 388.76591 263.768926 
L 394.880344 260.89686 
L 401.218143 258.164841 
L 408.080227 255.451069 
L 409.286062 254.997181 
L 409.286062 254.997181 
" clip-path="url(#p52a3b8cf41)" style="fill: none; stroke: #ff7f0e; stroke-width: 1.5; stroke-linecap: square"/>
   </g>
   <g id="line2d_49">
    <path d="M 388.19225 263.387068 
L 395.316136 260.10671 
L 402.535988 257.030191 
L 409.641431 254.222487 
L 409.641431 254.222487 
" clip-path="url(#p52a3b8cf41)" style="fill: none; stroke: #2ca02c; stroke-width: 1.5; stroke-linecap: square"/>
   </g>
   <g id="line2d_50">
    <path d="M 383.98976 261.798966 
L 393.650208 256.414179 
L 402.644422 251.652383 
L 404.325626 250.791263 
L 404.325626 250.791263 
" clip-path="url(#p52a3b8cf41)" style="fill: none; stroke: #d62728; stroke-width: 1.5; stroke-linecap: square"/>
   </g>
   <g id="line2d_51">
    <path d="M 386.241243 263.061801 
L 393.02029 257.792655 
L 400.399774 252.327652 
L 401.53767 251.511724 
L 401.53767 251.511724 
" clip-path="url(#p52a3b8cf41)" style="fill: none; stroke: #9467bd; stroke-width: 1.5; stroke-linecap: square"/>
   </g>
   <g id="line2d_52">
    <path d="M 387.948615 262.289472 
L 395.889909 258.439257 
L 403.874757 254.814791 
L 409.183429 252.536225 
L 409.183429 252.536225 
" clip-path="url(#p52a3b8cf41)" style="fill: none; stroke: #8c564b; stroke-width: 1.5; stroke-linecap: square"/>
   </g>
   <g id="line2d_53">
    <path d="M 388.345376 263.450229 
L 395.210456 260.358418 
L 402.006656 257.542 
L 409.265775 254.777027 
L 409.361028 254.74224 
L 409.361028 254.74224 
" clip-path="url(#p52a3b8cf41)" style="fill: none; stroke: #e377c2; stroke-width: 1.5; stroke-linecap: square"/>
   </g>
   <g id="line2d_54">
    <path d="M 385.027429 264.087331 
L 387.246385 262.063687 
L 390.005874 259.19812 
L 396.625918 252.210003 
L 396.625918 252.210003 
" clip-path="url(#p52a3b8cf41)" style="fill: none; stroke: #7f7f7f; stroke-width: 1.5; stroke-linecap: square"/>
   </g>
   <g id="line2d_55">
    <path d="M 384.949349 266.501429 
L 389.052605 264.380526 
L 393.514313 262.333652 
L 399.030837 260.057268 
L 405.860092 257.48772 
L 406.824882 257.141744 
L 406.824882 257.141744 
" clip-path="url(#p52a3b8cf41)" style="fill: none; stroke: #bcbd22; stroke-width: 1.5; stroke-linecap: square"/>
   </g>
   <g id="line2d_56">
    <path d="M 386.213528 261.869345 
L 395.421433 257.266743 
L 404.188265 253.130143 
L 407.232783 251.751529 
L 407.232783 251.751529 
" clip-path="url(#p52a3b8cf41)" style="fill: none; stroke: #17becf; stroke-width: 1.5; stroke-linecap: square"/>
   </g>
   <g id="line2d_57">
    <path d="M 380.357665 266.845088 
L 386.337099 262.784711 
L 392.346154 258.971173 
L 396.653896 256.395069 
L 396.653896 256.395069 
" clip-path="url(#p52a3b8cf41)" style="fill: none; stroke: #1f77b4; stroke-width: 1.5; stroke-linecap: square"/>
   </g>
   <g id="line2d_58">
    <path d="M 385.815862 264.267675 
L 403.597055 257.957791 
L 413.586777 254.76329 
L 413.586777 254.76329 
" clip-path="url(#p52a3b8cf41)" style="fill: none; stroke: #ff7f0e; stroke-width: 1.5; stroke-linecap: square"/>
   </g>
   <g id="line2d_59">
    <path d="M 383.020964 266.993007 
L 388.153857 263.023042 
L 393.758535 258.970825 
L 397.623504 256.33422 
L 397.623504 256.33422 
" clip-path="url(#p52a3b8cf41)" style="fill: none; stroke: #2ca02c; stroke-width: 1.5; stroke-linecap: square"/>
   </g>
   <g id="line2d_60">
    <path d="M 385.743767 262.110789 
L 395.154392 256.911788 
L 403.756096 252.411756 
L 406.581711 250.989052 
L 406.581711 250.989052 
" clip-path="url(#p52a3b8cf41)" style="fill: none; stroke: #d62728; stroke-width: 1.5; stroke-linecap: square"/>
   </g>
   <g id="line2d_61">
    <path d="M 388.658826 264.760481 
L 393.569621 262.500559 
L 398.896852 260.300599 
L 404.949209 258.050065 
L 408.852914 256.709213 
L 408.852914 256.709213 
" clip-path="url(#p52a3b8cf41)" style="fill: none; stroke: #9467bd; stroke-width: 1.5; stroke-linecap: square"/>
   </g>
   <g id="line2d_62">
    <path d="M 386.383371 266.418879 
L 389.53938 264.744334 
L 393.393028 262.960578 
L 398.025847 261.066166 
L 402.225534 259.521349 
L 402.225534 259.521349 
" clip-path="url(#p52a3b8cf41)" style="fill: none; stroke: #8c564b; stroke-width: 1.5; stroke-linecap: square"/>
   </g>
   <g id="line2d_63">
    <path d="M 383.169144 266.685415 
L 388.660564 262.488817 
L 394.844372 258.041924 
L 397.905773 255.94674 
L 397.905773 255.94674 
" clip-path="url(#p52a3b8cf41)" style="fill: none; stroke: #e377c2; stroke-width: 1.5; stroke-linecap: square"/>
   </g>
   <g id="line2d_64">
    <path d="M 382.81074 265.752242 
L 392.119956 257.934499 
L 397.738715 253.23178 
L 397.738715 253.23178 
" clip-path="url(#p52a3b8cf41)" style="fill: none; stroke: #7f7f7f; stroke-width: 1.5; stroke-linecap: square"/>
   </g>
   <g id="line2d_65">
    <path d="M 332.694283 185.797621 
L 334.887782 183.914892 
L 337.489116 181.986057 
L 340.597603 179.966055 
L 344.338781 177.811519 
L 348.651057 175.588683 
L 353.680232 173.248548 
L 356.125877 172.186616 
L 356.125877 172.186616 
" clip-path="url(#p52a3b8cf41)" style="fill: none; stroke: #bcbd22; stroke-width: 1.5; stroke-linecap: square"/>
   </g>
   <g id="line2d_66">
    <path d="M 327.072369 183.44428 
L 334.38154 176.229853 
L 339.769814 171.214539 
L 345.020391 166.634592 
L 350.510393 162.140028 
L 352.088576 160.896525 
L 352.088576 160.896525 
" clip-path="url(#p52a3b8cf41)" style="fill: none; stroke: #17becf; stroke-width: 1.5; stroke-linecap: square"/>
   </g>
   <g id="line2d_67">
    <path d="M 333.054421 183.155861 
L 336.312758 180.33746 
L 339.885369 177.540449 
L 343.874688 174.697166 
L 348.404831 171.741972 
L 353.623644 168.610145 
L 358.534721 165.866394 
L 358.534721 165.866394 
" clip-path="url(#p52a3b8cf41)" style="fill: none; stroke: #1f77b4; stroke-width: 1.5; stroke-linecap: square"/>
   </g>
   <g id="line2d_68">
    <path d="M 326.25098 186.468307 
L 329.993149 181.009465 
L 333.959419 175.598516 
L 337.50213 171.126449 
L 340.987804 167.077103 
L 343.152183 164.723879 
L 343.152183 164.723879 
" clip-path="url(#p52a3b8cf41)" style="fill: none; stroke: #ff7f0e; stroke-width: 1.5; stroke-linecap: square"/>
   </g>
   <g id="line2d_69">
    <path d="M 325.960588 184.355179 
L 332.915941 175.498965 
L 337.095346 170.534903 
L 341.142668 166.068963 
L 345.386976 161.715603 
L 345.974814 161.13628 
L 345.974814 161.13628 
" clip-path="url(#p52a3b8cf41)" style="fill: none; stroke: #2ca02c; stroke-width: 1.5; stroke-linecap: square"/>
   </g>
   <g id="line2d_70">
    <path d="M 329.723527 182.181661 
L 333.600487 178.498918 
L 337.783704 174.832121 
L 342.387265 171.098129 
L 347.42941 167.298749 
L 353.043544 163.349685 
L 355.158265 161.925376 
L 355.158265 161.925376 
" clip-path="url(#p52a3b8cf41)" style="fill: none; stroke: #d62728; stroke-width: 1.5; stroke-linecap: square"/>
   </g>
   <g id="line2d_71">
    <path d="M 332.913588 186.202513 
L 334.669097 184.181993 
L 336.644384 182.244943 
L 338.979928 180.27217 
L 341.690342 178.278774 
L 344.877331 176.215021 
L 348.668477 174.035536 
L 352.803 171.902804 
L 352.803 171.902804 
" clip-path="url(#p52a3b8cf41)" style="fill: none; stroke: #9467bd; stroke-width: 1.5; stroke-linecap: square"/>
   </g>
   <g id="line2d_72">
    <path d="M 326.693515 184.214169 
L 334.723923 174.174722 
L 338.802089 169.479956 
L 342.98632 164.999953 
L 347.459618 160.535512 
L 348.092049 159.927865 
L 348.092049 159.927865 
" clip-path="url(#p52a3b8cf41)" style="fill: none; stroke: #8c564b; stroke-width: 1.5; stroke-linecap: square"/>
   </g>
   <g id="line2d_73">
    <path d="M 326.241725 184.305683 
L 332.960819 176.74798 
L 338.430172 170.742865 
L 343.017291 166.038308 
L 347.808028 161.440393 
L 349.248304 160.113744 
L 349.248304 160.113744 
" clip-path="url(#p52a3b8cf41)" style="fill: none; stroke: #e377c2; stroke-width: 1.5; stroke-linecap: square"/>
   </g>
   <g id="line2d_74">
    <path d="M 325.272983 185.650124 
L 329.209658 179.888433 
L 332.609513 175.300351 
L 335.888679 171.249194 
L 339.25803 167.435664 
L 342.617791 163.930415 
L 342.617791 163.930415 
" clip-path="url(#p52a3b8cf41)" style="fill: none; stroke: #7f7f7f; stroke-width: 1.5; stroke-linecap: square"/>
   </g>
   <g id="line2d_75">
    <path d="M 326.828439 183.547182 
L 337.100973 173.681455 
L 342.173946 169.166978 
L 347.36817 164.840155 
L 351.90236 161.273618 
L 351.90236 161.273618 
" clip-path="url(#p52a3b8cf41)" style="fill: none; stroke: #bcbd22; stroke-width: 1.5; stroke-linecap: square"/>
   </g>
   <g id="line2d_76">
    <path d="M 326.737321 184.126717 
L 332.201601 178.241963 
L 338.02089 172.071863 
L 342.830492 167.309028 
L 347.850994 162.656071 
L 351.250078 159.664079 
L 351.250078 159.664079 
" clip-path="url(#p52a3b8cf41)" style="fill: none; stroke: #17becf; stroke-width: 1.5; stroke-linecap: square"/>
   </g>
   <g id="line2d_77">
    <path d="M 326.178949 183.585745 
L 334.492582 174.918584 
L 339.575073 169.946418 
L 344.497158 165.439321 
L 349.746591 160.933961 
L 349.861828 160.838156 
L 349.861828 160.838156 
" clip-path="url(#p52a3b8cf41)" style="fill: none; stroke: #1f77b4; stroke-width: 1.5; stroke-linecap: square"/>
   </g>
   <g id="line2d_78">
    <path d="M 383.902601 264.555852 
L 386.544443 263.332897 
L 390.223485 261.321473 
L 395.966333 258.250255 
L 398.46606 257.011937 
L 398.46606 257.011937 
" clip-path="url(#p52a3b8cf41)" style="fill: none; stroke: #ff7f0e; stroke-width: 1.5; stroke-linecap: square"/>
   </g>
   <g id="line2d_79">
    <path d="M 329.208058 185.226647 
L 335.898071 177.371389 
L 351.005008 159.900669 
L 368.279231 140.27894 
L 389.326744 116.72587 
L 417.36905 85.699602 
L 421.740671 80.885848 
L 421.740671 80.885848 
" clip-path="url(#p52a3b8cf41)" style="fill: none; stroke: #2ca02c; stroke-width: 1.5; stroke-linecap: square"/>
   </g>
   <g id="line2d_80">
    <path d="M 385.303847 264.981688 
L 389.446284 246.938223 
L 393.166695 231.713471 
L 396.833042 217.634013 
L 397.502397 215.15938 
L 397.502397 215.15938 
" clip-path="url(#p52a3b8cf41)" style="fill: none; stroke: #d62728; stroke-width: 1.5; stroke-linecap: square"/>
   </g>
   <g id="line2d_81">
    <path d="M 382.793385 266.120266 
L 391.837132 258.618596 
L 396.849221 254.658991 
L 396.849221 254.658991 
" clip-path="url(#p52a3b8cf41)" style="fill: none; stroke: #9467bd; stroke-width: 1.5; stroke-linecap: square"/>
   </g>
   <g id="line2d_82">
    <path d="M 326.227517 185.666274 
L 333.745308 173.054546 
L 336.558794 168.930302 
L 339.549898 164.947157 
L 341.530437 162.501168 
L 341.530437 162.501168 
" clip-path="url(#p52a3b8cf41)" style="fill: none; stroke: #8c564b; stroke-width: 1.5; stroke-linecap: square"/>
   </g>
   <g id="line2d_83">
    <path d="M 386.662394 266.741391 
L 391.32316 264.425968 
L 396.784271 261.968822 
L 403.182483 259.340435 
L 408.430708 257.337243 
L 408.430708 257.337243 
" clip-path="url(#p52a3b8cf41)" style="fill: none; stroke: #e377c2; stroke-width: 1.5; stroke-linecap: square"/>
   </g>
   <g id="line2d_84">
    <path d="M 389.268568 265.262048 
L 394.148994 262.990426 
L 399.466243 260.76306 
L 405.373074 258.531404 
L 408.767228 257.343777 
L 408.767228 257.343777 
" clip-path="url(#p52a3b8cf41)" style="fill: none; stroke: #7f7f7f; stroke-width: 1.5; stroke-linecap: square"/>
   </g>
   <g id="line2d_85">
    <path d="M 329.210133 185.218791 
L 330.889936 176.93529 
L 334.09819 161.992801 
L 337.348868 147.914303 
L 340.926626 133.430044 
L 344.944873 118.098471 
L 349.867527 100.22877 
L 353.909413 86.051257 
L 353.909413 86.051257 
" clip-path="url(#p52a3b8cf41)" style="fill: none; stroke: #bcbd22; stroke-width: 1.5; stroke-linecap: square"/>
   </g>
   <g id="line2d_86">
    <path d="M 325.94182 184.626134 
L 331.473883 177.478528 
L 335.6607 172.422862 
L 339.631459 167.972156 
L 343.794777 163.639609 
L 346.033974 161.432732 
L 346.033974 161.432732 
" clip-path="url(#p52a3b8cf41)" style="fill: none; stroke: #17becf; stroke-width: 1.5; stroke-linecap: square"/>
   </g>
   <g id="line2d_87">
    <path d="M 389.10681 263.887536 
L 395.189302 261.068422 
L 401.638211 258.32847 
L 408.599959 255.617853 
L 409.712997 255.20534 
L 409.712997 255.20534 
" clip-path="url(#p52a3b8cf41)" style="fill: none; stroke: #1f77b4; stroke-width: 1.5; stroke-linecap: square"/>
   </g>
   <g id="line2d_88">
    <path d="M 385.292131 264.974081 
L 383.344469 261.305371 
L 373.057103 241.788449 
L 365.341264 226.684613 
L 364.689354 225.382679 
L 364.689354 225.382679 
" clip-path="url(#p52a3b8cf41)" style="fill: none; stroke: #ff7f0e; stroke-width: 1.5; stroke-linecap: square"/>
   </g>
   <g id="line2d_89">
    <path d="M 326.485467 184.917242 
L 331.920488 178.241554 
L 337.903687 170.923212 
L 342.100745 166.15778 
L 346.500799 161.504252 
L 347.621755 160.368567 
L 347.621755 160.368567 
" clip-path="url(#p52a3b8cf41)" style="fill: none; stroke: #2ca02c; stroke-width: 1.5; stroke-linecap: square"/>
   </g>
   <g id="line2d_90">
    <path d="M 326.34061 186.088818 
L 335.254217 171.987861 
L 338.235206 167.849064 
L 341.32022 163.941147 
L 341.936079 163.201004 
L 341.936079 163.201004 
" clip-path="url(#p52a3b8cf41)" style="fill: none; stroke: #d62728; stroke-width: 1.5; stroke-linecap: square"/>
   </g>
   <g id="line2d_91">
    <path d="M 0 0 
" clip-path="url(#p52a3b8cf41)" style="fill: none; stroke: #9467bd; stroke-width: 1.5; stroke-linecap: square"/>
   </g>
   <g id="line2d_92">
    <path d="M 385.260561 264.988671 
L 349.636317 276.862153 
L 341.936561 279.592208 
L 341.936561 279.592208 
" clip-path="url(#p52a3b8cf41)" style="fill: none; stroke: #8c564b; stroke-width: 1.5; stroke-linecap: square"/>
   </g>
   <g id="line2d_93">
    <path d="M 331.634151 186.350342 
L 332.918345 184.490018 
L 334.451049 182.671538 
L 336.339929 180.78234 
L 338.66425 178.778061 
L 341.460648 176.668213 
L 344.699418 174.508328 
L 348.337628 172.344248 
L 348.337628 172.344248 
" clip-path="url(#p52a3b8cf41)" style="fill: none; stroke: #e377c2; stroke-width: 1.5; stroke-linecap: square"/>
   </g>
   <g id="line2d_94">
    <path d="M 383.370341 264.600195 
L 387.574733 262.422768 
L 395.647537 258.192933 
L 397.961424 257.077325 
L 397.961424 257.077325 
" clip-path="url(#p52a3b8cf41)" style="fill: none; stroke: #7f7f7f; stroke-width: 1.5; stroke-linecap: square"/>
   </g>
   <g id="line2d_95">
    <path d="M 387.998281 265.7456 
L 391.808971 263.920345 
L 396.070658 262.132574 
L 401.074041 260.283877 
L 406.255631 258.57643 
L 406.255631 258.57643 
" clip-path="url(#p52a3b8cf41)" style="fill: none; stroke: #bcbd22; stroke-width: 1.5; stroke-linecap: square"/>
   </g>
   <g id="line2d_96">
    <path d="M 0 0 
" clip-path="url(#p52a3b8cf41)" style="fill: none; stroke: #17becf; stroke-width: 1.5; stroke-linecap: square"/>
   </g>
   <g id="line2d_97">
    <path d="M 382.064772 265.083463 
L 399.576048 252.601427 
L 399.576048 252.601427 
" clip-path="url(#p52a3b8cf41)" style="fill: none; stroke: #1f77b4; stroke-width: 1.5; stroke-linecap: square"/>
   </g>
   <g id="line2d_98">
    <path d="M 384.119763 264.725326 
L 385.971293 262.879382 
L 389.712597 258.730705 
L 396.075661 251.758341 
L 398.614495 249.102436 
L 398.614495 249.102436 
" clip-path="url(#p52a3b8cf41)" style="fill: none; stroke: #ff7f0e; stroke-width: 1.5; stroke-linecap: square"/>
   </g>
   <g id="line2d_99">
    <path d="M 0 0 
" clip-path="url(#p52a3b8cf41)" style="fill: none; stroke: #2ca02c; stroke-width: 1.5; stroke-linecap: square"/>
   </g>
   <g id="line2d_100">
    <path d="M 0 0 
" clip-path="url(#p52a3b8cf41)" style="fill: none; stroke: #d62728; stroke-width: 1.5; stroke-linecap: square"/>
   </g>
   <g id="line2d_101">
    <path d="M 332.555223 183.475461 
L 335.442117 180.902924 
L 338.666034 178.333664 
L 342.234671 175.777589 
L 346.355552 173.106477 
L 351.046823 170.333017 
L 356.576099 167.329035 
L 357.750407 166.720302 
L 357.750407 166.720302 
" clip-path="url(#p52a3b8cf41)" style="fill: none; stroke: #9467bd; stroke-width: 1.5; stroke-linecap: square"/>
   </g>
   <g id="line2d_102">
    <path d="M 329.421028 185.097173 
L 329.730781 183.833071 
L 332.376983 173.896644 
L 334.332762 167.519308 
L 336.449191 161.356508 
L 338.78607 155.223759 
L 341.422268 148.936409 
L 344.043153 143.181208 
L 344.043153 143.181208 
" clip-path="url(#p52a3b8cf41)" style="fill: none; stroke: #8c564b; stroke-width: 1.5; stroke-linecap: square"/>
   </g>
   <g id="line2d_103">
    <path d="M 385.332566 264.992348 
L 387.505208 263.245168 
L 402.853 251.131501 
L 418.045076 239.425144 
L 430.551313 229.992107 
L 430.551313 229.992107 
" clip-path="url(#p52a3b8cf41)" style="fill: none; stroke: #e377c2; stroke-width: 1.5; stroke-linecap: square"/>
   </g>
   <g id="line2d_104">
    <path d="M 329.39592 188.364865 
L 331.338133 185.631236 
L 333.502227 182.96157 
L 335.963133 180.282492 
L 338.675669 177.660396 
L 341.7331 175.021236 
L 345.086439 172.422122 
L 345.750716 171.937538 
L 345.750716 171.937538 
" clip-path="url(#p52a3b8cf41)" style="fill: none; stroke: #7f7f7f; stroke-width: 1.5; stroke-linecap: square"/>
   </g>
   <g id="line2d_105">
    <path d="M 328.35048 186.888717 
L 331.700905 183.924372 
L 335.135966 181.180525 
L 338.869399 178.487516 
L 342.928113 175.83404 
L 347.561415 173.075011 
L 352.817456 170.210288 
L 353.556165 169.826185 
L 353.556165 169.826185 
" clip-path="url(#p52a3b8cf41)" style="fill: none; stroke: #bcbd22; stroke-width: 1.5; stroke-linecap: square"/>
   </g>
   <g id="line2d_106">
    <path d="M 267.242875 108.951241 
L 263.738059 107.089177 
L 260.416947 105.070178 
L 257.261295 102.889337 
L 254.128084 100.444246 
L 251.010856 97.716524 
L 247.898782 94.691779 
L 244.668293 91.23752 
L 241.205361 87.198302 
L 238.239282 83.486055 
L 238.239282 83.486055 
" clip-path="url(#p52a3b8cf41)" style="fill: none; stroke: #17becf; stroke-width: 1.5; stroke-linecap: square"/>
   </g>
   <g id="line2d_107">
    <path d="M 333.253074 183.888092 
L 336.003676 181.434054 
L 339.064701 179.007208 
L 342.530606 176.549344 
L 346.514064 174.004721 
L 351.149987 171.318561 
L 356.473529 168.500024 
L 357.72967 167.86789 
L 357.72967 167.86789 
" clip-path="url(#p52a3b8cf41)" style="fill: none; stroke: #1f77b4; stroke-width: 1.5; stroke-linecap: square"/>
   </g>
   <g id="line2d_108">
    <path d="M 0 0 
" clip-path="url(#p52a3b8cf41)" style="fill: none; stroke: #ff7f0e; stroke-width: 1.5; stroke-linecap: square"/>
   </g>
   <g id="line2d_109">
    <path d="M 0 0 
" clip-path="url(#p52a3b8cf41)" style="fill: none; stroke: #2ca02c; stroke-width: 1.5; stroke-linecap: square"/>
   </g>
   <g id="line2d_110">
    <path d="M 0 0 
" clip-path="url(#p52a3b8cf41)" style="fill: none; stroke: #d62728; stroke-width: 1.5; stroke-linecap: square"/>
   </g>
   <g id="line2d_111">
    <path d="M 0 0 
" clip-path="url(#p52a3b8cf41)" style="fill: none; stroke: #9467bd; stroke-width: 1.5; stroke-linecap: square"/>
   </g>
   <g id="line2d_112">
    <path d="M 264.227741 185.919304 
L 268.984125 184.341534 
L 273.936241 182.933225 
L 279.469632 181.596244 
L 285.635935 180.344728 
L 292.482869 179.185977 
L 300.480874 178.066002 
L 309.716102 177.003123 
L 311.29304 176.841103 
L 311.29304 176.841103 
" clip-path="url(#p52a3b8cf41)" style="fill: none; stroke: #8c564b; stroke-width: 1.5; stroke-linecap: square"/>
   </g>
   <g id="line2d_113">
    <path d="M 326.204309 185.03453 
L 330.418739 180.471715 
L 343.655546 165.664334 
L 348.108277 161.243133 
L 348.108277 161.243133 
" clip-path="url(#p52a3b8cf41)" style="fill: none; stroke: #e377c2; stroke-width: 1.5; stroke-linecap: square"/>
   </g>
   <g id="line2d_114">
    <path d="M 162.435167 184.816421 
L 165.254353 187.323221 
L 167.895761 189.969481 
L 170.45564 192.852051 
L 172.936832 195.984608 
L 175.416101 199.483911 
L 177.890178 203.373824 
L 180.36044 207.675054 
L 180.864465 208.6049 
L 180.864465 208.6049 
" clip-path="url(#p52a3b8cf41)" style="fill: none; stroke: #7f7f7f; stroke-width: 1.5; stroke-linecap: square"/>
   </g>
   <g id="line2d_115">
    <path d="M 180.23853 144.90131 
L 180.724707 147.199446 
L 180.907662 149.193921 
L 180.878126 151.219475 
L 180.620047 153.458343 
L 180.101411 155.929624 
L 179.299895 158.652721 
L 178.127388 161.835527 
L 176.450331 165.707948 
L 174.204823 170.319345 
L 171.005934 176.344929 
L 166.621244 184.096545 
L 162.180657 191.638631 
L 162.180657 191.638631 
" clip-path="url(#p52a3b8cf41)" style="fill: none; stroke: #bcbd22; stroke-width: 1.5; stroke-linecap: square"/>
   </g>
   <g id="line2d_116">
    <path d="M 0 0 
" clip-path="url(#p52a3b8cf41)" style="fill: none; stroke: #17becf; stroke-width: 1.5; stroke-linecap: square"/>
   </g>
   <g id="line2d_117">
    <path d="M 0 0 
" clip-path="url(#p52a3b8cf41)" style="fill: none; stroke: #1f77b4; stroke-width: 1.5; stroke-linecap: square"/>
   </g>
   <g id="line2d_118">
    <path d="M 329.042675 186.64212 
L 331.454778 184.911596 
L 334.306993 183.15478 
L 337.882931 181.227854 
L 342.37332 179.073838 
L 347.737339 176.755516 
L 354.045777 174.277136 
L 357.732274 172.923436 
L 357.732274 172.923436 
" clip-path="url(#p52a3b8cf41)" style="fill: none; stroke: #ff7f0e; stroke-width: 1.5; stroke-linecap: square"/>
   </g>
   <g id="line2d_119">
    <path d="M 385.242593 265.018943 
L 385.881911 265.271799 
L 395.284689 269.684386 
L 416.94577 280.01428 
L 416.94577 280.01428 
" clip-path="url(#p52a3b8cf41)" style="fill: none; stroke: #2ca02c; stroke-width: 1.5; stroke-linecap: square"/>
   </g>
   <g id="line2d_120">
    <path d="M 246.228188 146.078341 
L 246.677658 144.645275 
L 247.433076 143.019794 
L 248.43448 141.392105 
L 249.828297 139.542108 
L 251.862984 137.236904 
L 254.64821 134.437044 
L 258.759028 130.650441 
L 264.907624 125.328548 
L 274.173157 117.630927 
L 289.276351 105.398741 
L 309.238174 89.449803 
L 309.238174 89.449803 
" clip-path="url(#p52a3b8cf41)" style="fill: none; stroke: #d62728; stroke-width: 1.5; stroke-linecap: square"/>
   </g>
   <g id="line2d_121">
    <path d="M 381.981047 265.312133 
L 398.058632 252.960174 
L 398.058632 252.960174 
" clip-path="url(#p52a3b8cf41)" style="fill: none; stroke: #9467bd; stroke-width: 1.5; stroke-linecap: square"/>
   </g>
   <g id="line2d_122">
    <path d="M 325.305447 186.049933 
L 329.791079 180.100893 
L 334.320011 174.443581 
L 338.313343 169.798549 
L 342.324307 165.476022 
L 343.811923 163.954445 
L 343.811923 163.954445 
" clip-path="url(#p52a3b8cf41)" style="fill: none; stroke: #8c564b; stroke-width: 1.5; stroke-linecap: square"/>
   </g>
   <g id="line2d_123">
    <path d="M 329.640245 183.843109 
L 333.076301 177.283875 
L 335.861075 172.378626 
L 338.55133 168.087609 
L 341.428604 163.922175 
L 344.563481 159.782413 
L 344.563481 159.782413 
" clip-path="url(#p52a3b8cf41)" style="fill: none; stroke: #e377c2; stroke-width: 1.5; stroke-linecap: square"/>
   </g>
   <g id="line2d_124">
    <path d="M 385.323129 264.993795 
L 388.255191 262.882387 
L 405.855953 250.419152 
L 423.680577 238.072395 
L 433 231.721632 
L 433 231.721632 
" clip-path="url(#p52a3b8cf41)" style="fill: none; stroke: #7f7f7f; stroke-width: 1.5; stroke-linecap: square"/>
   </g>
   <g id="line2d_125">
    <path d="M 385.269458 264.979684 
L 377.926835 262.735782 
L 350.000739 254.372096 
L 330.837299 248.800234 
L 330.837299 248.800234 
" clip-path="url(#p52a3b8cf41)" style="fill: none; stroke: #bcbd22; stroke-width: 1.5; stroke-linecap: square"/>
   </g>
   <g id="line2d_126">
    <path d="M 328.839146 182.140191 
L 333.435585 177.985299 
L 338.212665 173.968552 
L 343.257827 170.018779 
L 348.788134 165.977325 
L 354.940059 161.765631 
L 355.069542 161.679717 
L 355.069542 161.679717 
" clip-path="url(#p52a3b8cf41)" style="fill: none; stroke: #17becf; stroke-width: 1.5; stroke-linecap: square"/>
   </g>
   <g id="line2d_127">
    <path d="M 387.178168 265.368115 
L 390.283535 262.904823 
L 394.516413 259.857463 
L 400.851537 255.585155 
L 406.255775 252.109276 
L 406.255775 252.109276 
" clip-path="url(#p52a3b8cf41)" style="fill: none; stroke: #1f77b4; stroke-width: 1.5; stroke-linecap: square"/>
   </g>
   <g id="line2d_128">
    <path d="M 328.795855 186.546611 
L 331.192432 184.795486 
L 333.795654 183.172599 
L 337.090687 181.388783 
L 341.268058 179.387976 
L 346.413188 177.178914 
L 352.482752 174.820852 
L 357.199867 173.125388 
L 357.199867 173.125388 
" clip-path="url(#p52a3b8cf41)" style="fill: none; stroke: #ff7f0e; stroke-width: 1.5; stroke-linecap: square"/>
   </g>
   <g id="line2d_129">
    <path d="M 330.874107 183.436391 
L 334.822255 180.337399 
L 338.868392 177.444412 
L 343.385138 174.492495 
L 348.487314 171.427767 
L 354.315875 168.188717 
L 358.527373 165.982562 
L 358.527373 165.982562 
" clip-path="url(#p52a3b8cf41)" style="fill: none; stroke: #2ca02c; stroke-width: 1.5; stroke-linecap: square"/>
   </g>
   <g id="line2d_130">
    <path d="M 330.396671 182.088908 
L 334.462858 178.436312 
L 338.77726 174.856589 
L 343.542421 171.194397 
L 348.770697 167.45847 
L 354.721138 163.487979 
L 356.655596 162.250214 
L 356.655596 162.250214 
" clip-path="url(#p52a3b8cf41)" style="fill: none; stroke: #d62728; stroke-width: 1.5; stroke-linecap: square"/>
   </g>
   <g id="line2d_131">
    <path d="M 149.434374 134.601374 
L 148.105758 137.069362 
L 146.464664 139.623149 
L 144.486861 142.270293 
L 142.152809 145.019693 
L 139.342818 147.987189 
L 135.901698 151.291737 
L 131.767837 154.949886 
L 126.617607 159.199445 
L 125.37333 160.188938 
L 125.37333 160.188938 
" clip-path="url(#p52a3b8cf41)" style="fill: none; stroke: #9467bd; stroke-width: 1.5; stroke-linecap: square"/>
   </g>
   <g id="line2d_132">
    <path d="M 328.85547 186.833196 
L 330.542573 183.408025 
L 332.838173 179.251299 
L 334.963837 175.849797 
L 337.146347 172.781858 
L 339.497235 169.866479 
L 340.728516 168.469004 
L 340.728516 168.469004 
" clip-path="url(#p52a3b8cf41)" style="fill: none; stroke: #8c564b; stroke-width: 1.5; stroke-linecap: square"/>
   </g>
   <g id="line2d_133">
    <path d="M 327.147377 183.631553 
L 339.823045 170.65712 
L 344.729035 166.102169 
L 349.96164 161.552835 
L 351.498493 160.268993 
L 351.498493 160.268993 
" clip-path="url(#p52a3b8cf41)" style="fill: none; stroke: #e377c2; stroke-width: 1.5; stroke-linecap: square"/>
   </g>
   <g id="line2d_134">
    <path d="M 326.31112 185.054403 
L 331.888407 178.454986 
L 337.576605 171.791985 
L 341.848764 167.144016 
L 346.321033 162.613721 
L 347.982711 161.007461 
L 347.982711 161.007461 
" clip-path="url(#p52a3b8cf41)" style="fill: none; stroke: #7f7f7f; stroke-width: 1.5; stroke-linecap: square"/>
   </g>
   <g id="line2d_135">
    <path d="M 384.092207 263.381344 
L 394.368669 257.451042 
L 404.40366 251.77931 
L 405.724432 251.055582 
L 405.724432 251.055582 
" clip-path="url(#p52a3b8cf41)" style="fill: none; stroke: #bcbd22; stroke-width: 1.5; stroke-linecap: square"/>
   </g>
   <g id="line2d_136">
    <path d="M 383.171902 267.27641 
L 388.185858 263.508238 
L 393.654456 259.680485 
L 398.392044 256.570299 
L 398.392044 256.570299 
" clip-path="url(#p52a3b8cf41)" style="fill: none; stroke: #17becf; stroke-width: 1.5; stroke-linecap: square"/>
   </g>
   <g id="line2d_137">
    <path d="M 0 0 
" clip-path="url(#p52a3b8cf41)" style="fill: none; stroke: #1f77b4; stroke-width: 1.5; stroke-linecap: square"/>
   </g>
   <g id="line2d_138">
    <path d="M 388.956002 265.404595 
L 393.20284 263.308441 
L 397.791786 261.295493 
L 402.9358 259.289797 
L 407.28962 257.754717 
L 407.28962 257.754717 
" clip-path="url(#p52a3b8cf41)" style="fill: none; stroke: #ff7f0e; stroke-width: 1.5; stroke-linecap: square"/>
   </g>
   <g id="line2d_139">
    <path d="M 0 0 
" clip-path="url(#p52a3b8cf41)" style="fill: none; stroke: #2ca02c; stroke-width: 1.5; stroke-linecap: square"/>
   </g>
   <g id="line2d_140">
    <path d="M 0 0 
" clip-path="url(#p52a3b8cf41)" style="fill: none; stroke: #d62728; stroke-width: 1.5; stroke-linecap: square"/>
   </g>
   <g id="line2d_141">
    <path d="M 329.063985 185.146977 
L 328.729433 184.931786 
L 326.065658 183.715081 
L 303.717851 173.761386 
L 303.717851 173.761386 
" clip-path="url(#p52a3b8cf41)" style="fill: none; stroke: #9467bd; stroke-width: 1.5; stroke-linecap: square"/>
   </g>
   <g id="line2d_142">
    <path d="M 387.405829 268.040335 
L 391.8117 265.201405 
L 396.445449 262.482541 
L 401.374071 259.848228 
L 403.82272 258.625604 
L 403.82272 258.625604 
" clip-path="url(#p52a3b8cf41)" style="fill: none; stroke: #8c564b; stroke-width: 1.5; stroke-linecap: square"/>
   </g>
   <g id="line2d_143">
    <path d="M 382.406679 262.260992 
L 392.978133 256.010844 
L 402.120394 250.846464 
L 402.120394 250.846464 
" clip-path="url(#p52a3b8cf41)" style="fill: none; stroke: #e377c2; stroke-width: 1.5; stroke-linecap: square"/>
   </g>
   <g id="line2d_144">
    <path d="M 387.724588 263.130442 
L 395.735569 259.320559 
L 403.496203 255.877049 
L 409.563667 253.344834 
L 409.563667 253.344834 
" clip-path="url(#p52a3b8cf41)" style="fill: none; stroke: #7f7f7f; stroke-width: 1.5; stroke-linecap: square"/>
   </g>
   <g id="line2d_145">
    <path d="M 386.905289 266.778508 
L 390.265991 264.81354 
L 394.154312 262.801463 
L 398.709826 260.700774 
L 402.897981 258.953213 
L 402.897981 258.953213 
" clip-path="url(#p52a3b8cf41)" style="fill: none; stroke: #bcbd22; stroke-width: 1.5; stroke-linecap: square"/>
   </g>
   <g id="line2d_146">
    <path d="M 383.208053 262.882029 
L 400.232597 252.42251 
L 403.155957 250.698904 
L 403.155957 250.698904 
" clip-path="url(#p52a3b8cf41)" style="fill: none; stroke: #17becf; stroke-width: 1.5; stroke-linecap: square"/>
   </g>
   <g id="line2d_147">
    <path d="M 0 0 
" clip-path="url(#p52a3b8cf41)" style="fill: none; stroke: #1f77b4; stroke-width: 1.5; stroke-linecap: square"/>
   </g>
   <g id="line2d_148">
    <path d="M 327.189429 183.302871 
L 333.839079 176.07007 
L 338.557581 171.271604 
L 343.315058 166.755348 
L 348.39852 162.243769 
L 351.060872 159.991101 
L 351.060872 159.991101 
" clip-path="url(#p52a3b8cf41)" style="fill: none; stroke: #ff7f0e; stroke-width: 1.5; stroke-linecap: square"/>
   </g>
   <g id="line2d_149">
    <path d="M 383.909676 266.25168 
L 389.579653 261.316583 
L 394.988378 256.866615 
L 396.396212 255.764414 
L 396.396212 255.764414 
" clip-path="url(#p52a3b8cf41)" style="fill: none; stroke: #2ca02c; stroke-width: 1.5; stroke-linecap: square"/>
   </g>
   <g id="line2d_150">
    <path d="M 332.885926 186.906563 
L 335.095219 184.594512 
L 337.595145 182.310025 
L 340.472312 179.993719 
L 343.747511 177.65275 
L 347.441352 175.290029 
L 351.676444 172.84964 
L 353.21528 172.019605 
L 353.21528 172.019605 
" clip-path="url(#p52a3b8cf41)" style="fill: none; stroke: #d62728; stroke-width: 1.5; stroke-linecap: square"/>
   </g>
   <g id="line2d_151">
    <path d="M 385.302321 265.027191 
L 386.761038 264.927282 
L 406.858614 264.011744 
L 433 262.998729 
L 433 262.998729 
" clip-path="url(#p52a3b8cf41)" style="fill: none; stroke: #9467bd; stroke-width: 1.5; stroke-linecap: square"/>
   </g>
   <g id="line2d_152">
    <path d="M 327.559058 187.044865 
L 329.922347 182.857423 
L 332.616751 178.52843 
L 335.144115 174.874198 
L 337.69598 171.565558 
L 340.402263 168.413785 
L 341.011813 167.747303 
L 341.011813 167.747303 
" clip-path="url(#p52a3b8cf41)" style="fill: none; stroke: #8c564b; stroke-width: 1.5; stroke-linecap: square"/>
   </g>
   <g id="line2d_153">
    <path d="M 329.695871 183.407966 
L 335.463416 178.761413 
L 340.483694 175.013435 
L 345.903834 171.251398 
L 351.944749 167.331367 
L 358.900617 163.090791 
L 359.484531 162.745848 
L 359.484531 162.745848 
" clip-path="url(#p52a3b8cf41)" style="fill: none; stroke: #e377c2; stroke-width: 1.5; stroke-linecap: square"/>
   </g>
   <g id="line2d_154">
    <path d="M 327.189908 187.127392 
L 329.508517 182.901027 
L 331.928346 178.940637 
L 334.263208 175.539288 
L 336.687886 172.396757 
L 339.334336 169.337681 
L 340.201337 168.405563 
L 340.201337 168.405563 
" clip-path="url(#p52a3b8cf41)" style="fill: none; stroke: #7f7f7f; stroke-width: 1.5; stroke-linecap: square"/>
   </g>
   <g id="line2d_155">
    <path d="M 330.49579 185.98869 
L 332.35125 184.112202 
L 334.760364 182.014502 
L 338.134501 179.393393 
L 342.679749 176.156534 
L 348.340726 172.408681 
L 354.89341 168.342263 
L 362.379097 163.960011 
L 362.379097 163.960011 
" clip-path="url(#p52a3b8cf41)" style="fill: none; stroke: #bcbd22; stroke-width: 1.5; stroke-linecap: square"/>
   </g>
   <g id="line2d_156">
    <path d="M 0 0 
" clip-path="url(#p52a3b8cf41)" style="fill: none; stroke: #17becf; stroke-width: 1.5; stroke-linecap: square"/>
   </g>
   <g id="line2d_157">
    <path d="M 0 0 
" clip-path="url(#p52a3b8cf41)" style="fill: none; stroke: #1f77b4; stroke-width: 1.5; stroke-linecap: square"/>
   </g>
   <g id="line2d_158">
    <path d="M 148.355975 135.183402 
L 147.941648 137.920646 
L 147.298941 140.641235 
L 146.428602 143.353699 
L 145.279979 146.189773 
L 143.830403 149.158802 
L 142.061877 152.271152 
L 139.875782 155.663888 
L 137.139587 159.480452 
L 133.795839 163.74299 
L 132.610894 165.179615 
L 132.610894 165.179615 
" clip-path="url(#p52a3b8cf41)" style="fill: none; stroke: #ff7f0e; stroke-width: 1.5; stroke-linecap: square"/>
   </g>
   <g id="line2d_159">
    <path d="M 385.08104 265.076641 
L 385.916164 265.023074 
L 388.500942 265.219986 
L 395.965634 266.03929 
L 406.656701 267.438111 
L 407.133522 267.505181 
L 407.133522 267.505181 
" clip-path="url(#p52a3b8cf41)" style="fill: none; stroke: #2ca02c; stroke-width: 1.5; stroke-linecap: square"/>
   </g>
   <g id="line2d_160">
    <path d="M 388.729372 265.228035 
L 393.602983 262.904974 
L 398.987969 260.590661 
L 404.959084 258.271081 
L 408.164254 257.113785 
L 408.164254 257.113785 
" clip-path="url(#p52a3b8cf41)" style="fill: none; stroke: #d62728; stroke-width: 1.5; stroke-linecap: square"/>
   </g>
   <g id="line2d_161">
    <path d="M 384.683942 265.006442 
L 388.658941 263.903945 
L 392.668165 263.118518 
L 397.357621 262.422257 
L 397.357621 262.422257 
" clip-path="url(#p52a3b8cf41)" style="fill: none; stroke: #9467bd; stroke-width: 1.5; stroke-linecap: square"/>
   </g>
   <g id="line2d_162">
    <path d="M 385.92186 264.046652 
L 401.017159 251.897359 
L 401.017159 251.897359 
" clip-path="url(#p52a3b8cf41)" style="fill: none; stroke: #8c564b; stroke-width: 1.5; stroke-linecap: square"/>
   </g>
   <g id="line2d_163">
    <path d="M 208.083441 194.257619 
L 212.95029 194.507244 
L 217.780407 194.979558 
L 222.59483 195.674568 
L 227.580539 196.623059 
L 232.759614 197.83837 
L 238.324214 199.378727 
L 244.303005 201.267839 
L 248.281961 202.639987 
L 248.281961 202.639987 
" clip-path="url(#p52a3b8cf41)" style="fill: none; stroke: #e377c2; stroke-width: 1.5; stroke-linecap: square"/>
   </g>
   <g id="line2d_164">
    <path d="M 329.249864 185.252547 
L 330.934055 184.328114 
L 346.054361 176.423429 
L 364.768826 166.892325 
L 387.175604 155.739348 
L 414.888706 142.202233 
L 417.950689 140.719113 
L 417.950689 140.719113 
" clip-path="url(#p52a3b8cf41)" style="fill: none; stroke: #7f7f7f; stroke-width: 1.5; stroke-linecap: square"/>
   </g>
   <g id="line2d_165">
    <path d="M 327.379088 183.293239 
L 333.468952 176.956094 
L 338.089757 172.470485 
L 342.830448 168.179902 
L 347.885715 163.905124 
L 352.030487 160.592189 
L 352.030487 160.592189 
" clip-path="url(#p52a3b8cf41)" style="fill: none; stroke: #bcbd22; stroke-width: 1.5; stroke-linecap: square"/>
   </g>
   <g id="line2d_166">
    <path d="M 327.936245 187.801972 
L 329.915898 184.640174 
L 332.086184 181.588514 
L 334.468802 178.620904 
L 337.032203 175.782224 
L 339.865203 172.982634 
L 342.470979 170.655701 
L 342.470979 170.655701 
" clip-path="url(#p52a3b8cf41)" style="fill: none; stroke: #17becf; stroke-width: 1.5; stroke-linecap: square"/>
   </g>
   <g id="line2d_167">
    <path d="M 385.260042 264.985405 
L 365.981647 267.400533 
L 348.464152 269.822062 
L 338.131546 271.361975 
L 338.131546 271.361975 
" clip-path="url(#p52a3b8cf41)" style="fill: none; stroke: #1f77b4; stroke-width: 1.5; stroke-linecap: square"/>
   </g>
   <g id="line2d_168">
    <path d="M 388.876124 265.678738 
L 393.212056 263.519024 
L 397.945947 261.410288 
L 403.303885 259.2711 
L 407.440942 257.76237 
L 407.440942 257.76237 
" clip-path="url(#p52a3b8cf41)" style="fill: none; stroke: #ff7f0e; stroke-width: 1.5; stroke-linecap: square"/>
   </g>
   <g id="line2d_169">
    <path d="M 0 0 
" clip-path="url(#p52a3b8cf41)" style="fill: none; stroke: #2ca02c; stroke-width: 1.5; stroke-linecap: square"/>
   </g>
   <g id="line2d_170">
    <path d="M 329.186794 185.232141 
L 332.074514 182.021737 
L 335.266261 178.809447 
L 338.782874 175.593253 
L 342.643207 172.369579 
L 346.964864 169.058878 
L 350.389067 166.613946 
L 350.389067 166.613946 
" clip-path="url(#p52a3b8cf41)" style="fill: none; stroke: #d62728; stroke-width: 1.5; stroke-linecap: square"/>
   </g>
   <g id="line2d_171">
    <path d="M 324.884209 186.641212 
L 328.038473 182.121545 
L 331.34119 177.777229 
L 334.689414 173.738088 
L 338.179207 169.879426 
L 341.827085 166.176243 
L 342.079015 165.931499 
L 342.079015 165.931499 
" clip-path="url(#p52a3b8cf41)" style="fill: none; stroke: #9467bd; stroke-width: 1.5; stroke-linecap: square"/>
   </g>
   <g id="line2d_172">
    <path d="M 332.072675 185.445144 
L 334.061812 183.850185 
L 336.470858 182.210574 
L 339.485368 180.436023 
L 343.240477 178.494862 
L 347.681011 176.453469 
L 352.969677 174.270934 
L 356.456694 172.94286 
L 356.456694 172.94286 
" clip-path="url(#p52a3b8cf41)" style="fill: none; stroke: #8c564b; stroke-width: 1.5; stroke-linecap: square"/>
   </g>
   <g id="line2d_173">
    <path d="M 333.273542 183.684412 
L 336.3716 181.071858 
L 339.866951 178.416805 
L 343.773084 175.72899 
L 348.207775 172.946234 
L 353.313844 170.007107 
L 358.999725 166.984074 
L 358.999725 166.984074 
" clip-path="url(#p52a3b8cf41)" style="fill: none; stroke: #e377c2; stroke-width: 1.5; stroke-linecap: square"/>
   </g>
   <g id="line2d_174">
    <path d="M 388.628446 265.564551 
L 393.503551 263.387613 
L 398.962842 261.198731 
L 405.090137 258.985042 
L 408.641886 257.796848 
L 408.641886 257.796848 
" clip-path="url(#p52a3b8cf41)" style="fill: none; stroke: #7f7f7f; stroke-width: 1.5; stroke-linecap: square"/>
   </g>
   <g id="line2d_175">
    <path d="M 0 0 
" clip-path="url(#p52a3b8cf41)" style="fill: none; stroke: #bcbd22; stroke-width: 1.5; stroke-linecap: square"/>
   </g>
   <g id="line2d_176">
    <path d="M 383.844582 264.447969 
L 386.248932 262.742228 
L 390.856469 259.108647 
L 395.892013 255.270326 
L 395.992338 255.197197 
L 395.992338 255.197197 
" clip-path="url(#p52a3b8cf41)" style="fill: none; stroke: #17becf; stroke-width: 1.5; stroke-linecap: square"/>
   </g>
   <g id="line2d_177">
    <path d="M 332.451897 183.166791 
L 335.883434 180.174945 
L 339.742714 177.112524 
L 344.039216 173.990816 
L 348.890991 170.74111 
L 354.442489 167.293026 
L 358.991957 164.633581 
L 358.991957 164.633581 
" clip-path="url(#p52a3b8cf41)" style="fill: none; stroke: #1f77b4; stroke-width: 1.5; stroke-linecap: square"/>
   </g>
   <g id="line2d_178">
    <path d="M 0 0 
" clip-path="url(#p52a3b8cf41)" style="fill: none; stroke: #ff7f0e; stroke-width: 1.5; stroke-linecap: square"/>
   </g>
   <g id="line2d_179">
    <path d="M 0 0 
" clip-path="url(#p52a3b8cf41)" style="fill: none; stroke: #2ca02c; stroke-width: 1.5; stroke-linecap: square"/>
   </g>
   <g id="line2d_180">
    <path d="M 330.940442 185.941848 
L 332.850846 184.023047 
L 335.312559 181.882251 
L 338.605118 179.323748 
L 343.045308 176.168783 
L 348.45054 172.608351 
L 354.875286 168.651145 
L 362.075755 164.475694 
L 362.075755 164.475694 
" clip-path="url(#p52a3b8cf41)" style="fill: none; stroke: #d62728; stroke-width: 1.5; stroke-linecap: square"/>
   </g>
   <g id="line2d_181">
    <path d="M 387.952969 266.151464 
L 391.340986 264.31521 
L 395.130373 262.520546 
L 399.587719 260.663438 
L 404.799281 258.73988 
L 404.799281 258.73988 
" clip-path="url(#p52a3b8cf41)" style="fill: none; stroke: #9467bd; stroke-width: 1.5; stroke-linecap: square"/>
   </g>
   <g id="line2d_182">
    <path d="M 328.207713 186.315593 
L 331.14758 184.27887 
L 334.06853 182.531852 
L 337.555465 180.70859 
L 341.90281 178.696296 
L 347.084271 176.553389 
L 353.176323 174.284197 
L 355.105439 173.609669 
L 355.105439 173.609669 
" clip-path="url(#p52a3b8cf41)" style="fill: none; stroke: #8c564b; stroke-width: 1.5; stroke-linecap: square"/>
   </g>
   <g id="line2d_183">
    <path d="M 0 0 
" clip-path="url(#p52a3b8cf41)" style="fill: none; stroke: #e377c2; stroke-width: 1.5; stroke-linecap: square"/>
   </g>
   <g id="line2d_184">
    <path d="M 0 0 
" clip-path="url(#p52a3b8cf41)" style="fill: none; stroke: #7f7f7f; stroke-width: 1.5; stroke-linecap: square"/>
   </g>
   <g id="line2d_185">
    <path d="M 180.238232 144.898775 
L 180.435473 146.774466 
L 180.414674 148.66871 
L 180.154939 150.752185 
L 179.663552 152.877454 
L 178.897643 155.220691 
L 177.755453 157.973904 
L 176.178255 161.169747 
L 174.014636 165.026427 
L 171.077613 169.783715 
L 167.021217 175.901407 
L 161.4464 183.880997 
L 157.669508 189.131352 
L 157.669508 189.131352 
" clip-path="url(#p52a3b8cf41)" style="fill: none; stroke: #bcbd22; stroke-width: 1.5; stroke-linecap: square"/>
   </g>
   <g id="line2d_186">
    <path d="M 331.275848 183.826642 
L 334.784554 181.191202 
L 338.525375 178.670268 
L 342.868967 176.023653 
L 347.927066 173.206669 
L 353.987566 170.095428 
L 360.384141 167.038348 
L 360.384141 167.038348 
" clip-path="url(#p52a3b8cf41)" style="fill: none; stroke: #17becf; stroke-width: 1.5; stroke-linecap: square"/>
   </g>
   <g id="line2d_187">
    <path d="M 222.751213 150.676289 
L 224.452493 150.545704 
L 226.2327 150.605499 
L 228.607606 150.904747 
L 232.221513 151.62646 
L 237.861439 153.026057 
L 248.26384 155.887136 
L 270.529045 162.295817 
L 331.100044 180.026907 
L 380.300005 194.490722 
L 380.300005 194.490722 
" clip-path="url(#p52a3b8cf41)" style="fill: none; stroke: #1f77b4; stroke-width: 1.5; stroke-linecap: square"/>
   </g>
   <g id="line2d_188">
    <path d="M 385.283081 264.973466 
L 382.635051 262.331167 
L 354.438103 234.208369 
L 352.29799 232.053003 
L 352.29799 232.053003 
" clip-path="url(#p52a3b8cf41)" style="fill: none; stroke: #ff7f0e; stroke-width: 1.5; stroke-linecap: square"/>
   </g>
   <g id="line2d_189">
    <path d="M 329.189886 185.246772 
L 335.531492 187.552778 
L 433 223.222842 
L 433 223.222842 
" clip-path="url(#p52a3b8cf41)" style="fill: none; stroke: #2ca02c; stroke-width: 1.5; stroke-linecap: square"/>
   </g>
   <g id="line2d_190">
    <path d="M 385.255255 264.983259 
L 370.096604 266.795079 
L 355.088017 268.807606 
L 345.366693 270.237584 
L 345.366693 270.237584 
" clip-path="url(#p52a3b8cf41)" style="fill: none; stroke: #d62728; stroke-width: 1.5; stroke-linecap: square"/>
   </g>
   <g id="line2d_191">
    <path d="M 0 0 
" clip-path="url(#p52a3b8cf41)" style="fill: none; stroke: #9467bd; stroke-width: 1.5; stroke-linecap: square"/>
   </g>
   <g id="line2d_192">
    <path d="M 325.478967 184.497368 
L 330.457549 178.605946 
L 335.109609 173.428744 
L 339.620907 168.741373 
L 344.253505 164.256165 
L 346.687745 162.018379 
L 346.687745 162.018379 
" clip-path="url(#p52a3b8cf41)" style="fill: none; stroke: #8c564b; stroke-width: 1.5; stroke-linecap: square"/>
   </g>
   <g id="line2d_193">
    <path d="M 246.206075 146.11584 
L 246.72678 144.725775 
L 247.569844 143.171053 
L 248.660377 141.620152 
L 250.334829 139.664161 
L 252.517808 137.471748 
L 255.710042 134.604823 
L 260.323686 130.790905 
L 267.089157 125.509811 
L 277.744675 117.502136 
L 295.550981 104.434157 
L 312.024134 92.478817 
L 312.024134 92.478817 
" clip-path="url(#p52a3b8cf41)" style="fill: none; stroke: #e377c2; stroke-width: 1.5; stroke-linecap: square"/>
   </g>
   <g id="line2d_194">
    <path d="M 386.446202 267.22505 
L 389.970927 264.895166 
L 393.867061 262.594345 
L 398.259097 260.266127 
L 401.874554 258.515013 
L 401.874554 258.515013 
" clip-path="url(#p52a3b8cf41)" style="fill: none; stroke: #7f7f7f; stroke-width: 1.5; stroke-linecap: square"/>
   </g>
   <g id="line2d_195">
    <path d="M 0 0 
" clip-path="url(#p52a3b8cf41)" style="fill: none; stroke: #bcbd22; stroke-width: 1.5; stroke-linecap: square"/>
   </g>
   <g id="line2d_196">
    <path d="M 383.975455 266.55477 
L 388.487323 263.282213 
L 393.469513 259.94456 
L 398.037429 257.109275 
L 398.037429 257.109275 
" clip-path="url(#p52a3b8cf41)" style="fill: none; stroke: #17becf; stroke-width: 1.5; stroke-linecap: square"/>
   </g>
   <g id="line2d_197">
    <path d="M 0 0 
" clip-path="url(#p52a3b8cf41)" style="fill: none; stroke: #1f77b4; stroke-width: 1.5; stroke-linecap: square"/>
   </g>
   <g id="line2d_198">
    <path d="M 0 0 
" clip-path="url(#p52a3b8cf41)" style="fill: none; stroke: #ff7f0e; stroke-width: 1.5; stroke-linecap: square"/>
   </g>
   <g id="line2d_199">
    <path d="M 0 0 
" clip-path="url(#p52a3b8cf41)" style="fill: none; stroke: #2ca02c; stroke-width: 1.5; stroke-linecap: square"/>
   </g>
   <g id="line2d_200">
    <path d="M 0 0 
" clip-path="url(#p52a3b8cf41)" style="fill: none; stroke: #d62728; stroke-width: 1.5; stroke-linecap: square"/>
   </g>
   <g id="line2d_201">
    <path d="M 0 0 
" clip-path="url(#p52a3b8cf41)" style="fill: none; stroke: #9467bd; stroke-width: 1.5; stroke-linecap: square"/>
   </g>
   <g id="line2d_202">
    <path d="M 0 0 
" clip-path="url(#p52a3b8cf41)" style="fill: none; stroke: #8c564b; stroke-width: 1.5; stroke-linecap: square"/>
   </g>
   <g id="line2d_203">
    <path d="M 326.575219 187.504668 
L 329.087923 183.878356 
L 331.760112 180.413616 
L 334.609351 177.083575 
L 337.65508 173.864987 
L 340.99373 170.665373 
L 343.293316 168.625865 
L 343.293316 168.625865 
" clip-path="url(#p52a3b8cf41)" style="fill: none; stroke: #e377c2; stroke-width: 1.5; stroke-linecap: square"/>
   </g>
   <g id="line2d_204">
    <path d="M 388.157239 264.383549 
L 393.028881 261.005279 
L 398.804943 257.276053 
L 405.437612 253.262365 
L 406.421176 252.687868 
L 406.421176 252.687868 
" clip-path="url(#p52a3b8cf41)" style="fill: none; stroke: #7f7f7f; stroke-width: 1.5; stroke-linecap: square"/>
   </g>
   <g id="line2d_205">
    <path d="M 298.486015 153.448995 
L 298.618408 151.38171 
L 298.973354 149.33761 
L 299.552838 147.310894 
L 300.355926 145.295578 
L 301.428228 143.198412 
L 302.791904 141.013411 
L 304.534748 138.645796 
L 306.700305 136.08615 
L 309.41559 133.233862 
L 310.329283 132.335484 
L 310.329283 132.335484 
" clip-path="url(#p52a3b8cf41)" style="fill: none; stroke: #bcbd22; stroke-width: 1.5; stroke-linecap: square"/>
   </g>
   <g id="line2d_206">
    <path d="M 385.307237 264.977683 
L 388.530986 237.090176 
L 390.332254 224.135136 
L 390.887503 220.45381 
L 390.887503 220.45381 
" clip-path="url(#p52a3b8cf41)" style="fill: none; stroke: #17becf; stroke-width: 1.5; stroke-linecap: square"/>
   </g>
   <g id="line2d_207">
    <path d="M 385.304266 264.987881 
L 391.179657 257.765114 
L 405.075781 240.934623 
L 418.630703 224.863249 
L 428.844343 212.9766 
L 428.844343 212.9766 
" clip-path="url(#p52a3b8cf41)" style="fill: none; stroke: #1f77b4; stroke-width: 1.5; stroke-linecap: square"/>
   </g>
   <g id="line2d_208">
    <path d="M 330.935036 184.760841 
L 332.180716 182.700312 
L 334.298706 179.691781 
L 337.552507 175.475973 
L 341.381281 170.881517 
L 345.595949 166.178752 
L 350.199329 161.382098 
L 353.233057 158.379714 
L 353.233057 158.379714 
" clip-path="url(#p52a3b8cf41)" style="fill: none; stroke: #ff7f0e; stroke-width: 1.5; stroke-linecap: square"/>
   </g>
   <g id="line2d_209">
    <path d="M 385.262122 264.985272 
L 367.375802 266.336393 
L 347.681199 268.03168 
L 333.537193 269.399281 
L 333.537193 269.399281 
" clip-path="url(#p52a3b8cf41)" style="fill: none; stroke: #2ca02c; stroke-width: 1.5; stroke-linecap: square"/>
   </g>
   <g id="line2d_210">
    <path d="M 333.769907 186.595527 
L 336.098808 184.153889 
L 338.731161 181.726627 
L 341.676304 179.318535 
L 345.031999 176.867886 
L 348.821807 174.380041 
L 353.17205 171.798038 
L 354.540857 171.034258 
L 354.540857 171.034258 
" clip-path="url(#p52a3b8cf41)" style="fill: none; stroke: #d62728; stroke-width: 1.5; stroke-linecap: square"/>
   </g>
   <g id="line2d_211">
    <path d="M 327.13519 188.151297 
L 329.453189 184.686243 
L 331.979232 181.314849 
L 334.727938 178.024399 
L 337.653229 174.870703 
L 340.848293 171.75753 
L 343.285708 169.573407 
L 343.285708 169.573407 
" clip-path="url(#p52a3b8cf41)" style="fill: none; stroke: #9467bd; stroke-width: 1.5; stroke-linecap: square"/>
   </g>
   <g id="line2d_212">
    <path d="M 0 0 
" clip-path="url(#p52a3b8cf41)" style="fill: none; stroke: #8c564b; stroke-width: 1.5; stroke-linecap: square"/>
   </g>
   <g id="line2d_213">
    <path d="M 331.839772 182.934729 
L 335.299942 179.925247 
L 339.079512 176.933667 
L 343.283946 173.891765 
L 348.039136 170.733038 
L 353.37133 167.463383 
L 357.115086 165.302948 
L 357.115086 165.302948 
" clip-path="url(#p52a3b8cf41)" style="fill: none; stroke: #e377c2; stroke-width: 1.5; stroke-linecap: square"/>
   </g>
   <g id="line2d_214">
    <path d="M 180.236988 144.899375 
L 180.305708 146.909226 
L 180.172282 149.122553 
L 179.795636 151.553488 
L 179.141564 154.220939 
L 178.186557 157.144712 
L 176.831563 160.545961 
L 174.931734 164.666142 
L 172.423932 169.552929 
L 169.01833 175.691423 
L 164.230147 183.837689 
L 157.507354 194.807938 
L 157.064622 195.518732 
L 157.064622 195.518732 
" clip-path="url(#p52a3b8cf41)" style="fill: none; stroke: #7f7f7f; stroke-width: 1.5; stroke-linecap: square"/>
   </g>
   <g id="line2d_215">
    <path d="M 386.21449 263.46681 
L 400.859818 256.75064 
L 409.331141 253.159318 
L 409.331141 253.159318 
" clip-path="url(#p52a3b8cf41)" style="fill: none; stroke: #bcbd22; stroke-width: 1.5; stroke-linecap: square"/>
   </g>
   <g id="line2d_216">
    <path d="M 0 0 
" clip-path="url(#p52a3b8cf41)" style="fill: none; stroke: #17becf; stroke-width: 1.5; stroke-linecap: square"/>
   </g>
   <g id="line2d_217">
    <path d="M 385.230465 264.972147 
L 383.760258 264.940373 
L 374.764928 264.949797 
L 365.619073 265.173865 
L 362.567575 265.301382 
L 362.567575 265.301382 
" clip-path="url(#p52a3b8cf41)" style="fill: none; stroke: #1f77b4; stroke-width: 1.5; stroke-linecap: square"/>
   </g>
   <g id="line2d_218">
    <path d="M 0 0 
" clip-path="url(#p52a3b8cf41)" style="fill: none; stroke: #ff7f0e; stroke-width: 1.5; stroke-linecap: square"/>
   </g>
   <g id="line2d_219">
    <path d="M 329.045967 183.833877 
L 338.060274 176.99757 
L 343.488257 173.227709 
L 349.66789 169.213839 
L 356.622411 164.970056 
L 360.53191 162.686087 
L 360.53191 162.686087 
" clip-path="url(#p52a3b8cf41)" style="fill: none; stroke: #2ca02c; stroke-width: 1.5; stroke-linecap: square"/>
   </g>
   <g id="line2d_220">
    <path d="M 385.302886 265.000339 
L 391.325779 263.607864 
L 427.535564 255.419337 
L 433 254.201508 
L 433 254.201508 
" clip-path="url(#p52a3b8cf41)" style="fill: none; stroke: #d62728; stroke-width: 1.5; stroke-linecap: square"/>
   </g>
   <g id="line2d_221">
    <path d="M 0 0 
" clip-path="url(#p52a3b8cf41)" style="fill: none; stroke: #9467bd; stroke-width: 1.5; stroke-linecap: square"/>
   </g>
   <g id="line2d_222">
    <path d="M 0 0 
" clip-path="url(#p52a3b8cf41)" style="fill: none; stroke: #8c564b; stroke-width: 1.5; stroke-linecap: square"/>
   </g>
   <g id="line2d_223">
    <path d="M 0 0 
" clip-path="url(#p52a3b8cf41)" style="fill: none; stroke: #e377c2; stroke-width: 1.5; stroke-linecap: square"/>
   </g>
   <g id="line2d_224">
    <path d="M 0 0 
" clip-path="url(#p52a3b8cf41)" style="fill: none; stroke: #7f7f7f; stroke-width: 1.5; stroke-linecap: square"/>
   </g>
   <g id="line2d_225">
    <path d="M 385.35758 265.02117 
L 386.543442 264.542613 
L 402.349895 258.630422 
L 422.339231 251.380867 
L 433 247.605611 
L 433 247.605611 
" clip-path="url(#p52a3b8cf41)" style="fill: none; stroke: #bcbd22; stroke-width: 1.5; stroke-linecap: square"/>
   </g>
   <g id="line2d_226">
    <path d="M 0 0 
" clip-path="url(#p52a3b8cf41)" style="fill: none; stroke: #17becf; stroke-width: 1.5; stroke-linecap: square"/>
   </g>
   <g id="line2d_227">
    <path d="M 0 0 
" clip-path="url(#p52a3b8cf41)" style="fill: none; stroke: #1f77b4; stroke-width: 1.5; stroke-linecap: square"/>
   </g>
   <g id="line2d_228">
    <path d="M 385.28328 264.992283 
L 391.452114 261.350037 
L 397.898789 257.804992 
L 403.592114 254.875402 
L 403.592114 254.875402 
" clip-path="url(#p52a3b8cf41)" style="fill: none; stroke: #ff7f0e; stroke-width: 1.5; stroke-linecap: square"/>
   </g>
   <g id="line2d_229">
    <path d="M 0 0 
" clip-path="url(#p52a3b8cf41)" style="fill: none; stroke: #2ca02c; stroke-width: 1.5; stroke-linecap: square"/>
   </g>
   <g id="line2d_230">
    <path d="M 385.920278 267.177656 
L 391.464741 264.190183 
L 397.345923 261.278753 
L 403.676774 258.396369 
L 406.46371 257.198828 
L 406.46371 257.198828 
" clip-path="url(#p52a3b8cf41)" style="fill: none; stroke: #d62728; stroke-width: 1.5; stroke-linecap: square"/>
   </g>
   <g id="line2d_231">
    <path d="M 332.430616 184.663758 
L 334.642845 182.774679 
L 337.237595 180.859496 
L 340.304222 178.880534 
L 344.053845 176.736764 
L 348.525288 174.446008 
L 353.760248 172.018161 
L 357.246248 170.514879 
L 357.246248 170.514879 
" clip-path="url(#p52a3b8cf41)" style="fill: none; stroke: #9467bd; stroke-width: 1.5; stroke-linecap: square"/>
   </g>
   <g id="line2d_232">
    <path d="M 387.288163 265.656867 
L 390.721696 264.190038 
L 394.920897 262.651249 
L 400.127283 260.988229 
L 406.456165 259.206313 
L 406.716963 259.137351 
L 406.716963 259.137351 
" clip-path="url(#p52a3b8cf41)" style="fill: none; stroke: #8c564b; stroke-width: 1.5; stroke-linecap: square"/>
   </g>
   <g id="line2d_233">
    <path d="M 387.366709 264.871912 
L 392.08332 263.111978 
L 397.783758 261.235406 
L 404.814272 259.16219 
L 410.03973 257.745379 
L 410.03973 257.745379 
" clip-path="url(#p52a3b8cf41)" style="fill: none; stroke: #e377c2; stroke-width: 1.5; stroke-linecap: square"/>
   </g>
   <g id="line2d_234">
    <path d="M 381.894554 266.25051 
L 390.419378 260.108417 
L 398.63042 254.377253 
L 398.63042 254.377253 
" clip-path="url(#p52a3b8cf41)" style="fill: none; stroke: #7f7f7f; stroke-width: 1.5; stroke-linecap: square"/>
   </g>
   <g id="line2d_235">
    <path d="M 332.185532 185.308566 
L 334.439157 183.410872 
L 337.117268 181.452378 
L 340.408486 179.328482 
L 344.35144 177.057349 
L 348.990759 174.650138 
L 354.376986 172.113677 
L 356.160835 171.321839 
L 356.160835 171.321839 
" clip-path="url(#p52a3b8cf41)" style="fill: none; stroke: #bcbd22; stroke-width: 1.5; stroke-linecap: square"/>
   </g>
   <g id="line2d_236">
    <path d="M 0 0 
" clip-path="url(#p52a3b8cf41)" style="fill: none; stroke: #17becf; stroke-width: 1.5; stroke-linecap: square"/>
   </g>
   <g id="line2d_237">
    <path d="M 0 0 
" clip-path="url(#p52a3b8cf41)" style="fill: none; stroke: #1f77b4; stroke-width: 1.5; stroke-linecap: square"/>
   </g>
   <g id="line2d_238">
    <path d="M 221.4 143.28 
L 221.4 143.28 
" clip-path="url(#p52a3b8cf41)" style="fill: none; stroke: #ff7f0e; stroke-width: 1.5; stroke-linecap: square"/>
   </g>
   <g id="line2d_239">
    <path d="M 384.217981 261.585766 
L 393.710559 256.325045 
L 402.711897 251.586804 
L 404.573193 250.638953 
L 404.573193 250.638953 
" clip-path="url(#p52a3b8cf41)" style="fill: none; stroke: #2ca02c; stroke-width: 1.5; stroke-linecap: square"/>
   </g>
   <g id="line2d_240">
    <path d="M 387.763934 266.513446 
L 391.160147 264.538588 
L 394.935122 262.609505 
L 399.21372 260.678002 
L 404.143509 258.699254 
L 404.21713 258.671349 
L 404.21713 258.671349 
" clip-path="url(#p52a3b8cf41)" style="fill: none; stroke: #d62728; stroke-width: 1.5; stroke-linecap: square"/>
   </g>
   <g id="line2d_241">
    <path d="M 0 0 
" clip-path="url(#p52a3b8cf41)" style="fill: none; stroke: #9467bd; stroke-width: 1.5; stroke-linecap: square"/>
   </g>
   <g id="line2d_242">
    <path d="M 132.365193 158.626571 
L 133.599896 161.429267 
L 134.613222 164.27777 
L 135.410505 167.178569 
L 136.016717 170.244085 
L 136.410157 173.376783 
L 136.606482 176.692178 
L 136.596448 180.315216 
L 136.358285 184.264168 
L 136.347958 184.381866 
L 136.347958 184.381866 
" clip-path="url(#p52a3b8cf41)" style="fill: none; stroke: #8c564b; stroke-width: 1.5; stroke-linecap: square"/>
   </g>
   <g id="line2d_243">
    <path d="M 385.562308 267.024337 
L 390.164309 264.604472 
L 395.240586 262.194274 
L 401.095641 259.670085 
L 406.478747 257.531165 
L 406.478747 257.531165 
" clip-path="url(#p52a3b8cf41)" style="fill: none; stroke: #e377c2; stroke-width: 1.5; stroke-linecap: square"/>
   </g>
   <g id="line2d_244">
    <path d="M 382.260293 264.341543 
L 390.827208 259.395847 
L 397.345555 255.890625 
L 398.085362 255.509897 
L 398.085362 255.509897 
" clip-path="url(#p52a3b8cf41)" style="fill: none; stroke: #7f7f7f; stroke-width: 1.5; stroke-linecap: square"/>
   </g>
   <g id="line2d_245">
    <path d="M 331.921948 184.460244 
L 334.806806 182.405872 
L 338.137201 180.31407 
L 342.219197 178.022092 
L 347.082446 175.552151 
L 352.895662 172.857138 
L 359.583276 170.00524 
L 360.425732 169.661088 
L 360.425732 169.661088 
" clip-path="url(#p52a3b8cf41)" style="fill: none; stroke: #bcbd22; stroke-width: 1.5; stroke-linecap: square"/>
   </g>
   <g id="line2d_246">
    <path d="M 385.258088 264.967473 
L 383.652826 264.319908 
L 366.976199 257.898973 
L 352.467709 252.476752 
L 352.467709 252.476752 
" clip-path="url(#p52a3b8cf41)" style="fill: none; stroke: #17becf; stroke-width: 1.5; stroke-linecap: square"/>
   </g>
   <g id="line2d_247">
    <path d="M 385.307472 264.968039 
L 384.822163 261.735507 
L 382.639732 246.84202 
L 381.066668 234.585716 
L 380.347502 228.212992 
L 380.347502 228.212992 
" clip-path="url(#p52a3b8cf41)" style="fill: none; stroke: #1f77b4; stroke-width: 1.5; stroke-linecap: square"/>
   </g>
   <g id="line2d_248">
    <path d="M 0 0 
" clip-path="url(#p52a3b8cf41)" style="fill: none; stroke: #ff7f0e; stroke-width: 1.5; stroke-linecap: square"/>
   </g>
   <g id="line2d_249">
    <path d="M 329.217029 185.217981 
L 330.877257 178.756966 
L 334.578004 165.014355 
L 338.398253 151.691585 
L 342.446644 138.384153 
L 347.086082 123.925479 
L 352.467986 107.905524 
L 357.252022 94.129584 
L 357.252022 94.129584 
" clip-path="url(#p52a3b8cf41)" style="fill: none; stroke: #2ca02c; stroke-width: 1.5; stroke-linecap: square"/>
   </g>
   <g id="line2d_250">
    <path d="M 330.522895 182.764841 
L 334.787599 179.040256 
L 339.25947 175.435938 
L 344.106614 171.819767 
L 349.550296 168.044148 
L 355.605697 164.119274 
L 357.747265 162.787673 
L 357.747265 162.787673 
" clip-path="url(#p52a3b8cf41)" style="fill: none; stroke: #d62728; stroke-width: 1.5; stroke-linecap: square"/>
   </g>
   <g id="line2d_251">
    <path d="M 330.18541 185.535544 
L 331.461248 184.225214 
L 333.46227 182.543757 
L 337.038497 179.874373 
L 342.314351 176.230874 
L 348.7928 172.036677 
L 356.217068 167.501865 
L 364.628754 162.62888 
L 365.302992 162.248384 
L 365.302992 162.248384 
" clip-path="url(#p52a3b8cf41)" style="fill: none; stroke: #9467bd; stroke-width: 1.5; stroke-linecap: square"/>
   </g>
   <g id="line2d_252">
    <path d="M 387.440746 263.817795 
L 395.08727 260.559276 
L 402.644298 257.589459 
L 410.422343 254.755238 
L 410.422343 254.755238 
" clip-path="url(#p52a3b8cf41)" style="fill: none; stroke: #8c564b; stroke-width: 1.5; stroke-linecap: square"/>
   </g>
   <g id="line2d_253">
    <path d="M 388.92996 263.984868 
L 395.27218 261.078322 
L 402.06523 258.215299 
L 409.459663 255.345309 
L 410.32136 255.025462 
L 410.32136 255.025462 
" clip-path="url(#p52a3b8cf41)" style="fill: none; stroke: #e377c2; stroke-width: 1.5; stroke-linecap: square"/>
   </g>
   <g id="line2d_254">
    <path d="M 332.517648 184.519014 
L 335.400761 182.14472 
L 338.579449 179.814512 
L 342.245339 177.405211 
L 346.529599 174.864463 
L 351.467002 172.203132 
L 357.218249 169.365679 
L 358.252399 168.879465 
L 358.252399 168.879465 
" clip-path="url(#p52a3b8cf41)" style="fill: none; stroke: #7f7f7f; stroke-width: 1.5; stroke-linecap: square"/>
   </g>
   <g id="line2d_255">
    <path d="M 385.096246 264.932721 
L 385.179019 264.782959 
L 384.961253 264.395452 
L 383.074392 261.763465 
L 383.074392 261.763465 
" clip-path="url(#p52a3b8cf41)" style="fill: none; stroke: #bcbd22; stroke-width: 1.5; stroke-linecap: square"/>
   </g>
   <g id="line2d_256">
    <path d="M 0 0 
" clip-path="url(#p52a3b8cf41)" style="fill: none; stroke: #17becf; stroke-width: 1.5; stroke-linecap: square"/>
   </g>
   <g id="line2d_257">
    <path d="M 0 0 
" clip-path="url(#p52a3b8cf41)" style="fill: none; stroke: #1f77b4; stroke-width: 1.5; stroke-linecap: square"/>
   </g>
   <g id="line2d_258">
    <path d="M 0 0 
" clip-path="url(#p52a3b8cf41)" style="fill: none; stroke: #ff7f0e; stroke-width: 1.5; stroke-linecap: square"/>
   </g>
   <g id="line2d_259">
    <path d="M 0 0 
" clip-path="url(#p52a3b8cf41)" style="fill: none; stroke: #2ca02c; stroke-width: 1.5; stroke-linecap: square"/>
   </g>
   <g id="line2d_260">
    <path d="M 0 0 
" clip-path="url(#p52a3b8cf41)" style="fill: none; stroke: #d62728; stroke-width: 1.5; stroke-linecap: square"/>
   </g>
   <g id="line2d_261">
    <path d="M 331.119008 185.580909 
L 333.087173 183.283324 
L 335.708944 180.589342 
L 339.369283 177.171096 
L 343.910084 173.242481 
L 349.249269 168.921816 
L 355.293134 164.320862 
L 359.918821 160.963282 
L 359.918821 160.963282 
" clip-path="url(#p52a3b8cf41)" style="fill: none; stroke: #9467bd; stroke-width: 1.5; stroke-linecap: square"/>
   </g>
   <g id="line2d_262">
    <path d="M 224.583964 154.926705 
L 227.226959 154.752855 
L 229.983822 154.805658 
L 233.308103 155.098899 
L 237.730892 155.730113 
L 243.870147 156.847809 
L 253.436468 158.83907 
L 269.450092 162.424777 
L 300.304927 169.59495 
L 352.608443 181.947256 
L 352.608443 181.947256 
" clip-path="url(#p52a3b8cf41)" style="fill: none; stroke: #8c564b; stroke-width: 1.5; stroke-linecap: square"/>
   </g>
   <g id="line2d_263">
    <path d="M 180.720049 166.659398 
L 183.433669 168.634396 
L 185.951861 170.739836 
L 188.294213 172.981318 
L 190.600441 175.49658 
L 192.872542 178.306838 
L 195.222427 181.581817 
L 197.64701 185.357755 
L 200.246201 189.833417 
L 203.112863 195.231179 
L 206.33874 201.792712 
L 206.868826 202.912995 
L 206.868826 202.912995 
" clip-path="url(#p52a3b8cf41)" style="fill: none; stroke: #e377c2; stroke-width: 1.5; stroke-linecap: square"/>
   </g>
   <g id="line2d_264">
    <path d="M 388.525003 267.108623 
L 392.548985 264.648482 
L 396.827584 262.29787 
L 401.421433 260.029398 
L 404.991569 258.41868 
L 404.991569 258.41868 
" clip-path="url(#p52a3b8cf41)" style="fill: none; stroke: #7f7f7f; stroke-width: 1.5; stroke-linecap: square"/>
   </g>
   <g id="patch_3">
    <path d="M 54 252 
L 54 34.56 
" style="fill: none; stroke: #000000; stroke-width: 0.8; stroke-linejoin: miter; stroke-linecap: square"/>
   </g>
   <g id="patch_4">
    <path d="M 388.8 252 
L 388.8 34.56 
" style="fill: none; stroke: #000000; stroke-width: 0.8; stroke-linejoin: miter; stroke-linecap: square"/>
   </g>
   <g id="patch_5">
    <path d="M 54 252 
L 388.8 252 
" style="fill: none; stroke: #000000; stroke-width: 0.8; stroke-linejoin: miter; stroke-linecap: square"/>
   </g>
   <g id="patch_6">
    <path d="M 54 34.56 
L 388.8 34.56 
" style="fill: none; stroke: #000000; stroke-width: 0.8; stroke-linejoin: miter; stroke-linecap: square"/>
   </g>
   <g id="text_23">
    <!-- Inner Solar System and Jupiter -->
    <g transform="translate(129.726562 28.56)scale(0.12 -0.12)">
     <defs>
      <path id="DejaVuSans-49" d="M 628 4666 
L 1259 4666 
L 1259 0 
L 628 0 
L 628 4666 
z
" transform="scale(0.015625)"/>
      <path id="DejaVuSans-53" d="M 3425 4513 
L 3425 3897 
Q 3066 4069 2747 4153 
Q 2428 4238 2131 4238 
Q 1616 4238 1336 4038 
Q 1056 3838 1056 3469 
Q 1056 3159 1242 3001 
Q 1428 2844 1947 2747 
L 2328 2669 
Q 3034 2534 3370 2195 
Q 3706 1856 3706 1288 
Q 3706 609 3251 259 
Q 2797 -91 1919 -91 
Q 1588 -91 1214 -16 
Q 841 59 441 206 
L 441 856 
Q 825 641 1194 531 
Q 1563 422 1919 422 
Q 2459 422 2753 634 
Q 3047 847 3047 1241 
Q 3047 1584 2836 1778 
Q 2625 1972 2144 2069 
L 1759 2144 
Q 1053 2284 737 2584 
Q 422 2884 422 3419 
Q 422 4038 858 4394 
Q 1294 4750 2059 4750 
Q 2388 4750 2728 4690 
Q 3069 4631 3425 4513 
z
" transform="scale(0.015625)"/>
      <path id="DejaVuSans-6c" d="M 603 4863 
L 1178 4863 
L 1178 0 
L 603 0 
L 603 4863 
z
" transform="scale(0.015625)"/>
      <path id="DejaVuSans-79" d="M 2059 -325 
Q 1816 -950 1584 -1140 
Q 1353 -1331 966 -1331 
L 506 -1331 
L 506 -850 
L 844 -850 
Q 1081 -850 1212 -737 
Q 1344 -625 1503 -206 
L 1606 56 
L 191 3500 
L 800 3500 
L 1894 763 
L 2988 3500 
L 3597 3500 
L 2059 -325 
z
" transform="scale(0.015625)"/>
      <path id="DejaVuSans-73" d="M 2834 3397 
L 2834 2853 
Q 2591 2978 2328 3040 
Q 2066 3103 1784 3103 
Q 1356 3103 1142 2972 
Q 928 2841 928 2578 
Q 928 2378 1081 2264 
Q 1234 2150 1697 2047 
L 1894 2003 
Q 2506 1872 2764 1633 
Q 3022 1394 3022 966 
Q 3022 478 2636 193 
Q 2250 -91 1575 -91 
Q 1294 -91 989 -36 
Q 684 19 347 128 
L 347 722 
Q 666 556 975 473 
Q 1284 391 1588 391 
Q 1994 391 2212 530 
Q 2431 669 2431 922 
Q 2431 1156 2273 1281 
Q 2116 1406 1581 1522 
L 1381 1569 
Q 847 1681 609 1914 
Q 372 2147 372 2553 
Q 372 3047 722 3315 
Q 1072 3584 1716 3584 
Q 2034 3584 2315 3537 
Q 2597 3491 2834 3397 
z
" transform="scale(0.015625)"/>
      <path id="DejaVuSans-6d" d="M 3328 2828 
Q 3544 3216 3844 3400 
Q 4144 3584 4550 3584 
Q 5097 3584 5394 3201 
Q 5691 2819 5691 2113 
L 5691 0 
L 5113 0 
L 5113 2094 
Q 5113 2597 4934 2840 
Q 4756 3084 4391 3084 
Q 3944 3084 3684 2787 
Q 3425 2491 3425 1978 
L 3425 0 
L 2847 0 
L 2847 2094 
Q 2847 2600 2669 2842 
Q 2491 3084 2119 3084 
Q 1678 3084 1418 2786 
Q 1159 2488 1159 1978 
L 1159 0 
L 581 0 
L 581 3500 
L 1159 3500 
L 1159 2956 
Q 1356 3278 1631 3431 
Q 1906 3584 2284 3584 
Q 2666 3584 2933 3390 
Q 3200 3197 3328 2828 
z
" transform="scale(0.015625)"/>
      <path id="DejaVuSans-4a" d="M 628 4666 
L 1259 4666 
L 1259 325 
Q 1259 -519 939 -900 
Q 619 -1281 -91 -1281 
L -331 -1281 
L -331 -750 
L -134 -750 
Q 284 -750 456 -515 
Q 628 -281 628 325 
L 628 4666 
z
" transform="scale(0.015625)"/>
      <path id="DejaVuSans-75" d="M 544 1381 
L 544 3500 
L 1119 3500 
L 1119 1403 
Q 1119 906 1312 657 
Q 1506 409 1894 409 
Q 2359 409 2629 706 
Q 2900 1003 2900 1516 
L 2900 3500 
L 3475 3500 
L 3475 0 
L 2900 0 
L 2900 538 
Q 2691 219 2414 64 
Q 2138 -91 1772 -91 
Q 1169 -91 856 284 
Q 544 659 544 1381 
z
M 1991 3584 
L 1991 3584 
z
" transform="scale(0.015625)"/>
      <path id="DejaVuSans-70" d="M 1159 525 
L 1159 -1331 
L 581 -1331 
L 581 3500 
L 1159 3500 
L 1159 2969 
Q 1341 3281 1617 3432 
Q 1894 3584 2278 3584 
Q 2916 3584 3314 3078 
Q 3713 2572 3713 1747 
Q 3713 922 3314 415 
Q 2916 -91 2278 -91 
Q 1894 -91 1617 61 
Q 1341 213 1159 525 
z
M 3116 1747 
Q 3116 2381 2855 2742 
Q 2594 3103 2138 3103 
Q 1681 3103 1420 2742 
Q 1159 2381 1159 1747 
Q 1159 1113 1420 752 
Q 1681 391 2138 391 
Q 2594 391 2855 752 
Q 3116 1113 3116 1747 
z
" transform="scale(0.015625)"/>
     </defs>
     <use xlink:href="#DejaVuSans-49"/>
     <use xlink:href="#DejaVuSans-6e" x="29.492188"/>
     <use xlink:href="#DejaVuSans-6e" x="92.871094"/>
     <use xlink:href="#DejaVuSans-65" x="156.25"/>
     <use xlink:href="#DejaVuSans-72" x="217.773438"/>
     <use xlink:href="#DejaVuSans-20" x="258.886719"/>
     <use xlink:href="#DejaVuSans-53" x="290.673828"/>
     <use xlink:href="#DejaVuSans-6f" x="354.150391"/>
     <use xlink:href="#DejaVuSans-6c" x="415.332031"/>
     <use xlink:href="#DejaVuSans-61" x="443.115234"/>
     <use xlink:href="#DejaVuSans-72" x="504.394531"/>
     <use xlink:href="#DejaVuSans-20" x="545.507812"/>
     <use xlink:href="#DejaVuSans-53" x="577.294922"/>
     <use xlink:href="#DejaVuSans-79" x="640.771484"/>
     <use xlink:href="#DejaVuSans-73" x="699.951172"/>
     <use xlink:href="#DejaVuSans-74" x="752.050781"/>
     <use xlink:href="#DejaVuSans-65" x="791.259766"/>
     <use xlink:href="#DejaVuSans-6d" x="852.783203"/>
     <use xlink:href="#DejaVuSans-20" x="950.195312"/>
     <use xlink:href="#DejaVuSans-61" x="981.982422"/>
     <use xlink:href="#DejaVuSans-6e" x="1043.261719"/>
     <use xlink:href="#DejaVuSans-64" x="1106.640625"/>
     <use xlink:href="#DejaVuSans-20" x="1170.117188"/>
     <use xlink:href="#DejaVuSans-4a" x="1201.904297"/>
     <use xlink:href="#DejaVuSans-75" x="1231.396484"/>
     <use xlink:href="#DejaVuSans-70" x="1294.775391"/>
     <use xlink:href="#DejaVuSans-69" x="1358.251953"/>
     <use xlink:href="#DejaVuSans-74" x="1386.035156"/>
     <use xlink:href="#DejaVuSans-65" x="1425.244141"/>
     <use xlink:href="#DejaVuSans-72" x="1486.767578"/>
    </g>
   </g>
  </g>
 </g>
 <defs>
  <clipPath id="p52a3b8cf41">
   <rect x="54" y="34.56" width="334.8" height="217.44"/>
  </clipPath>
 </defs>
</svg>
